<svg xmlns="http://www.w3.org/2000/svg" xmlns:xlink="http://www.w3.org/1999/xlink" width="60" height="49" viewBox="0 0 60 49"><defs><clipPath id="a"><rect width="60" height="49" transform="translate(5963 380)" fill="none" stroke="#707070" stroke-width="1"/></clipPath></defs><g transform="translate(-5963 -380)" clip-path="url(#a)"><g transform="translate(5874.127 385)"><g transform="translate(107.873 0)"><path d="M128.818,38.54h-19.59a1.355,1.355,0,0,1-1.355-1.355V1.355A1.355,1.355,0,0,1,109.228,0h19.59a1.355,1.355,0,0,1,1.355,1.355v35.83A1.355,1.355,0,0,1,128.818,38.54Z" transform="translate(-107.873)" fill="#695e66"/></g><g transform="translate(107.873 0)"><path d="M128.818,0h-1.533V34.3a1.355,1.355,0,0,1-1.355,1.355H107.873v1.533a1.355,1.355,0,0,0,1.355,1.355h19.589a1.355,1.355,0,0,0,1.355-1.355V1.355A1.355,1.355,0,0,0,128.818,0Z" transform="translate(-107.873 0)" fill="#453e43"/></g><g transform="translate(110.208 4.088)"><path d="M155.805,81.923H139.494a.6.6,0,0,1-.6-.6V54.913a.6.6,0,0,1,.6-.6h16.311a.6.6,0,0,1,.6.6V81.321A.6.6,0,0,1,155.805,81.923Z" transform="translate(-138.892 -54.311)" fill="#62d8f9"/></g><g transform="translate(110.208 4.088)"><path d="M155.8,54.311H154.77V79.684a.6.6,0,0,1-.6.6H138.892v1.035a.6.6,0,0,0,.6.6H155.8a.6.6,0,0,0,.6-.6V54.913A.6.6,0,0,0,155.8,54.311Z" transform="translate(-138.892 -54.311)" fill="#00bef7"/></g><g transform="translate(117.943 33.984)"><circle cx="1.08" cy="1.08" r="1.08" transform="translate(0)" fill="#453e43"/></g><g transform="translate(112.677 7.603)"><path d="M175.316,105.1h-3.141a.479.479,0,0,1-.479-.479V101.48a.479.479,0,0,1,.479-.479h3.141a.479.479,0,0,1,.479.479v3.141A.479.479,0,0,1,175.316,105.1Z" transform="translate(-171.696 -101.001)" fill="#fce25c"/></g><g transform="translate(118.515 14.351)"><path d="M252.866,194.75h-3.141a.479.479,0,0,1-.479-.479v-3.141a.479.479,0,0,1,.479-.479h3.141a.479.479,0,0,1,.479.479v3.141A.479.479,0,0,1,252.866,194.75Z" transform="translate(-249.246 -190.652)" fill="#f1faff"/></g><g transform="translate(112.677 14.356)"><path d="M175.316,194.813h-3.141a.479.479,0,0,1-.479-.479v-3.141a.479.479,0,0,1,.479-.479h3.141a.479.479,0,0,1,.479.479v3.141A.479.479,0,0,1,175.316,194.813Z" transform="translate(-171.696 -190.715)" fill="#fb636f"/></g><g transform="translate(118.515 7.949)"><circle cx="2.049" cy="2.049" r="2.049" transform="translate(0)" fill="#fa989e"/></g><g transform="translate(112.677 21.029)"><circle cx="2.049" cy="2.049" r="2.049" fill="#e0dde2"/></g><g transform="translate(117.398 27.898)"><path d="M237.1,371.747h-2.12a.565.565,0,1,1,0-1.129h2.12a.565.565,0,1,1,0,1.129Z" transform="translate(-234.415 -370.618)" fill="#f1faff"/></g><g transform="translate(121.633 27.898)"><path d="M293.364,371.747h-2.12a.565.565,0,0,1,0-1.129h2.12a.565.565,0,0,1,0,1.129Z" transform="translate(-290.679 -370.618)" fill="#f1faff"/></g><g transform="translate(113.102 27.898)"><path d="M180.021,371.747H177.9a.565.565,0,0,1,0-1.129h2.12a.565.565,0,1,1,0,1.129Z" transform="translate(-177.336 -370.618)" fill="#f1faff"/></g></g></g></svg>