<svg width="360" height="720" viewBox="0 0 360 720" fill="none" xmlns="http://www.w3.org/2000/svg">
<path d="M360 0H0V720H360V0Z" fill="white"/>
<rect width="360" height="24" fill="#FAFAFA"/>
<path d="M35.3486 16.9609V18H28.834V17.0908L32.0947 13.4609C32.4958 13.0143 32.8057 12.6361 33.0244 12.3262C33.2477 12.0117 33.4027 11.7314 33.4893 11.4854C33.5804 11.2347 33.626 10.9795 33.626 10.7197C33.626 10.3916 33.5576 10.0954 33.4209 9.83105C33.2887 9.56217 33.0928 9.34798 32.833 9.18848C32.5732 9.02897 32.2588 8.94922 31.8896 8.94922C31.4476 8.94922 31.0785 9.03581 30.7822 9.20898C30.4906 9.3776 30.2718 9.61458 30.126 9.91992C29.9801 10.2253 29.9072 10.5762 29.9072 10.9727H28.6426C28.6426 10.4121 28.7656 9.89941 29.0117 9.43457C29.2578 8.96973 29.6224 8.60059 30.1055 8.32715C30.5885 8.04915 31.1833 7.91016 31.8896 7.91016C32.5186 7.91016 33.0563 8.02181 33.5029 8.24512C33.9495 8.46387 34.2913 8.77376 34.5283 9.1748C34.7699 9.57129 34.8906 10.0361 34.8906 10.5693C34.8906 10.861 34.8405 11.1572 34.7402 11.458C34.6445 11.7542 34.5101 12.0505 34.3369 12.3467C34.1683 12.6429 33.9701 12.9346 33.7422 13.2217C33.5189 13.5088 33.2796 13.7913 33.0244 14.0693L30.3584 16.9609H35.3486ZM36.7842 17.3301C36.7842 17.1159 36.8503 16.9359 36.9824 16.79C37.1191 16.6396 37.3151 16.5645 37.5703 16.5645C37.8255 16.5645 38.0192 16.6396 38.1514 16.79C38.2881 16.9359 38.3564 17.1159 38.3564 17.3301C38.3564 17.5397 38.2881 17.7174 38.1514 17.8633C38.0192 18.0091 37.8255 18.082 37.5703 18.082C37.3151 18.082 37.1191 18.0091 36.9824 17.8633C36.8503 17.7174 36.7842 17.5397 36.7842 17.3301ZM36.791 11.2939C36.791 11.0798 36.8571 10.8997 36.9893 10.7539C37.126 10.6035 37.3219 10.5283 37.5771 10.5283C37.8324 10.5283 38.026 10.6035 38.1582 10.7539C38.2949 10.8997 38.3633 11.0798 38.3633 11.2939C38.3633 11.5036 38.2949 11.6813 38.1582 11.8271C38.026 11.973 37.8324 12.0459 37.5771 12.0459C37.3219 12.0459 37.126 11.973 36.9893 11.8271C36.8571 11.6813 36.791 11.5036 36.791 11.2939ZM46.6143 16.9609V18H40.0996V17.0908L43.3604 13.4609C43.7614 13.0143 44.0713 12.6361 44.29 12.3262C44.5133 12.0117 44.6683 11.7314 44.7549 11.4854C44.846 11.2347 44.8916 10.9795 44.8916 10.7197C44.8916 10.3916 44.8232 10.0954 44.6865 9.83105C44.5544 9.56217 44.3584 9.34798 44.0986 9.18848C43.8389 9.02897 43.5244 8.94922 43.1553 8.94922C42.7132 8.94922 42.3441 9.03581 42.0479 9.20898C41.7562 9.3776 41.5374 9.61458 41.3916 9.91992C41.2458 10.2253 41.1729 10.5762 41.1729 10.9727H39.9082C39.9082 10.4121 40.0312 9.89941 40.2773 9.43457C40.5234 8.96973 40.888 8.60059 41.3711 8.32715C41.8542 8.04915 42.4489 7.91016 43.1553 7.91016C43.7842 7.91016 44.3219 8.02181 44.7686 8.24512C45.2152 8.46387 45.557 8.77376 45.7939 9.1748C46.0355 9.57129 46.1562 10.0361 46.1562 10.5693C46.1562 10.861 46.1061 11.1572 46.0059 11.458C45.9102 11.7542 45.7757 12.0505 45.6025 12.3467C45.4339 12.6429 45.2357 12.9346 45.0078 13.2217C44.7845 13.5088 44.5452 13.7913 44.29 14.0693L41.624 16.9609H46.6143ZM49.2256 16.9404H49.3555C50.0846 16.9404 50.6771 16.8379 51.1328 16.6328C51.5885 16.4277 51.9395 16.152 52.1855 15.8057C52.4316 15.4593 52.6003 15.0697 52.6914 14.6367C52.7826 14.1992 52.8281 13.7503 52.8281 13.29V11.7656C52.8281 11.3145 52.7757 10.9134 52.6709 10.5625C52.5706 10.2116 52.4294 9.91764 52.2471 9.68066C52.0693 9.44368 51.8665 9.26367 51.6387 9.14062C51.4108 9.01758 51.1693 8.95605 50.9141 8.95605C50.6224 8.95605 50.3604 9.0153 50.1279 9.13379C49.9001 9.24772 49.7064 9.40951 49.5469 9.61914C49.3919 9.82878 49.2734 10.0749 49.1914 10.3574C49.1094 10.64 49.0684 10.9476 49.0684 11.2803C49.0684 11.5765 49.1048 11.8636 49.1777 12.1416C49.2507 12.4196 49.3623 12.6702 49.5127 12.8936C49.6631 13.1169 49.8499 13.2946 50.0732 13.4268C50.3011 13.5544 50.5677 13.6182 50.873 13.6182C51.1556 13.6182 51.4199 13.5635 51.666 13.4541C51.9167 13.3402 52.1377 13.1875 52.3291 12.9961C52.5251 12.8001 52.68 12.5791 52.7939 12.333C52.9124 12.0869 52.9808 11.8294 52.999 11.5605H53.6006C53.6006 11.9388 53.5254 12.3125 53.375 12.6816C53.2292 13.0462 53.0241 13.3789 52.7598 13.6797C52.4954 13.9805 52.1855 14.222 51.8301 14.4043C51.4746 14.582 51.0872 14.6709 50.668 14.6709C50.1758 14.6709 49.7497 14.5752 49.3896 14.3838C49.0296 14.1924 48.7334 13.9372 48.501 13.6182C48.2731 13.2992 48.1022 12.9437 47.9883 12.5518C47.8789 12.1553 47.8242 11.7542 47.8242 11.3486C47.8242 10.8747 47.8903 10.4303 48.0225 10.0156C48.1546 9.60091 48.3506 9.23633 48.6104 8.92188C48.8701 8.60286 49.1914 8.35449 49.5742 8.17676C49.9616 7.99902 50.4082 7.91016 50.9141 7.91016C51.4837 7.91016 51.9691 8.02409 52.3701 8.25195C52.7712 8.47982 53.097 8.78516 53.3477 9.16797C53.6029 9.55078 53.7897 9.98145 53.9082 10.46C54.0267 10.9385 54.0859 11.4307 54.0859 11.9365V12.3945C54.0859 12.9095 54.0518 13.4336 53.9834 13.9668C53.9196 14.4954 53.7943 15.0013 53.6074 15.4844C53.4251 15.9674 53.1585 16.4004 52.8076 16.7832C52.4567 17.1615 51.9987 17.4622 51.4336 17.6855C50.873 17.9043 50.1803 18.0137 49.3555 18.0137H49.2256V16.9404Z" fill="#2C2C2C"/>
<path d="M273.798 10.8539C273.754 10.8975 273.702 10.932 273.646 10.9556C273.589 10.9791 273.528 10.9912 273.466 10.9912C273.405 10.9912 273.344 10.9791 273.287 10.9556C273.23 10.932 273.178 10.8975 273.135 10.8539L271.146 8.86527C271.059 8.77718 271.01 8.65824 271.011 8.53441C271.011 8.41058 271.06 8.29193 271.148 8.20437C271.236 8.11681 271.354 8.06745 271.478 8.06707C271.602 8.06668 271.721 8.11531 271.809 8.20234L273.798 10.191C273.841 10.2345 273.876 10.2862 273.899 10.3431C273.923 10.4 273.935 10.4609 273.935 10.5225C273.935 10.584 273.923 10.645 273.899 10.7019C273.876 10.7587 273.841 10.8104 273.798 10.8539ZM263.854 8.20234C263.766 8.11444 263.647 8.06506 263.523 8.06506C263.398 8.06506 263.279 8.11444 263.191 8.20234L261.202 10.191C261.114 10.2789 261.065 10.3981 261.065 10.5225C261.065 10.6468 261.114 10.766 261.202 10.8539C261.29 10.9418 261.41 10.9912 261.534 10.9912C261.658 10.9912 261.777 10.9418 261.865 10.8539L263.854 8.86527C263.897 8.82174 263.932 8.77006 263.956 8.71319C263.979 8.65632 263.991 8.59536 263.991 8.5338C263.991 8.47224 263.979 8.41129 263.956 8.35441C263.932 8.29754 263.897 8.24586 263.854 8.20234ZM273.123 14.3562C273.124 14.404 273.125 14.4519 273.125 14.5C273.125 14.548 273.124 14.596 273.123 14.6438C273.123 14.6501 273.123 14.6564 273.123 14.6626C273.121 14.7047 273.12 14.7467 273.118 14.7886L273.118 14.7929C273.045 16.1816 272.461 17.4942 271.478 18.4775C270.494 19.4608 269.182 20.045 267.793 20.1174L267.789 20.1177C267.747 20.1198 267.705 20.1213 267.663 20.1225C267.656 20.1226 267.65 20.123 267.644 20.1232C267.596 20.1243 267.548 20.125 267.5 20.125C267.452 20.125 267.404 20.1244 267.356 20.1232C267.35 20.123 267.344 20.1226 267.337 20.1225C267.295 20.1213 267.253 20.1197 267.211 20.1177L267.207 20.1174C265.818 20.045 264.506 19.4608 263.523 18.4775C262.539 17.4942 261.955 16.1816 261.883 14.7929L261.882 14.7886C261.88 14.7466 261.879 14.7046 261.878 14.6626C261.877 14.6564 261.877 14.6501 261.877 14.6438C261.876 14.596 261.875 14.548 261.875 14.5C261.875 14.4519 261.876 14.404 261.877 14.3562C261.877 14.3499 261.877 14.3436 261.878 14.3373C261.879 14.2953 261.88 14.2533 261.882 14.2114L261.883 14.2071C261.955 12.8184 262.539 11.5058 263.523 10.5225C264.506 9.53923 265.818 8.955 267.207 8.88255L267.211 8.88232C267.253 8.88025 267.295 8.87865 267.337 8.87751C267.344 8.87734 267.35 8.87698 267.356 8.87681C267.404 8.87564 267.452 8.87503 267.5 8.87499C267.548 8.87499 267.596 8.8756 267.644 8.87681C267.65 8.87698 267.656 8.87734 267.663 8.87751C267.705 8.87868 267.747 8.88021 267.789 8.88232L267.793 8.88255C269.182 8.95498 270.494 9.53921 271.478 10.5225C272.461 11.5058 273.045 12.8184 273.117 14.2071L273.118 14.2114C273.12 14.2533 273.121 14.2952 273.122 14.3373C273.123 14.3436 273.123 14.3499 273.123 14.3562H273.123ZM271.25 14.5C271.25 14.3757 271.201 14.2564 271.113 14.1685C271.025 14.0806 270.906 14.0312 270.781 14.0312H267.969V11.2187C267.969 11.0944 267.919 10.9752 267.831 10.8873C267.744 10.7994 267.624 10.75 267.5 10.75C267.376 10.75 267.256 10.7994 267.169 10.8873C267.081 10.9752 267.031 11.0944 267.031 11.2187V14.5C267.031 14.6243 267.081 14.7435 267.169 14.8314C267.256 14.9194 267.376 14.9687 267.5 14.9687H270.781C270.906 14.9687 271.025 14.9194 271.113 14.8314C271.201 14.7435 271.25 14.6243 271.25 14.5Z" fill="#2C2C2C"/>
<path d="M287 15.8C286.817 15.8008 286.636 15.8377 286.467 15.9085C286.298 15.9793 286.145 16.0826 286.017 16.2127C285.888 16.3427 285.786 16.4968 285.717 16.6662C285.648 16.8356 285.612 17.017 285.613 17.2C285.613 17.9728 286.234 18.6 287 18.6C287.183 18.599 287.364 18.5621 287.533 18.4912C287.701 18.4204 287.854 18.317 287.983 18.187C288.112 18.057 288.213 17.9029 288.283 17.7336C288.352 17.5642 288.387 17.3829 288.386 17.2C288.386 16.4265 287.766 15.8 287 15.8ZM284.06 14.2306L285.04 15.2204C285.296 14.9606 285.601 14.7543 285.938 14.6136C286.274 14.4728 286.636 14.4003 287 14.4003C287.365 14.4003 287.726 14.4728 288.063 14.6136C288.399 14.7543 288.705 14.9606 288.961 15.2204L289.94 14.2306C289.556 13.841 289.098 13.5316 288.593 13.3204C288.089 13.1093 287.547 13.0005 287 13.0005C286.453 13.0005 285.911 13.1093 285.407 13.3204C284.902 13.5316 284.444 13.841 284.06 14.2306ZM282.1 12.2496L283.08 13.2394C283.592 12.72 284.202 12.3076 284.875 12.0261C285.548 11.7446 286.27 11.5997 287 11.5997C287.729 11.5997 288.451 11.7446 289.124 12.0261C289.797 12.3076 290.407 12.72 290.919 13.2394L291.9 12.2496C291.26 11.6003 290.497 11.0848 289.656 10.7329C288.815 10.381 287.912 10.1998 287 10.1998C286.088 10.1998 285.185 10.381 284.344 10.7329C283.503 11.0848 282.74 11.6003 282.1 12.2496ZM280.139 10.27L281.119 11.2598C281.888 10.4805 282.803 9.86179 283.813 9.43946C284.822 9.01713 285.905 8.79965 287 8.79965C288.094 8.79965 289.177 9.01713 290.187 9.43946C291.196 9.86179 292.112 10.4805 292.88 11.2598L293.86 10.27C292.964 9.36088 291.896 8.639 290.718 8.14629C289.54 7.65357 288.276 7.39984 287 7.39984C285.723 7.39984 284.459 7.65357 283.281 8.14629C282.104 8.639 281.036 9.36088 280.139 10.27Z" fill="#2C2C2C"/>
<path d="M299 17.75H300.25V20H299V17.75Z" fill="#2C2C2C"/>
<path d="M301.688 15.25H302.938V20H301.688V15.25Z" fill="#2C2C2C"/>
<path d="M304.375 12.75H305.625V19.9998H304.375V12.75Z" fill="#2C2C2C"/>
<path d="M307.062 10.25H308.312V19.9998H307.062V10.25Z" fill="#2C2C2C"/>
<path d="M309.75 8H311V20H309.75V8Z" fill="#2C2C2C"/>
<path d="M323.971 20.5833H317.179C316.806 20.5833 316.5 20.2777 316.5 19.9041V8.3583C316.5 7.98476 316.806 7.67914 317.179 7.67914H323.971C324.344 7.67914 324.65 7.98476 324.65 8.3583V19.9041C324.65 20.2777 324.344 20.5833 323.971 20.5833Z" fill="#CFD8DC"/>
<path d="M321.933 10.0562H319.217C319.013 10.0562 318.877 9.92042 318.877 9.71667V7.33958C318.877 7.13583 319.013 7 319.217 7H321.933C322.137 7 322.273 7.13583 322.273 7.33958V9.71667C322.273 9.92042 322.137 10.0562 321.933 10.0562Z" fill="#CFD8DC"/>
<path d="M323.971 20.5833H317.179C316.806 20.5833 316.5 20.2777 316.5 19.9042V13.4521H324.65V19.9042C324.65 20.2777 324.344 20.5833 323.971 20.5833Z" fill="#6B6B6B"/>
</svg>
