<svg width="49" height="48" viewBox="0 0 49 48" fill="none" xmlns="http://www.w3.org/2000/svg">
<mask id="mask0_776_5031" style="mask-type:luminance" maskUnits="userSpaceOnUse" x="0" y="0" width="49" height="48">
<path d="M48.4805 0H0.480469V48H48.4805V0Z" fill="white"/>
</mask>
<g mask="url(#mask0_776_5031)">
<path d="M24.6955 0.132813C29.4298 0.132812 34.0578 1.53669 37.9942 4.16692C41.9306 6.79716 44.9987 10.5356 46.8104 14.9095C48.6222 19.2834 49.0962 24.0964 48.1726 28.7397C47.249 33.383 44.9692 37.6482 41.6216 40.9958C38.2739 44.3435 34.0087 46.6233 29.3654 47.5469C24.7221 48.4705 19.9092 47.9964 15.5353 46.1847C11.1613 44.373 7.42289 41.3049 4.79266 37.3685C2.16243 33.4321 0.758545 28.8041 0.758545 24.0698C0.758545 17.7213 3.28047 11.6329 7.76953 7.1438C12.2586 2.65474 18.3471 0.132813 24.6955 0.132813Z" fill="#FFF0DE"/>
<mask id="mask1_776_5031" style="mask-type:luminance" maskUnits="userSpaceOnUse" x="0" y="0" width="49" height="49">
<path d="M24.6955 0.132813C29.4298 0.132812 34.0578 1.53669 37.9942 4.16692C41.9306 6.79716 44.9987 10.5356 46.8104 14.9095C48.6222 19.2834 49.0962 24.0964 48.1726 28.7397C47.249 33.383 44.9692 37.6482 41.6216 40.9958C38.2739 44.3435 34.0087 46.6233 29.3654 47.5469C24.7221 48.4705 19.9092 47.9965 15.5353 46.1847C11.1613 44.373 7.42289 41.3049 4.79266 37.3685C2.16243 33.4321 0.758545 28.8041 0.758545 24.0698C0.758545 17.7213 3.28047 11.6329 7.76953 7.1438C12.2586 2.65474 18.3471 0.132813 24.6955 0.132813Z" fill="white"/>
</mask>
<g mask="url(#mask1_776_5031)">
<path d="M24.3736 31.9549C29.5904 31.9549 33.8196 27.5494 33.8196 22.1149C33.8196 16.6804 29.5904 12.2749 24.3736 12.2749C19.1567 12.2749 14.9276 16.6804 14.9276 22.1149C14.9276 27.5494 19.1567 31.9549 24.3736 31.9549Z" fill="url(#paint0_linear_776_5031)"/>
<path d="M24.3745 61.8677C32.6351 61.8677 39.3315 55.3476 39.3315 47.3047C39.3315 39.2618 32.6351 32.7417 24.3745 32.7417C16.114 32.7417 9.41754 39.2618 9.41754 47.3047C9.41754 55.3476 16.114 61.8677 24.3745 61.8677Z" fill="url(#paint1_linear_776_5031)"/>
</g>
</g>
<defs>
<linearGradient id="paint0_linear_776_5031" x1="3.68681" y1="59.3888" x2="48.5931" y2="17.3178" gradientUnits="userSpaceOnUse">
<stop stop-color="#FF7A34"/>
<stop offset="1" stop-color="#FFE200"/>
</linearGradient>
<linearGradient id="paint1_linear_776_5031" x1="-8.38129" y1="102.469" x2="58.2203" y2="35.7116" gradientUnits="userSpaceOnUse">
<stop stop-color="#FF7A34"/>
<stop offset="1" stop-color="#FFE200"/>
</linearGradient>
</defs>
</svg>
