<svg width="77" height="65" viewBox="0 0 77 65" fill="none" xmlns="http://www.w3.org/2000/svg">
<path fill-rule="evenodd" clip-rule="evenodd" d="M32.7509 5.09619C32.7509 4.76494 32.8821 4.44744 33.1171 4.21244C33.3509 3.97869 33.6696 3.84619 34.0009 3.84619H62.1934L76.5009 19.7124V39.6537C76.5009 39.6537 76.5459 56.1249 71.8671 63.9887C71.6396 64.3499 71.2421 64.5687 70.8146 64.5687C66.0309 64.5724 37.6296 64.5724 29.6909 64.5724C29.2521 64.5724 28.8459 64.3412 28.6196 63.9662C28.3934 63.5899 28.3821 63.1224 28.5884 62.7349C32.4671 54.3137 32.7509 39.6537 32.7509 39.6537V5.09619Z" fill="#D8D8D8"/>
<path fill-rule="evenodd" clip-rule="evenodd" d="M76.5009 39.6537C76.5009 39.6537 76.5459 56.1249 71.8671 63.9887C71.6396 64.3499 71.2421 64.5687 70.8146 64.5687C66.0309 64.5724 37.6296 64.5724 29.6909 64.5724C29.2521 64.5724 28.8459 64.3412 28.6196 63.9662C28.3934 63.5899 28.3821 63.1224 28.5884 62.7349L28.6371 62.6274C44.0296 63.3512 66.3821 60.6549 69.3259 59.5024C72.4709 58.2712 76.4384 46.4562 76.4996 39.8087L76.5009 39.6537Z" fill="#C4C4C4"/>
<path fill-rule="evenodd" clip-rule="evenodd" d="M76.5009 19.7124C72.7059 18.2137 68.6884 18.1712 64.5646 18.8074C64.1821 18.8687 63.7934 18.7462 63.5121 18.4799C63.2309 18.2124 63.0909 17.8299 63.1321 17.4449C63.5846 12.8274 63.1284 8.30994 62.1934 3.84619C68.2409 8.33619 73.0159 13.6199 76.5009 19.7124Z" fill="#A3A3A3"/>
<path fill-rule="evenodd" clip-rule="evenodd" d="M32.7505 8.08496C36.093 8.50121 39.328 9.99121 41.893 12.5562C47.0217 17.685 47.8542 25.4925 44.3917 31.4912L46.4505 38.02C46.5517 38.3412 46.4667 38.6912 46.2292 38.9287C46.1705 38.9862 46.1105 39.0462 46.0542 39.1037C45.8305 39.3262 45.5017 39.4062 45.2017 39.3112L38.6405 37.2425C36.798 38.3062 34.7842 38.965 32.7305 39.2175C32.7455 38.8037 32.7505 38.5762 32.7505 38.5762V8.08496Z" fill="#C4C4C4"/>
<path fill-rule="evenodd" clip-rule="evenodd" d="M37.0585 35.7099C31.3235 39.0212 23.8585 38.2249 18.9548 33.3212C13.101 27.4674 13.101 17.9624 18.9548 12.1087C24.8085 6.25366 34.3135 6.25366 40.1685 12.1087C45.071 17.0112 45.8673 24.4762 42.5573 30.2112L44.5248 36.4537C44.6223 36.7599 44.5398 37.0949 44.3135 37.3212C44.2573 37.3774 44.201 37.4337 44.146 37.4887C43.9323 37.7024 43.6185 37.7787 43.331 37.6887L37.0585 35.7099Z" fill="#EEEEEE"/>
<path fill-rule="evenodd" clip-rule="evenodd" d="M26.9168 18.2274C26.8893 17.0349 27.3356 16.1662 28.0268 15.6562C29.1118 14.8562 30.7318 14.8899 31.6118 15.8812C31.9906 16.3074 32.2093 16.9099 32.2156 17.6724C32.2306 19.4999 31.3718 20.5687 30.5331 21.6762C29.4031 23.1674 28.2743 24.6999 28.1343 27.2587C28.0968 27.9474 28.6256 28.5374 29.3143 28.5749C30.0031 28.6124 30.5931 28.0837 30.6306 27.3949C30.7368 25.4512 31.6668 24.3187 32.5256 23.1862C33.6756 21.6699 34.7356 20.1574 34.7156 17.6524C34.7031 16.1799 34.2118 15.0437 33.4818 14.2212C31.7756 12.2999 28.6443 12.0937 26.5431 13.6437C25.2831 14.5737 24.3668 16.1137 24.4181 18.2862C24.4343 18.9762 25.0068 19.5224 25.6968 19.5062C26.3868 19.4899 26.9331 18.9174 26.9168 18.2274Z" fill="#A3A3A3"/>
<path d="M29.266 33.2175C30.1152 33.2175 30.8035 32.5291 30.8035 31.68C30.8035 30.8308 30.1152 30.1425 29.266 30.1425C28.4169 30.1425 27.7285 30.8308 27.7285 31.68C27.7285 32.5291 28.4169 33.2175 29.266 33.2175Z" fill="#A3A3A3"/>
<path fill-rule="evenodd" clip-rule="evenodd" d="M14.2708 2.20494L19.2708 8.49494C19.7008 9.03494 20.4871 9.12494 21.0271 8.69619C21.5671 8.26744 21.6571 7.47994 21.2283 6.93994L16.2283 0.649943C15.7983 0.109943 15.0121 0.0199429 14.4721 0.448693C13.9321 0.878693 13.8421 1.66494 14.2708 2.20494Z" fill="#A3A3A3"/>
<path fill-rule="evenodd" clip-rule="evenodd" d="M0.877544 5.33367L13.9425 12.8337C14.54 13.1774 15.305 12.9712 15.6488 12.3724C15.9925 11.7737 15.785 11.0099 15.1863 10.6662L2.12254 3.16617C1.52379 2.82242 0.760044 3.02867 0.416294 3.62742C0.0725442 4.22617 0.278794 4.98992 0.877544 5.33367Z" fill="#A3A3A3"/>
<path fill-rule="evenodd" clip-rule="evenodd" d="M2.75 19.25H11.5C12.19 19.25 12.75 18.69 12.75 18C12.75 17.31 12.19 16.75 11.5 16.75H2.75C2.06 16.75 1.5 17.31 1.5 18C1.5 18.69 2.06 19.25 2.75 19.25Z" fill="#A3A3A3"/>
</svg>
