<svg xmlns="http://www.w3.org/2000/svg" width="140" height="101" viewBox="0 0 140 101"><g transform="translate(-152.766 -392.344)"><path d="M282.592,453.847c.832,3.366-1.91,5.92-3.444,6.694-3.668,1.85-6.405-.989-9.889-4.29-2.39-2.263-4.881-.652-7.3-2.538-2.329-1.821-1.091-4.489,2.78-6.3,2.169-1.014,5.509-.569,10.576,2.387C280.247,452.677,282.181,452.185,282.592,453.847Z" transform="translate(6.086 3.21)" fill="#50c940" opacity="0.4" style="mix-blend-mode:multiply;isolation:isolate"/><path d="M258.09,468.227a14.019,14.019,0,0,0-7.382-1.911c-5.62,0-10.177,2.733-10.177,6.106,0,2.632,2.781,4.867,6.671,5.725a14.024,14.024,0,0,0,7.382,1.911c5.621,0,10.178-2.733,10.178-6.1C264.762,471.321,261.981,469.085,258.09,468.227Z" transform="translate(4.951 4.328)" fill="#50c940" opacity="0.4" style="mix-blend-mode:multiply;isolation:isolate"/><path d="M234.275,457.489c-5.952,0-10.778,2.9-10.778,6.467s4.826,6.466,10.778,6.466,10.778-2.895,10.778-6.466S240.227,457.489,234.275,457.489Z" transform="translate(3.998 3.834)" fill="#50c940" opacity="0.4" style="mix-blend-mode:multiply;isolation:isolate"/><path d="M208.81,475.517c-5.952,0-10.777,2.9-10.777,6.467s4.825,6.466,10.777,6.466,10.778-2.895,10.778-6.466S214.763,475.517,208.81,475.517Z" transform="translate(2.559 4.894)" fill="#50c940" opacity="0.4" style="mix-blend-mode:multiply;isolation:isolate"/><path d="M163.544,456.638c-5.953,0-10.778,2.895-10.778,6.466s4.825,6.466,10.778,6.466,10.778-2.895,10.778-6.466S169.5,456.638,163.544,456.638Z" transform="translate(0 3.783)" fill="#50c940" opacity="0.4" style="mix-blend-mode:multiply;isolation:isolate"/><path d="M261.369,446.136l-6.633-14.064-24.009-3.3,5.687,2.582-80.55,47.857,19.891,11.606L256,443.139Z" transform="translate(0.191 2.017)" fill="#50c940" opacity="0.4" style="mix-blend-mode:multiply;isolation:isolate"/><g transform="translate(267.679 392.344)"><path d="M278.708,450.125a10.526,10.526,0,0,1,.372,2.49,1.85,1.85,0,0,1-.548,1.439.548.548,0,0,1-.6.175,4.556,4.556,0,0,1-1.019,2.643,3.817,3.817,0,0,1-3.256.557c-.743-.276-.254-1.625.473-2.947a16.267,16.267,0,0,0,1.887-3.939C277.8,450.3,278.708,450.125,278.708,450.125Z" transform="translate(-260.824 -388.788)" fill="#261822"/><path d="M270.715,446.227a9.345,9.345,0,0,0,.292,1.385,3.789,3.789,0,0,1-.048,1.7,1.023,1.023,0,0,1-.81.565,2.535,2.535,0,0,1-1.105-.028,8.187,8.187,0,0,1-1.387,1.283,6.426,6.426,0,0,1-2.989.915c-.761-.116-1.169-.709-1.11-1.091a4.726,4.726,0,0,1,1.69-1.9,15.134,15.134,0,0,0,1.89-1.656,9.037,9.037,0,0,0,.936-1.221Z" transform="translate(-261.423 -389.031)" fill="#261822"/><path d="M265.924,439.819c-.489-2.876-1.058-2.683-1.047-5.354.006-1.313.476-4.317,1.427-10.553.493-3.239,1.263-3.782,2.282-5.824.105-.21,3.384,1.469,4.88,2.262a11.511,11.511,0,0,1,.868,6.22c-.219,1.034-3.609,8.031-4.777,9.328,2.914,2.876,2.2,5.526,1.321,12.676-.745,1-2.1.905-3.448.116C267.43,447.219,266.252,441.75,265.924,439.819Z" transform="translate(-261.342 -390.761)" fill="#261822"/><path d="M271.352,426.408c-1.833-2.242-1.455-3.945-.575-6.612a65.306,65.306,0,0,1,7.763-1c2.892,5.067,1.254,13.37-.853,18.33.983,2.4,1.758,2.612,2.492,5.781.634,2.734-1.2,5.8-1.357,9.215-1.045.714-2.533,1.035-3.055-.253-1.794-4.282-3.17-8.586-1.951-13.166A62.6,62.6,0,0,1,271.352,426.408Z" transform="translate(-261.024 -390.718)" fill="#261822"/><path d="M270.575,400.344a.9.9,0,0,0-.971-.407c-1.419.176-1.893.055-3.007,1.37-1,1.175-1.729,2.1-1.782,3.435-3.231,4.278-3.42,5.644-3.207,7.116.067.466,2.915,1.172,3.449.846.567-.346,1.788-3.867,2.253-4.339.384-.389,2.509-2.583,2.722-3.637.175-.872.357-1.743.519-2.618A2.747,2.747,0,0,0,270.575,400.344Z" transform="translate(-261.547 -391.878)" fill="#261822"/><path d="M270.059,400.879c1.85-.774,4.052.226,3.971.136-.056-.063,2.567,1.455,2.571,1.465,1.873.7,3.793,1.2,4.895,3.721.536,1.225-1.395,3.847-2.2,7.4-.362,1.6-.4,3.877.191,4.937.413.742,1.324,1.854-1.349,2.694-.777.244-4.388,1.64-6.495,1.249-.973-.18-5.658-2.776-4.229-3.768a.988.988,0,0,0,.416-1.264,2.792,2.792,0,0,1-.465-1.934,8.333,8.333,0,0,0-.209-4.263c-1.355-1.419-.158-3.558.673-5.844C268.393,403.857,268.161,401.673,270.059,400.879Z" transform="translate(-261.239 -391.837)" fill="#efe8eb"/><path d="M270.277,400.547c0-.027,0-.057,0-.085a5.524,5.524,0,0,0,3.495-1.125,15.57,15.57,0,0,0,1.409,2.98c-.414.02-1.23,1.157-1.908,2.352-.288.507-1.53,1.82-2.31,1.516-1.2-.466-.6-1.43-.637-2.785C270.3,402.449,270.278,401.5,270.277,400.547Z" transform="translate(-261.014 -391.914)" fill="#ffb9a4"/><path d="M269.5,409.99a20.93,20.93,0,0,1,.739-2.763h0a8.621,8.621,0,0,0-.366-1.407l1.186-.468.692.832a2.939,2.939,0,0,1-.85,1.168h0c.024,1.21.068,3.427.094,5.436.041,3.21,0,5.518,0,5.518a7.228,7.228,0,0,1-1.522,1.572,7.889,7.889,0,0,1-.74-2.167S269.153,411.829,269.5,409.99Z" transform="translate(-261.105 -391.544)" fill="#ffaf04"/><path d="M276.167,402.166a15.812,15.812,0,0,0-2.81,1.54c-1.11.919-1.641,1.168-2.194,1.7-.052-.133-.2-2.631-.2-2.631s-.926.117-.918.134a3.293,3.293,0,0,0-.741,1.5,5.126,5.126,0,0,0,.165,2.194l1.54-.941,1.054,1.881a39.324,39.324,0,0,0,3-2.834A5.288,5.288,0,0,0,276.167,402.166Z" transform="translate(-261.073 -391.74)" fill="#f7f7f7"/><path d="M270.507,400.855a2.838,2.838,0,0,0-2.644,1.835,19.15,19.15,0,0,0-1.524,7.507c-.02,2.2.462,5.077.09,6.644-.321,1.348-2.107,6.311-2.107,6.311a6.627,6.627,0,0,0,.8,2.841,2.213,2.213,0,0,0,1.776.949s1.108-6.153,1.22-7.123.477-6.094.376-7.614a40.887,40.887,0,0,1,1.115-7.712,15.458,15.458,0,0,1,2.415-3.431Z" transform="translate(-261.376 -391.821)" fill="#3a2934"/><path d="M270.671,402.438a9.221,9.221,0,0,0-1.1,1.955,24.038,24.038,0,0,0-.784,5.271,29.524,29.524,0,0,1-.464,3.024,15.013,15.013,0,0,1-.674-2.756c-.105-1.115-.248-1.973-.248-1.973l.779-.609-.722-1.743s1.9-4.145,2.707-4.386S270.671,402.438,270.671,402.438Z" transform="translate(-261.186 -391.8)" fill="#261822"/><path d="M275.164,401.681a17.579,17.579,0,0,0-2.934,7.107,46.676,46.676,0,0,0,0,11.32c.31,3.717.586,9.005.586,9.005a20.7,20.7,0,0,0,5.765.172,4.387,4.387,0,0,0,2.994-2.636,34.2,34.2,0,0,0-1.881-10.006c-.618-1.8-.226-5.71.505-7.959a6.563,6.563,0,0,0-1.322-5.227C278.111,402.628,276.239,402.27,275.164,401.681Z" transform="translate(-260.911 -391.77)" fill="#3a2934"/><path d="M274.463,401.118a2.294,2.294,0,0,1,1.787,1.067,8.22,8.22,0,0,0-1.017,2.457,12.533,12.533,0,0,0-.158,2.691l-1.461.653.853,1.506-2.533,3.277a22.782,22.782,0,0,1,.62-7.436A13.794,13.794,0,0,1,274.463,401.118Z" transform="translate(-260.912 -391.804)" fill="#261822"/><path d="M268.229,396.175a3.813,3.813,0,0,1,4.609-.677,2.322,2.322,0,0,1,.893.471c.909.807.809,2.254.537,3.322-.41,1.609-2.7,5.31-4.817,3.927a6,6,0,0,1-2.039-3.843A4.1,4.1,0,0,1,268.229,396.175Z" transform="translate(-261.189 -392.18)" fill="#ffc9b6"/><path d="M266.824,393.967c.706-.95,2.511-2.087,3.7-1.426a1.231,1.231,0,0,1,.612,1.116c1.148-.21,3.215.535,3.728,1.521a6.037,6.037,0,0,1-.5,5.406,7.9,7.9,0,0,1-2.359-3.6,4.971,4.971,0,0,1-4.414-.044A2,2,0,0,1,266.824,393.967Z" transform="translate(-261.246 -392.344)" fill="#261822"/><path d="M272.031,398.329s.643-1.067,1.235-.287a1.081,1.081,0,0,1-.417,1.761Z" transform="translate(-260.901 -392.011)" fill="#ffc9b6"/><g transform="translate(0.009 8.545)"><path d="M267.141,403.847c.048-.222.283-1.469.456-2.288a2.542,2.542,0,0,0-.133-.907c-.013-.228.2-.376.456-.137a3.818,3.818,0,0,1,.532,1.119c.191.419.362,1.238,2.256.571a2.03,2.03,0,0,1,1.777.34c.344.356.007.908-.395,1.106-.577.283-2.973,1.1-3.828,1.912-.289.274-1.959,0-1.959,0A8.878,8.878,0,0,0,267.141,403.847Z" transform="translate(-261.263 -400.394)" fill="#ffc9b6"/><path d="M268.044,401.143s.074,1.09.606,1.283,1.64-.406,2.463-.406a2.411,2.411,0,0,1,1.265.479s-.122-.558-1.251-.678c-.918-.1-1.89.43-2.325.262S268.044,401.143,268.044,401.143Z" transform="translate(-261.156 -400.348)" fill="#ffb9a4"/><path d="M267.246,403.305c-.027.081,2.177,1.654,2.177,1.654s-.412.994-.98,2.939-1.288,4.317-2.409,5.458-3.532,1.464-4.041-.1c-.494-1.517-.884-3.463.652-5.088S267.246,403.305,267.246,403.305Z" transform="translate(-261.555 -400.215)" fill="#261822"/></g><path d="M277.7,417.065a15.977,15.977,0,0,0-2.121,1.951c-.464.654-.224,1.707-.142,2.958s1.272.929,2.235.807,1.19-.586.623-.807a2.386,2.386,0,0,0-1.314,0,3.3,3.3,0,0,0,1.621-2.4A3.4,3.4,0,0,0,277.7,417.065Z" transform="translate(-260.7 -390.823)" fill="#ffc9b6"/><path d="M285.643,414.349a22.733,22.733,0,0,0-1.811-3.31,29.736,29.736,0,0,0-2.424-3.687c-.419-2.73-1.722-4.384-3.477-4.466-1.067.814-1.859,6.727-.815,8.539a5.088,5.088,0,0,0,2.122,2.352,7.919,7.919,0,0,0,1.09,1.514c-.61.435-1.32.945-1.877,1.361a9.248,9.248,0,0,0-2.011,2.128,6.38,6.38,0,0,0,.912,1.248c.553.575,1.052,1.06,1.052,1.06s3.928-1.142,5.084-2.085a4.962,4.962,0,0,0,1.525-2.065C285.223,416.316,285.949,415.04,285.643,414.349Z" transform="translate(-260.63 -391.696)" fill="#261822"/></g><g transform="translate(154.291 406.116)"><g transform="translate(0 39.922)"><g transform="translate(0 12.231)"><g transform="translate(0 5.548)"><path d="M163.759,459.814v7.713c.386-.022.762-.062,1.133-.111v-7.6Z" transform="translate(-153.615 -459.814)" fill="#ffb83b"/><path d="M162.291,459.814v7.721c.22.008.438.02.661.02.107,0,.211-.007.317-.011v-7.73Z" transform="translate(-153.705 -459.814)" fill="#ffb83b"/><path d="M154.2,459.814v2.192a3.7,3.7,0,0,0,.686,2.092v-4.284Z" transform="translate(-154.203 -459.814)" fill="#ffb83b"/><path d="M165.372,459.814v7.513q.584-.1,1.133-.249v-7.263Z" transform="translate(-153.516 -459.814)" fill="#ffb83b"/><path d="M166.986,459.814v7.1c.286-.091.566-.189.833-.3v-6.8Z" transform="translate(-153.416 -459.814)" fill="#ffb83b"/><path d="M156.726,459.814v6.1a9.122,9.122,0,0,0,.834.444v-6.539Z" transform="translate(-154.048 -459.814)" fill="#ffb83b"/><path d="M160.823,459.814v7.573c.321.047.646.085.979.111v-7.685Z" transform="translate(-153.796 -459.814)" fill="#ffb83b"/><path d="M158.058,459.814v6.8c.268.108.547.206.833.3v-7.1Z" transform="translate(-153.966 -459.814)" fill="#ffb83b"/><path d="M159.389,459.814v7.263c.307.082.62.155.943.217v-7.48Z" transform="translate(-153.884 -459.814)" fill="#ffb83b"/><path d="M155.4,459.814V464.8a6.586,6.586,0,0,0,.833.727v-5.711Z" transform="translate(-154.13 -459.814)" fill="#ffb83b"/><path d="M171.665,459.814h-.685V464.1a3.7,3.7,0,0,0,.685-2.092Z" transform="translate(-153.17 -459.814)" fill="#ffb83b"/><path d="M169.648,459.814v5.711a6.6,6.6,0,0,0,.834-.727v-4.984Z" transform="translate(-153.252 -459.814)" fill="#ffb83b"/><path d="M168.317,459.814v6.539a8.964,8.964,0,0,0,.833-.444v-6.1Z" transform="translate(-153.334 -459.814)" fill="#ffb83b"/><path d="M154.849,459.814V464.1a5.114,5.114,0,0,0,.58.7v-4.984Z" transform="translate(-154.163 -459.814)" fill="#ff9d27"/><path d="M156.18,459.814v5.711q.275.2.58.384v-6.1Z" transform="translate(-154.081 -459.814)" fill="#ff9d27"/><path d="M157.512,459.814v6.539c.188.09.379.178.58.259v-6.8Z" transform="translate(-153.999 -459.814)" fill="#ff9d27"/><path d="M158.843,459.814v7.1c.189.061.383.116.58.168v-7.263Z" transform="translate(-153.917 -459.814)" fill="#ff9d27"/><path d="M160.277,459.814v7.48c.19.036.385.064.58.093v-7.573Z" transform="translate(-153.829 -459.814)" fill="#ff9d27"/><path d="M161.745,459.814V467.5c.192.016.384.028.58.036v-7.721Z" transform="translate(-153.739 -459.814)" fill="#ff9d27"/><path d="M163.213,459.814v7.73c.194,0,.389-.006.58-.017v-7.713Z" transform="translate(-153.648 -459.814)" fill="#ff9d27"/><path d="M164.826,459.814v7.6c.2-.025.39-.055.58-.089v-7.513Z" transform="translate(-153.549 -459.814)" fill="#ff9d27"/><path d="M170.434,459.814V464.8a5.194,5.194,0,0,0,.58-.7v-4.284Z" transform="translate(-153.204 -459.814)" fill="#ff9d27"/><path d="M169.1,459.814v6.1c.2-.122.4-.251.58-.384v-5.711Z" transform="translate(-153.286 -459.814)" fill="#ff9d27"/><path d="M167.771,459.814v6.8c.2-.081.391-.169.58-.259v-6.539Z" transform="translate(-153.368 -459.814)" fill="#ff9d27"/><path d="M166.439,459.814v7.263c.2-.052.391-.107.581-.168v-7.1Z" transform="translate(-153.45 -459.814)" fill="#ff9d27"/></g><path d="M163.45,454.588c-5.107,0-9.247,2.484-9.247,5.548s4.14,5.548,9.247,5.548,9.247-2.484,9.247-5.548S168.557,454.588,163.45,454.588Z" transform="translate(-154.203 -454.588)" fill="#ffe375"/><g transform="translate(1.183 0.547)"><path d="M163.382,455.662c4.3,0,7.8,2.017,8.042,4.558.008-.092.023-.185.023-.279,0-2.672-3.611-4.839-8.066-4.839s-8.065,2.167-8.065,4.839c0,.094.015.187.023.279C155.583,457.679,159.084,455.662,163.382,455.662Z" transform="translate(-155.317 -455.103)" fill="#ff9d27"/><ellipse cx="8.041" cy="4.559" rx="8.041" ry="4.559" transform="translate(0.023 0.559)" fill="#ff9d27" opacity="0.5"/></g><path d="M168.368,462.735a7.968,7.968,0,0,0-.922-.912,1.823,1.823,0,0,0,.165-1.708c-.423-1.1-1.774-1.211-2.774-1.108a6.931,6.931,0,0,0-1.377.309c-.958-.533-1.883-1.2-2.874-1.7a5.344,5.344,0,0,1,1.978-.313.131.131,0,0,0,.035-.257,3.537,3.537,0,0,0-2.638.29,5.541,5.541,0,0,0-1.313-.352c-.064-.008-.081.087-.031.116.3.173.6.352.9.529a1.462,1.462,0,0,0,.046,2.55c1.136.787,2.53.264,3.677-.1l.308-.1c.979.559,1.89,1.278,2.831,1.925a4.2,4.2,0,0,1-1.622.645,5.164,5.164,0,0,1-2.19-.039.158.158,0,0,0-.153.262c.865.838,3,.619,4.279-.215a2.94,2.94,0,0,0,.317-.238,10.062,10.062,0,0,0,1.18.646A.148.148,0,0,0,168.368,462.735Zm-7.8-2.863c-1.1-.192-1.349-1.087-.663-1.8a1.851,1.851,0,0,1,.15-.126q1.358.8,2.726,1.587c-.144.049-.287.1-.432.144A6.74,6.74,0,0,1,160.571,459.872Zm4.512-.211c.8-.033,2.376.041,1.767,1.686v0a22.637,22.637,0,0,0-2.553-1.573A4.463,4.463,0,0,1,165.083,459.661Z" transform="translate(-153.933 -454.445)" fill="#ff9d27"/><path d="M156.834,461.178a4.8,4.8,0,0,1-.395-.789c-.081-.264,0-.559-.105-.808a.117.117,0,0,0-.194-.051c-.231.238-.161.669-.088.966a1.24,1.24,0,0,0,.608.857A.129.129,0,0,0,156.834,461.178Z" transform="translate(-154.094 -454.286)" fill="#ff9d27"/><path d="M169.306,458.406a.065.065,0,0,0-.109.045,5.924,5.924,0,0,1,.04.942c-.047.273-.24.5-.243.776a.128.128,0,0,0,.161.123C169.751,460.048,169.773,458.783,169.306,458.406Z" transform="translate(-153.293 -454.354)" fill="#ff9d27"/><path d="M167.725,457.982a.062.062,0,0,0-.042.1,7.855,7.855,0,0,0,.6.541c.168.172.269.341.505.418a.1.1,0,0,0,.124-.095C168.941,458.453,168.183,457.951,167.725,457.982Z" transform="translate(-153.374 -454.379)" fill="#ff9d27"/></g><g transform="translate(0 9.189)"><g transform="translate(0 5.548)"><path d="M163.759,456.948v7.713c.386-.021.762-.06,1.133-.11v-7.6Z" transform="translate(-153.615 -456.948)" fill="#ffb83b"/><path d="M162.291,456.948v7.721c.22.01.438.02.661.02.107,0,.211-.007.317-.01v-7.731Z" transform="translate(-153.705 -456.948)" fill="#ffb83b"/><path d="M154.2,456.948v2.193a3.692,3.692,0,0,0,.686,2.091v-4.284Z" transform="translate(-154.203 -456.948)" fill="#ffb83b"/><path d="M165.372,456.948v7.514q.584-.1,1.133-.249v-7.264Z" transform="translate(-153.516 -456.948)" fill="#ffb83b"/><path d="M166.986,456.948v7.1c.286-.091.566-.19.833-.3v-6.8Z" transform="translate(-153.416 -456.948)" fill="#ffb83b"/><path d="M156.726,456.948v6.1c.262.158.542.3.834.444v-6.54Z" transform="translate(-154.048 -456.948)" fill="#ffb83b"/><path d="M160.823,456.948v7.573q.481.072.979.113v-7.686Z" transform="translate(-153.796 -456.948)" fill="#ffb83b"/><path d="M158.058,456.948v6.8c.268.107.547.206.833.3v-7.1Z" transform="translate(-153.966 -456.948)" fill="#ffb83b"/><path d="M159.389,456.948v7.264c.307.081.62.155.943.217v-7.481Z" transform="translate(-153.884 -456.948)" fill="#ffb83b"/><path d="M155.4,456.948v4.985a6.5,6.5,0,0,0,.833.726v-5.711Z" transform="translate(-154.13 -456.948)" fill="#ffb83b"/><path d="M171.665,456.948h-.685v4.284a3.7,3.7,0,0,0,.685-2.091Z" transform="translate(-153.17 -456.948)" fill="#ffb83b"/><path d="M169.648,456.948v5.711a6.514,6.514,0,0,0,.834-.726v-4.985Z" transform="translate(-153.252 -456.948)" fill="#ffb83b"/><path d="M168.317,456.948v6.54c.292-.139.572-.286.833-.444v-6.1Z" transform="translate(-153.334 -456.948)" fill="#ffb83b"/><path d="M154.849,456.948v4.284a5.185,5.185,0,0,0,.58.7v-4.985Z" transform="translate(-154.163 -456.948)" fill="#ff9d27"/><path d="M156.18,456.948v5.711q.275.2.58.385v-6.1Z" transform="translate(-154.081 -456.948)" fill="#ff9d27"/><path d="M157.512,456.948v6.54c.188.089.379.177.58.259v-6.8Z" transform="translate(-153.999 -456.948)" fill="#ff9d27"/><path d="M158.843,456.948v7.1c.189.059.383.115.58.168v-7.264Z" transform="translate(-153.917 -456.948)" fill="#ff9d27"/><path d="M160.277,456.948v7.481c.19.036.385.064.58.092v-7.573Z" transform="translate(-153.829 -456.948)" fill="#ff9d27"/><path d="M161.745,456.948v7.686c.192.015.384.027.58.035v-7.721Z" transform="translate(-153.739 -456.948)" fill="#ff9d27"/><path d="M163.213,456.948v7.731c.194,0,.389-.006.58-.018v-7.713Z" transform="translate(-153.648 -456.948)" fill="#ff9d27"/><path d="M164.826,456.948v7.6c.2-.027.39-.056.58-.089v-7.514Z" transform="translate(-153.549 -456.948)" fill="#ff9d27"/><path d="M170.434,456.948v4.985a5.267,5.267,0,0,0,.58-.7v-4.284Z" transform="translate(-153.204 -456.948)" fill="#ff9d27"/><path d="M169.1,456.948v6.1c.2-.123.4-.252.58-.385v-5.711Z" transform="translate(-153.286 -456.948)" fill="#ff9d27"/><path d="M167.771,456.948v6.8c.2-.082.391-.17.58-.259v-6.54Z" transform="translate(-153.368 -456.948)" fill="#ff9d27"/><path d="M166.439,456.948v7.264c.2-.053.391-.108.581-.168v-7.1Z" transform="translate(-153.45 -456.948)" fill="#ff9d27"/></g><path d="M163.45,451.722c-5.107,0-9.247,2.484-9.247,5.548s4.14,5.548,9.247,5.548,9.247-2.483,9.247-5.548S168.557,451.722,163.45,451.722Z" transform="translate(-154.203 -451.722)" fill="#ffe375"/><g transform="translate(1.183 0.548)"><path d="M163.382,452.8c4.3,0,7.8,2.018,8.042,4.559.008-.093.023-.185.023-.279,0-2.672-3.611-4.839-8.066-4.839s-8.065,2.167-8.065,4.839c0,.095.015.186.023.279C155.583,454.814,159.084,452.8,163.382,452.8Z" transform="translate(-155.317 -452.238)" fill="#ff9d27"/><path d="M163.38,461.883c4.3,0,7.8-2.018,8.042-4.559-.243-2.541-3.745-4.559-8.042-4.559s-7.8,2.018-8.041,4.559C155.582,459.865,159.083,461.883,163.38,461.883Z" transform="translate(-155.316 -452.206)" fill="#ff9d27" opacity="0.5"/></g><path d="M168.368,459.87a7.9,7.9,0,0,0-.922-.913,1.822,1.822,0,0,0,.165-1.708c-.423-1.1-1.774-1.21-2.774-1.108a6.928,6.928,0,0,0-1.377.31c-.958-.533-1.883-1.2-2.874-1.7a5.323,5.323,0,0,1,1.978-.313.131.131,0,0,0,.035-.257,3.537,3.537,0,0,0-2.638.289,5.538,5.538,0,0,0-1.313-.351c-.064-.009-.081.087-.031.116.3.173.6.351.9.528a1.462,1.462,0,0,0,.046,2.55c1.136.788,2.53.264,3.677-.1l.308-.1c.979.558,1.89,1.277,2.831,1.924a4.2,4.2,0,0,1-1.622.646,5.164,5.164,0,0,1-2.19-.04.158.158,0,0,0-.153.262c.865.839,3,.62,4.279-.215a2.936,2.936,0,0,0,.317-.238,10.058,10.058,0,0,0,1.18.646A.148.148,0,0,0,168.368,459.87Zm-7.8-2.864c-1.1-.191-1.349-1.087-.663-1.8.047-.048.1-.084.15-.126q1.358.8,2.726,1.588c-.144.049-.287.1-.432.143A6.652,6.652,0,0,1,160.571,457.006Zm4.512-.21c.8-.034,2.376.04,1.767,1.686v0a22.632,22.632,0,0,0-2.553-1.573A4.37,4.37,0,0,1,165.083,456.8Z" transform="translate(-153.933 -451.579)" fill="#ff9d27"/><path d="M156.834,458.313a4.843,4.843,0,0,1-.395-.789c-.081-.265,0-.559-.105-.808a.118.118,0,0,0-.194-.052c-.231.239-.161.67-.088.966a1.235,1.235,0,0,0,.608.857A.128.128,0,0,0,156.834,458.313Z" transform="translate(-154.094 -451.42)" fill="#ff9d27"/><path d="M169.306,455.54a.065.065,0,0,0-.109.046,5.9,5.9,0,0,1,.04.941c-.047.274-.24.5-.243.777a.128.128,0,0,0,.161.122C169.751,457.183,169.773,455.918,169.306,455.54Z" transform="translate(-153.293 -451.488)" fill="#ff9d27"/><path d="M167.725,455.117a.062.062,0,0,0-.042.1c.167.21.411.348.6.541.168.172.269.341.505.418a.1.1,0,0,0,.124-.1C168.941,455.588,168.183,455.086,167.725,455.117Z" transform="translate(-153.374 -451.513)" fill="#ff9d27"/></g><g transform="translate(0 6.125)"><g transform="translate(0 5.548)"><path d="M163.759,454.062v7.713c.386-.022.762-.061,1.133-.11v-7.6Z" transform="translate(-153.615 -454.062)" fill="#ffb83b"/><path d="M162.291,454.062v7.721c.22.01.438.02.661.02.107,0,.211-.007.317-.01v-7.731Z" transform="translate(-153.705 -454.062)" fill="#ffb83b"/><path d="M154.2,454.062v2.193a3.7,3.7,0,0,0,.686,2.091v-4.284Z" transform="translate(-154.203 -454.062)" fill="#ffb83b"/><path d="M165.372,454.062v7.513q.584-.1,1.133-.249v-7.263Z" transform="translate(-153.516 -454.062)" fill="#ffb83b"/><path d="M166.986,454.062v7.1c.286-.09.566-.189.833-.3v-6.8Z" transform="translate(-153.416 -454.062)" fill="#ffb83b"/><path d="M156.726,454.062v6.1a9.367,9.367,0,0,0,.834.445v-6.54Z" transform="translate(-154.048 -454.062)" fill="#ffb83b"/><path d="M160.823,454.062v7.573q.481.072.979.111v-7.685Z" transform="translate(-153.796 -454.062)" fill="#ffb83b"/><path d="M158.058,454.062v6.8c.268.108.547.207.833.3v-7.1Z" transform="translate(-153.966 -454.062)" fill="#ffb83b"/><path d="M159.389,454.062v7.263c.307.082.62.156.943.218v-7.481Z" transform="translate(-153.884 -454.062)" fill="#ffb83b"/><path d="M155.4,454.062v4.984a6.5,6.5,0,0,0,.833.727v-5.711Z" transform="translate(-154.13 -454.062)" fill="#ffb83b"/><path d="M171.665,454.062h-.685v4.284a3.7,3.7,0,0,0,.685-2.091Z" transform="translate(-153.17 -454.062)" fill="#ffb83b"/><path d="M169.648,454.062v5.711a6.515,6.515,0,0,0,.834-.727v-4.984Z" transform="translate(-153.252 -454.062)" fill="#ffb83b"/><path d="M168.317,454.062V460.6a8.935,8.935,0,0,0,.833-.444v-6.1Z" transform="translate(-153.334 -454.062)" fill="#ffb83b"/><path d="M154.849,454.062v4.284a5.114,5.114,0,0,0,.58.7v-4.984Z" transform="translate(-154.163 -454.062)" fill="#ff9d27"/><path d="M156.18,454.062v5.711q.275.2.58.384v-6.1Z" transform="translate(-154.081 -454.062)" fill="#ff9d27"/><path d="M157.512,454.062v6.54c.188.089.379.177.58.258v-6.8Z" transform="translate(-153.999 -454.062)" fill="#ff9d27"/><path d="M158.843,454.062v7.1c.189.061.383.116.58.168v-7.263Z" transform="translate(-153.917 -454.062)" fill="#ff9d27"/><path d="M160.277,454.062v7.481c.19.036.385.064.58.092v-7.573Z" transform="translate(-153.829 -454.062)" fill="#ff9d27"/><path d="M161.745,454.062v7.685c.192.016.384.028.58.036v-7.721Z" transform="translate(-153.739 -454.062)" fill="#ff9d27"/><path d="M163.213,454.062v7.731c.194,0,.389-.006.58-.018v-7.713Z" transform="translate(-153.648 -454.062)" fill="#ff9d27"/><path d="M164.826,454.062v7.6c.2-.027.39-.056.58-.09v-7.513Z" transform="translate(-153.549 -454.062)" fill="#ff9d27"/><path d="M170.434,454.062v4.984a5.194,5.194,0,0,0,.58-.7v-4.284Z" transform="translate(-153.204 -454.062)" fill="#ff9d27"/><path d="M169.1,454.062v6.1c.2-.122.4-.251.58-.384v-5.711Z" transform="translate(-153.286 -454.062)" fill="#ff9d27"/><path d="M167.771,454.062v6.8c.2-.081.391-.169.58-.259v-6.539Z" transform="translate(-153.368 -454.062)" fill="#ff9d27"/><path d="M166.439,454.062v7.263c.2-.052.391-.107.581-.168v-7.1Z" transform="translate(-153.45 -454.062)" fill="#ff9d27"/></g><path d="M163.45,448.836c-5.107,0-9.247,2.484-9.247,5.548s4.14,5.548,9.247,5.548,9.247-2.484,9.247-5.548S168.557,448.836,163.45,448.836Z" transform="translate(-154.203 -448.836)" fill="#ffe375"/><g transform="translate(1.183 0.548)"><path d="M163.382,449.91c4.3,0,7.8,2.018,8.042,4.559.008-.093.023-.186.023-.279,0-2.673-3.611-4.839-8.066-4.839s-8.065,2.166-8.065,4.839c0,.093.015.186.023.279C155.583,451.928,159.084,449.91,163.382,449.91Z" transform="translate(-155.317 -449.352)" fill="#ff9d27"/><path d="M163.38,459c4.3,0,7.8-2.018,8.042-4.559-.243-2.541-3.745-4.559-8.042-4.559s-7.8,2.018-8.041,4.559C155.582,456.979,159.083,459,163.38,459Z" transform="translate(-155.316 -449.32)" fill="#ff9d27" opacity="0.5"/></g><path d="M156.834,455.427a4.846,4.846,0,0,1-.395-.789c-.081-.265,0-.559-.105-.808a.118.118,0,0,0-.194-.052c-.231.239-.161.669-.088.966a1.235,1.235,0,0,0,.608.857A.128.128,0,0,0,156.834,455.427Z" transform="translate(-154.094 -448.534)" fill="#ff9d27"/><path d="M169.306,452.654a.065.065,0,0,0-.109.045,5.923,5.923,0,0,1,.04.942c-.047.274-.24.5-.243.776a.128.128,0,0,0,.161.123C169.751,454.3,169.773,453.031,169.306,452.654Z" transform="translate(-153.293 -448.602)" fill="#ff9d27"/><path d="M167.725,452.231a.061.061,0,0,0-.042.1,7.861,7.861,0,0,0,.6.541c.168.172.269.341.505.418a.1.1,0,0,0,.124-.094C168.941,452.7,168.183,452.2,167.725,452.231Z" transform="translate(-153.374 -448.627)" fill="#ff9d27"/></g><g transform="translate(1.597)"><g transform="translate(0 5.548)"><path d="M165.263,448.292v7.713c.385-.022.762-.062,1.133-.11v-7.6Z" transform="translate(-155.119 -448.292)" fill="#ffb83b"/><path d="M163.8,448.292v7.721c.219.01.438.02.661.02.107,0,.211-.007.317-.01v-7.731Z" transform="translate(-155.209 -448.292)" fill="#ffb83b"/><path d="M155.707,448.292v2.193a3.7,3.7,0,0,0,.685,2.091v-4.284Z" transform="translate(-155.707 -448.292)" fill="#ffb83b"/><path d="M166.876,448.292V455.8q.583-.1,1.133-.249v-7.263Z" transform="translate(-155.02 -448.292)" fill="#ffb83b"/><path d="M168.489,448.292v7.1c.287-.09.566-.189.833-.3v-6.8Z" transform="translate(-154.92 -448.292)" fill="#ffb83b"/><path d="M158.23,448.292v6.1a9.223,9.223,0,0,0,.833.445v-6.54Z" transform="translate(-155.552 -448.292)" fill="#ffb83b"/><path d="M162.327,448.292v7.573q.481.072.979.111v-7.685Z" transform="translate(-155.3 -448.292)" fill="#ffb83b"/><path d="M159.562,448.292v6.8c.268.108.547.207.833.3v-7.1Z" transform="translate(-155.47 -448.292)" fill="#ffb83b"/><path d="M160.893,448.292v7.263c.307.082.619.156.943.218v-7.481Z" transform="translate(-155.388 -448.292)" fill="#ffb83b"/><path d="M156.9,448.292v4.984a6.5,6.5,0,0,0,.833.727v-5.711Z" transform="translate(-155.634 -448.292)" fill="#ffb83b"/><path d="M173.169,448.292h-.685v4.284a3.7,3.7,0,0,0,.685-2.091Z" transform="translate(-154.674 -448.292)" fill="#ffb83b"/><path d="M171.152,448.292V454a6.5,6.5,0,0,0,.833-.727v-4.984Z" transform="translate(-154.756 -448.292)" fill="#ffb83b"/><path d="M169.821,448.292v6.539a9.235,9.235,0,0,0,.833-.444v-6.1Z" transform="translate(-154.838 -448.292)" fill="#ffb83b"/><path d="M156.352,448.292v4.284a5.2,5.2,0,0,0,.581.7v-4.984Z" transform="translate(-155.667 -448.292)" fill="#ff9d27"/><path d="M157.684,448.292V454c.183.134.377.262.58.384v-6.1Z" transform="translate(-155.585 -448.292)" fill="#ff9d27"/><path d="M159.015,448.292v6.54c.189.089.38.177.581.258v-6.8Z" transform="translate(-155.503 -448.292)" fill="#ff9d27"/><path d="M160.347,448.292v7.1c.189.06.383.116.58.168v-7.263Z" transform="translate(-155.421 -448.292)" fill="#ff9d27"/><path d="M161.781,448.292v7.481c.189.036.384.064.58.092v-7.573Z" transform="translate(-155.333 -448.292)" fill="#ff9d27"/><path d="M163.249,448.292v7.685q.287.024.58.036v-7.721Z" transform="translate(-155.243 -448.292)" fill="#ff9d27"/><path d="M164.717,448.292v7.731c.194,0,.389-.006.58-.018v-7.713Z" transform="translate(-155.152 -448.292)" fill="#ff9d27"/><path d="M166.33,448.292v7.6c.2-.027.389-.056.58-.09v-7.513Z" transform="translate(-155.053 -448.292)" fill="#ff9d27"/><path d="M171.937,448.292v4.984a5.2,5.2,0,0,0,.581-.7v-4.284Z" transform="translate(-154.708 -448.292)" fill="#ff9d27"/><path d="M170.606,448.292v6.1c.2-.122.4-.251.58-.384v-5.711Z" transform="translate(-154.79 -448.292)" fill="#ff9d27"/><path d="M169.274,448.292v6.8c.2-.081.392-.169.581-.259v-6.539Z" transform="translate(-154.872 -448.292)" fill="#ff9d27"/><path d="M167.943,448.292v7.263c.2-.052.391-.107.58-.168v-7.1Z" transform="translate(-154.954 -448.292)" fill="#ff9d27"/></g><path d="M164.954,443.066c-5.107,0-9.247,2.484-9.247,5.548s4.14,5.548,9.247,5.548,9.247-2.484,9.247-5.548S170.061,443.066,164.954,443.066Z" transform="translate(-155.707 -443.066)" fill="#ffe375"/><g transform="translate(1.183 0.548)"><path d="M164.886,444.14c4.3,0,7.8,2.017,8.041,4.559a2.726,2.726,0,0,0,.023-.279c0-2.673-3.61-4.839-8.065-4.839s-8.065,2.166-8.065,4.839a2.726,2.726,0,0,0,.023.279C157.086,446.157,160.588,444.14,164.886,444.14Z" transform="translate(-156.821 -443.582)" fill="#ff9d27"/><path d="M164.884,453.227c4.3,0,7.8-2.018,8.041-4.559-.242-2.542-3.744-4.559-8.041-4.559s-7.8,2.017-8.041,4.559C157.085,451.209,160.587,453.227,164.884,453.227Z" transform="translate(-156.82 -443.55)" fill="#ff9d27" opacity="0.5"/></g><path d="M158.338,449.656a4.711,4.711,0,0,1-.395-.788c-.081-.265,0-.559-.105-.808a.118.118,0,0,0-.194-.052c-.231.239-.162.669-.088.966a1.233,1.233,0,0,0,.607.857A.129.129,0,0,0,158.338,449.656Z" transform="translate(-155.598 -442.764)" fill="#ff9d27"/><path d="M170.809,446.884a.064.064,0,0,0-.108.045,5.922,5.922,0,0,1,.04.942c-.047.274-.24.5-.243.776a.127.127,0,0,0,.16.123C171.255,448.527,171.277,447.261,170.809,446.884Z" transform="translate(-154.797 -442.832)" fill="#ff9d27"/><path d="M169.229,446.461a.061.061,0,0,0-.042.1,8.06,8.06,0,0,0,.6.541c.169.172.27.341.506.418a.1.1,0,0,0,.124-.095C170.445,446.932,169.686,446.429,169.229,446.461Z" transform="translate(-154.878 -442.857)" fill="#ff9d27"/></g></g><g transform="translate(4.474)"><path d="M175.166,487.164l28.756-36.443-16.748-9.749-28.756,36.443Z" transform="translate(-158.418 -403.348)" fill="#3a2934"/><path d="M206.933,450.034l30.728-35.452-4.391-2.556,21.139-4.178,5.495,19.681-5.495-3.2-30.728,35.453Z" transform="translate(-155.432 -405.162)" fill="#261822"/><path d="M175.166,484.634l28.756-36.443-16.748-9.749-28.756,36.443Z" transform="translate(-158.418 -403.503)" fill="#50c940"/><path d="M225,455.214l-22.745-7.024-16.748-9.749,22.745,7.024Z" transform="translate(-156.75 -403.396)" fill="#116516"/><path d="M231.743,409.253v2.686l4.391,2.556v-2.686Z" transform="translate(-153.905 -405.075)" fill="#0f8600"/><path d="M206.933,447.5l30.728-35.453L233.27,409.5l21.139-4.178L259.9,425l-5.495-3.2-30.728,35.452Z" transform="translate(-155.432 -405.318)" fill="#50c940"/><path d="M224.029,457.335l-22.745-7.024v-2.686l22.745,7.024Z" transform="translate(-155.779 -402.849)" fill="#0f8600"/><path d="M174.195,484.069v2.686l28.756-36.443v-2.686Z" transform="translate(-157.447 -402.938)" fill="#0f8600"/><path d="M253.438,420.845v2.686L222.71,458.984V456.3Z" transform="translate(-154.461 -404.443)" fill="#0f8600"/><path d="M257.151,424.043v2.686l-5.495-3.2v-2.686Z" transform="translate(-152.679 -404.409)" fill="#0f8600"/><path d="M158.418,472.772v2.686l16.748,9.749v-2.686Z" transform="translate(-158.418 -401.391)" fill="#0f8600"/></g><g transform="translate(45.821 39.079)"><g transform="translate(29.364 14.248)"><g transform="translate(0 5.549)"><path d="M234.585,460.991V468.7c.385-.022.762-.062,1.133-.111v-7.6Z" transform="translate(-224.441 -460.991)" fill="#ffb83b"/><path d="M233.117,460.991v7.721c.219.008.437.019.661.019.106,0,.21-.007.316-.01v-7.73Z" transform="translate(-224.531 -460.991)" fill="#ffb83b"/><path d="M225.029,460.991v2.192a3.7,3.7,0,0,0,.685,2.091v-4.283Z" transform="translate(-225.029 -460.991)" fill="#ffb83b"/><path d="M236.2,460.991V468.5q.583-.1,1.133-.249v-7.263Z" transform="translate(-224.342 -460.991)" fill="#ffb83b"/><path d="M237.811,460.991v7.1c.287-.091.566-.189.833-.3v-6.8Z" transform="translate(-224.242 -460.991)" fill="#ffb83b"/><path d="M227.552,460.991v6.1c.261.158.541.3.833.444v-6.539Z" transform="translate(-224.874 -460.991)" fill="#ffb83b"/><path d="M231.649,460.991v7.572c.32.048.645.086.978.113v-7.685Z" transform="translate(-224.622 -460.991)" fill="#ffb83b"/><path d="M228.883,460.991v6.8c.268.108.547.206.833.3v-7.1Z" transform="translate(-224.792 -460.991)" fill="#ffb83b"/><path d="M230.215,460.991v7.263c.306.082.619.155.942.217v-7.48Z" transform="translate(-224.71 -460.991)" fill="#ffb83b"/><path d="M226.22,460.991v4.984a6.661,6.661,0,0,0,.833.727v-5.711Z" transform="translate(-224.956 -460.991)" fill="#ffb83b"/><path d="M242.491,460.991h-.686v4.283a3.692,3.692,0,0,0,.686-2.091Z" transform="translate(-223.997 -460.991)" fill="#ffb83b"/><path d="M240.474,460.991V466.7a6.588,6.588,0,0,0,.833-.727v-4.984Z" transform="translate(-224.078 -460.991)" fill="#ffb83b"/><path d="M239.142,460.991v6.539c.292-.139.572-.286.833-.444v-6.1Z" transform="translate(-224.16 -460.991)" fill="#ffb83b"/><path d="M225.674,460.991v4.283a5.271,5.271,0,0,0,.58.7v-4.984Z" transform="translate(-224.989 -460.991)" fill="#ff9d27"/><path d="M227.005,460.991V466.7c.184.134.378.261.581.384v-6.1Z" transform="translate(-224.907 -460.991)" fill="#ff9d27"/><path d="M228.337,460.991v6.539c.189.09.38.178.58.259v-6.8Z" transform="translate(-224.825 -460.991)" fill="#ff9d27"/><path d="M229.668,460.991v7.1c.19.061.383.116.581.168v-7.263Z" transform="translate(-224.744 -460.991)" fill="#ff9d27"/><path d="M231.1,460.991v7.48c.19.036.385.064.581.092v-7.572Z" transform="translate(-224.655 -460.991)" fill="#ff9d27"/><path d="M232.57,460.991v7.685c.192.015.385.028.581.036v-7.721Z" transform="translate(-224.565 -460.991)" fill="#ff9d27"/><path d="M234.038,460.991v7.73c.194,0,.39-.006.581-.017v-7.713Z" transform="translate(-224.475 -460.991)" fill="#ff9d27"/><path d="M235.652,460.991v7.6q.293-.04.58-.089v-7.513Z" transform="translate(-224.375 -460.991)" fill="#ff9d27"/><path d="M241.259,460.991v4.984a5.192,5.192,0,0,0,.58-.7v-4.283Z" transform="translate(-224.03 -460.991)" fill="#ff9d27"/><path d="M239.927,460.991v6.1c.2-.123.4-.251.581-.384v-5.711Z" transform="translate(-224.112 -460.991)" fill="#ff9d27"/><path d="M238.6,460.991v6.8c.2-.081.392-.169.58-.259v-6.539Z" transform="translate(-224.194 -460.991)" fill="#ff9d27"/><path d="M237.265,460.991v7.263c.2-.052.391-.107.58-.168v-7.1Z" transform="translate(-224.276 -460.991)" fill="#ff9d27"/></g><path d="M234.276,455.764c-5.107,0-9.247,2.484-9.247,5.549s4.14,5.548,9.247,5.548,9.247-2.484,9.247-5.548S239.383,455.764,234.276,455.764Z" transform="translate(-225.029 -455.764)" fill="#ffe375"/><g transform="translate(1.181 0.548)"><path d="M234.208,456.838c4.3,0,7.8,2.018,8.041,4.559.009-.092.023-.185.023-.279,0-2.672-3.611-4.839-8.065-4.839s-8.066,2.167-8.066,4.839c0,.094.015.187.023.279C226.408,458.856,229.91,456.838,234.208,456.838Z" transform="translate(-226.142 -456.28)" fill="#ff9d27"/><path d="M234.206,465.925c4.3,0,7.8-2.018,8.041-4.559-.243-2.541-3.745-4.559-8.041-4.559s-7.8,2.018-8.042,4.559C226.407,463.907,229.909,465.925,234.206,465.925Z" transform="translate(-226.141 -456.248)" fill="#ff9d27" opacity="0.5"/></g><path d="M239.193,463.912a7.885,7.885,0,0,0-.922-.912,1.825,1.825,0,0,0,.165-1.709c-.422-1.1-1.774-1.21-2.774-1.107a6.942,6.942,0,0,0-1.377.309c-.956-.533-1.883-1.2-2.873-1.7a5.316,5.316,0,0,1,1.977-.313.131.131,0,0,0,.035-.257,3.542,3.542,0,0,0-2.638.289,5.578,5.578,0,0,0-1.313-.351c-.064-.008-.081.087-.031.116.3.173.6.352.9.528a1.464,1.464,0,0,0,.046,2.551c1.136.787,2.531.263,3.677-.1l.308-.1c.979.558,1.891,1.277,2.831,1.923a4.177,4.177,0,0,1-1.621.646,5.168,5.168,0,0,1-2.191-.04.158.158,0,0,0-.153.262c.866.839,3,.62,4.28-.215a3.032,3.032,0,0,0,.316-.237,10.306,10.306,0,0,0,1.181.646A.148.148,0,0,0,239.193,463.912Zm-7.8-2.864c-1.1-.191-1.349-1.086-.662-1.8a1.855,1.855,0,0,1,.149-.125q1.358.8,2.726,1.587c-.143.049-.287.1-.432.144A6.7,6.7,0,0,1,231.4,461.048Zm4.512-.21c.8-.034,2.376.04,1.769,1.686v0a22.694,22.694,0,0,0-2.554-1.573A4.367,4.367,0,0,1,235.908,460.838Z" transform="translate(-224.759 -455.621)" fill="#ff9d27"/><path d="M227.661,462.355a4.725,4.725,0,0,1-.4-.789c-.081-.265,0-.559-.1-.808a.118.118,0,0,0-.2-.051c-.231.238-.161.669-.088.966a1.24,1.24,0,0,0,.608.857A.129.129,0,0,0,227.661,462.355Z" transform="translate(-224.92 -455.462)" fill="#ff9d27"/><path d="M240.131,459.583a.064.064,0,0,0-.108.045,5.918,5.918,0,0,1,.039.942c-.047.273-.239.5-.243.776a.129.129,0,0,0,.161.123C240.577,461.225,240.6,459.96,240.131,459.583Z" transform="translate(-224.119 -455.53)" fill="#ff9d27"/><path d="M238.551,459.159a.062.062,0,0,0-.044.1c.167.21.411.348.6.541.168.172.27.341.505.418a.1.1,0,0,0,.124-.094C239.767,459.63,239.008,459.128,238.551,459.159Z" transform="translate(-224.2 -455.555)" fill="#ff9d27"/></g><g transform="translate(29.364 11.207)"><g transform="translate(0 5.548)"><path d="M234.585,458.125v7.713c.385-.022.762-.062,1.133-.11v-7.6Z" transform="translate(-224.441 -458.125)" fill="#ffb83b"/><path d="M233.117,458.125v7.721c.219.01.437.02.661.02.106,0,.21-.007.316-.01v-7.731Z" transform="translate(-224.531 -458.125)" fill="#ffb83b"/><path d="M225.029,458.125v2.193a3.7,3.7,0,0,0,.685,2.091v-4.284Z" transform="translate(-225.029 -458.125)" fill="#ffb83b"/><path d="M236.2,458.125v7.513q.583-.1,1.133-.249v-7.263Z" transform="translate(-224.342 -458.125)" fill="#ffb83b"/><path d="M237.811,458.125v7.1c.287-.09.566-.189.833-.3v-6.8Z" transform="translate(-224.242 -458.125)" fill="#ffb83b"/><path d="M227.552,458.125v6.1a9.214,9.214,0,0,0,.833.445v-6.54Z" transform="translate(-224.874 -458.125)" fill="#ffb83b"/><path d="M231.649,458.125V465.7q.479.072.978.111v-7.685Z" transform="translate(-224.622 -458.125)" fill="#ffb83b"/><path d="M228.883,458.125v6.8c.268.108.547.207.833.3v-7.1Z" transform="translate(-224.792 -458.125)" fill="#ffb83b"/><path d="M230.215,458.125v7.263c.306.082.619.156.942.218v-7.481Z" transform="translate(-224.71 -458.125)" fill="#ffb83b"/><path d="M226.22,458.125v4.984a6.578,6.578,0,0,0,.833.727v-5.711Z" transform="translate(-224.956 -458.125)" fill="#ffb83b"/><path d="M242.491,458.125h-.686v4.284a3.7,3.7,0,0,0,.686-2.091Z" transform="translate(-223.997 -458.125)" fill="#ffb83b"/><path d="M240.474,458.125v5.711a6.507,6.507,0,0,0,.833-.727v-4.984Z" transform="translate(-224.078 -458.125)" fill="#ffb83b"/><path d="M239.142,458.125v6.54a9.214,9.214,0,0,0,.833-.445v-6.1Z" transform="translate(-224.16 -458.125)" fill="#ffb83b"/><path d="M225.674,458.125v4.284a5.194,5.194,0,0,0,.58.7v-4.984Z" transform="translate(-224.989 -458.125)" fill="#ff9d27"/><path d="M227.005,458.125v5.711c.184.134.378.262.581.384v-6.1Z" transform="translate(-224.907 -458.125)" fill="#ff9d27"/><path d="M228.337,458.125v6.54c.189.089.38.177.58.258v-6.8Z" transform="translate(-224.825 -458.125)" fill="#ff9d27"/><path d="M229.668,458.125v7.1c.19.061.383.116.581.168v-7.263Z" transform="translate(-224.744 -458.125)" fill="#ff9d27"/><path d="M231.1,458.125v7.481c.19.036.385.064.581.092v-7.573Z" transform="translate(-224.655 -458.125)" fill="#ff9d27"/><path d="M232.57,458.125v7.685c.192.016.385.028.581.036v-7.721Z" transform="translate(-224.565 -458.125)" fill="#ff9d27"/><path d="M234.038,458.125v7.731c.194,0,.39-.006.581-.018v-7.713Z" transform="translate(-224.475 -458.125)" fill="#ff9d27"/><path d="M235.652,458.125v7.6q.293-.04.58-.09v-7.513Z" transform="translate(-224.375 -458.125)" fill="#ff9d27"/><path d="M241.259,458.125v4.984a5.117,5.117,0,0,0,.58-.7v-4.284Z" transform="translate(-224.03 -458.125)" fill="#ff9d27"/><path d="M239.927,458.125v6.1q.306-.183.581-.384v-5.711Z" transform="translate(-224.112 -458.125)" fill="#ff9d27"/><path d="M238.6,458.125v6.8c.2-.081.392-.169.58-.258v-6.54Z" transform="translate(-224.194 -458.125)" fill="#ff9d27"/><path d="M237.265,458.125v7.263c.2-.052.391-.107.58-.168v-7.1Z" transform="translate(-224.276 -458.125)" fill="#ff9d27"/></g><path d="M234.276,452.9c-5.107,0-9.247,2.484-9.247,5.548s4.14,5.548,9.247,5.548,9.247-2.484,9.247-5.548S239.383,452.9,234.276,452.9Z" transform="translate(-225.029 -452.899)" fill="#ffe375"/><g transform="translate(1.181 0.548)"><path d="M234.208,453.973c4.3,0,7.8,2.018,8.041,4.559.009-.093.023-.185.023-.279,0-2.673-3.611-4.839-8.065-4.839s-8.066,2.166-8.066,4.839c0,.094.015.186.023.279C226.408,455.991,229.91,453.973,234.208,453.973Z" transform="translate(-226.142 -453.415)" fill="#ff9d27"/><path d="M234.206,463.06c4.3,0,7.8-2.018,8.041-4.559-.243-2.541-3.745-4.559-8.041-4.559s-7.8,2.018-8.042,4.559C226.407,461.042,229.909,463.06,234.206,463.06Z" transform="translate(-226.141 -453.383)" fill="#ff9d27" opacity="0.5"/></g><path d="M239.193,461.046a7.965,7.965,0,0,0-.922-.912,1.823,1.823,0,0,0,.165-1.708c-.422-1.1-1.774-1.21-2.774-1.108a6.944,6.944,0,0,0-1.377.309c-.956-.533-1.883-1.2-2.873-1.7a5.313,5.313,0,0,1,1.977-.312.131.131,0,0,0,.035-.257,3.532,3.532,0,0,0-2.638.289,5.526,5.526,0,0,0-1.313-.352c-.064-.008-.081.088-.031.116.3.174.6.352.9.529a1.463,1.463,0,0,0,.046,2.55c1.136.787,2.531.264,3.677-.1l.308-.1c.979.559,1.891,1.278,2.831,1.925a4.211,4.211,0,0,1-1.621.647,5.168,5.168,0,0,1-2.191-.04.158.158,0,0,0-.153.262c.866.838,3,.619,4.28-.215a3.039,3.039,0,0,0,.316-.238,10,10,0,0,0,1.181.646A.148.148,0,0,0,239.193,461.046Zm-7.8-2.863c-1.1-.192-1.349-1.087-.662-1.8a1.674,1.674,0,0,1,.149-.126q1.358.8,2.726,1.588c-.143.048-.287.1-.432.143A6.651,6.651,0,0,1,231.4,458.183Zm4.512-.211c.8-.033,2.376.041,1.769,1.687v0a22.543,22.543,0,0,0-2.554-1.573A4.46,4.46,0,0,1,235.908,457.972Z" transform="translate(-224.759 -452.756)" fill="#ff9d27"/><path d="M227.661,459.49a4.765,4.765,0,0,1-.4-.789c-.081-.265,0-.559-.1-.808a.119.119,0,0,0-.2-.052c-.231.239-.161.669-.088.966a1.238,1.238,0,0,0,.608.857A.129.129,0,0,0,227.661,459.49Z" transform="translate(-224.92 -452.597)" fill="#ff9d27"/><path d="M240.131,456.717a.064.064,0,0,0-.108.045,5.923,5.923,0,0,1,.039.942c-.047.274-.239.5-.243.776a.129.129,0,0,0,.161.123C240.577,458.36,240.6,457.095,240.131,456.717Z" transform="translate(-224.119 -452.665)" fill="#ff9d27"/><path d="M238.551,456.294a.061.061,0,0,0-.044.1,7.861,7.861,0,0,0,.6.541c.168.172.27.341.505.418a.1.1,0,0,0,.124-.094C239.767,456.765,239.008,456.262,238.551,456.294Z" transform="translate(-224.2 -452.69)" fill="#ff9d27"/></g><g transform="translate(29.364 8.143)"><g transform="translate(0 5.548)"><path d="M234.585,455.239v7.713c.385-.022.762-.062,1.133-.111v-7.6Z" transform="translate(-224.441 -455.239)" fill="#ffb83b"/><path d="M233.117,455.239v7.721c.219.008.437.02.661.02.106,0,.21-.007.316-.011v-7.73Z" transform="translate(-224.531 -455.239)" fill="#ffb83b"/><path d="M225.029,455.239v2.192a3.7,3.7,0,0,0,.685,2.092v-4.284Z" transform="translate(-225.029 -455.239)" fill="#ffb83b"/><path d="M236.2,455.239v7.513q.583-.1,1.133-.25v-7.263Z" transform="translate(-224.342 -455.239)" fill="#ffb83b"/><path d="M237.811,455.239v7.1c.287-.091.566-.189.833-.3v-6.8Z" transform="translate(-224.242 -455.239)" fill="#ffb83b"/><path d="M227.552,455.239v6.1a8.948,8.948,0,0,0,.833.444v-6.539Z" transform="translate(-224.874 -455.239)" fill="#ffb83b"/><path d="M231.649,455.239v7.573c.32.047.645.085.978.111v-7.685Z" transform="translate(-224.622 -455.239)" fill="#ffb83b"/><path d="M228.883,455.239v6.8c.268.108.547.206.833.3v-7.1Z" transform="translate(-224.792 -455.239)" fill="#ffb83b"/><path d="M230.215,455.239V462.5c.306.082.619.155.942.217v-7.48Z" transform="translate(-224.71 -455.239)" fill="#ffb83b"/><path d="M226.22,455.239v4.984a6.659,6.659,0,0,0,.833.727v-5.711Z" transform="translate(-224.956 -455.239)" fill="#ffb83b"/><path d="M242.491,455.239h-.686v4.284a3.7,3.7,0,0,0,.686-2.092Z" transform="translate(-223.997 -455.239)" fill="#ffb83b"/><path d="M240.474,455.239v5.711a6.586,6.586,0,0,0,.833-.727v-4.984Z" transform="translate(-224.078 -455.239)" fill="#ffb83b"/><path d="M239.142,455.239v6.539a8.948,8.948,0,0,0,.833-.444v-6.1Z" transform="translate(-224.16 -455.239)" fill="#ffb83b"/><path d="M225.674,455.239v4.284a5.194,5.194,0,0,0,.58.7v-4.984Z" transform="translate(-224.989 -455.239)" fill="#ff9d27"/><path d="M227.005,455.239v5.711c.184.134.378.262.581.384v-6.1Z" transform="translate(-224.907 -455.239)" fill="#ff9d27"/><path d="M228.337,455.239v6.539c.189.09.38.178.58.259v-6.8Z" transform="translate(-224.825 -455.239)" fill="#ff9d27"/><path d="M229.668,455.239v7.1c.19.06.383.116.581.168v-7.263Z" transform="translate(-224.744 -455.239)" fill="#ff9d27"/><path d="M231.1,455.239v7.48c.19.036.385.064.581.093v-7.573Z" transform="translate(-224.655 -455.239)" fill="#ff9d27"/><path d="M232.57,455.239v7.685c.192.016.385.028.581.036v-7.721Z" transform="translate(-224.565 -455.239)" fill="#ff9d27"/><path d="M234.038,455.239v7.73c.194,0,.39-.006.581-.017v-7.713Z" transform="translate(-224.475 -455.239)" fill="#ff9d27"/><path d="M235.652,455.239v7.6q.293-.038.58-.089v-7.513Z" transform="translate(-224.375 -455.239)" fill="#ff9d27"/><path d="M241.259,455.239v4.984a5.117,5.117,0,0,0,.58-.7v-4.284Z" transform="translate(-224.03 -455.239)" fill="#ff9d27"/><path d="M239.927,455.239v6.1q.306-.183.581-.384v-5.711Z" transform="translate(-224.112 -455.239)" fill="#ff9d27"/><path d="M238.6,455.239v6.8c.2-.081.392-.169.58-.259v-6.539Z" transform="translate(-224.194 -455.239)" fill="#ff9d27"/><path d="M237.265,455.239V462.5c.2-.052.391-.107.58-.168v-7.1Z" transform="translate(-224.276 -455.239)" fill="#ff9d27"/></g><path d="M234.276,450.013c-5.107,0-9.247,2.484-9.247,5.548s4.14,5.548,9.247,5.548,9.247-2.484,9.247-5.548S239.383,450.013,234.276,450.013Z" transform="translate(-225.029 -450.013)" fill="#ffe375"/><g transform="translate(1.181 0.547)"><path d="M234.208,451.087c4.3,0,7.8,2.017,8.041,4.559.009-.093.023-.186.023-.28,0-2.672-3.611-4.839-8.065-4.839s-8.066,2.167-8.066,4.839c0,.094.015.187.023.28C226.408,453.1,229.91,451.087,234.208,451.087Z" transform="translate(-226.142 -450.528)" fill="#ff9d27"/><path d="M234.206,460.173c4.3,0,7.8-2.017,8.041-4.558-.243-2.542-3.745-4.559-8.041-4.559s-7.8,2.017-8.042,4.559C226.407,458.156,229.909,460.173,234.206,460.173Z" transform="translate(-226.141 -450.496)" fill="#ff9d27" opacity="0.5"/></g><path d="M227.661,456.6a4.725,4.725,0,0,1-.4-.789c-.081-.264,0-.559-.1-.808a.118.118,0,0,0-.2-.051c-.231.238-.161.669-.088.966a1.24,1.24,0,0,0,.608.857A.129.129,0,0,0,227.661,456.6Z" transform="translate(-224.92 -449.711)" fill="#ff9d27"/><path d="M240.131,453.831a.064.064,0,0,0-.108.045,5.923,5.923,0,0,1,.039.942c-.047.273-.239.5-.243.776a.129.129,0,0,0,.161.123C240.577,455.473,240.6,454.208,240.131,453.831Z" transform="translate(-224.119 -449.779)" fill="#ff9d27"/><path d="M238.551,453.407a.062.062,0,0,0-.044.1,7.868,7.868,0,0,0,.6.541c.168.172.27.341.505.418a.1.1,0,0,0,.124-.094C239.767,453.878,239.008,453.376,238.551,453.407Z" transform="translate(-224.2 -449.804)" fill="#ff9d27"/></g><g transform="translate(29.93 3.042)"><g transform="translate(0 5.548)"><path d="M235.118,450.434v7.713c.385-.022.762-.062,1.133-.111v-7.6Z" transform="translate(-224.974 -450.434)" fill="#ffb83b"/><path d="M233.65,450.434v7.721c.22.01.438.02.661.02.107,0,.211-.007.317-.01v-7.731Z" transform="translate(-225.064 -450.434)" fill="#ffb83b"/><path d="M225.562,450.434v2.193a3.7,3.7,0,0,0,.685,2.091v-4.284Z" transform="translate(-225.562 -450.434)" fill="#ffb83b"/><path d="M236.731,450.434v7.513q.584-.1,1.133-.249v-7.263Z" transform="translate(-224.875 -450.434)" fill="#ffb83b"/><path d="M238.344,450.434v7.1c.287-.091.566-.189.833-.3v-6.8Z" transform="translate(-224.775 -450.434)" fill="#ffb83b"/><path d="M228.085,450.434v6.1a9.1,9.1,0,0,0,.833.444v-6.539Z" transform="translate(-225.407 -450.434)" fill="#ffb83b"/><path d="M232.182,450.434v7.573c.321.047.646.085.979.111v-7.685Z" transform="translate(-225.155 -450.434)" fill="#ffb83b"/><path d="M229.417,450.434v6.8c.268.108.547.206.833.3v-7.1Z" transform="translate(-225.325 -450.434)" fill="#ffb83b"/><path d="M230.748,450.434V457.7c.307.082.62.155.943.217v-7.48Z" transform="translate(-225.243 -450.434)" fill="#ffb83b"/><path d="M226.754,450.434v4.984a6.592,6.592,0,0,0,.833.727v-5.711Z" transform="translate(-225.489 -450.434)" fill="#ffb83b"/><path d="M243.024,450.434h-.685v4.284a3.7,3.7,0,0,0,.685-2.091Z" transform="translate(-224.529 -450.434)" fill="#ffb83b"/><path d="M241.007,450.434v5.711a6.59,6.59,0,0,0,.833-.727v-4.984Z" transform="translate(-224.611 -450.434)" fill="#ffb83b"/><path d="M239.676,450.434v6.539a8.962,8.962,0,0,0,.833-.444v-6.1Z" transform="translate(-224.693 -450.434)" fill="#ffb83b"/><path d="M226.207,450.434v4.284a5.2,5.2,0,0,0,.581.7v-4.984Z" transform="translate(-225.522 -450.434)" fill="#ff9d27"/><path d="M227.539,450.434v5.711c.183.134.377.262.58.384v-6.1Z" transform="translate(-225.44 -450.434)" fill="#ff9d27"/><path d="M228.87,450.434v6.539c.189.09.38.178.581.259v-6.8Z" transform="translate(-225.358 -450.434)" fill="#ff9d27"/><path d="M230.2,450.434v7.1c.189.06.383.116.58.168v-7.263Z" transform="translate(-225.276 -450.434)" fill="#ff9d27"/><path d="M231.636,450.434v7.48c.189.036.384.065.58.093v-7.573Z" transform="translate(-225.188 -450.434)" fill="#ff9d27"/><path d="M233.1,450.434v7.685q.287.024.58.036v-7.721Z" transform="translate(-225.098 -450.434)" fill="#ff9d27"/><path d="M234.572,450.434v7.731c.194,0,.389-.007.58-.018v-7.713Z" transform="translate(-225.007 -450.434)" fill="#ff9d27"/><path d="M236.185,450.434v7.6c.2-.025.39-.055.58-.089v-7.513Z" transform="translate(-224.908 -450.434)" fill="#ff9d27"/><path d="M241.792,450.434v4.984a5.2,5.2,0,0,0,.581-.7v-4.284Z" transform="translate(-224.563 -450.434)" fill="#ff9d27"/><path d="M240.461,450.434v6.1c.2-.122.4-.251.58-.384v-5.711Z" transform="translate(-224.645 -450.434)" fill="#ff9d27"/><path d="M239.129,450.434v6.8c.2-.081.392-.169.581-.259v-6.539Z" transform="translate(-224.727 -450.434)" fill="#ff9d27"/><path d="M237.8,450.434V457.7c.2-.052.391-.107.58-.168v-7.1Z" transform="translate(-224.809 -450.434)" fill="#ff9d27"/></g><path d="M234.809,445.208c-5.107,0-9.247,2.484-9.247,5.548s4.14,5.548,9.247,5.548,9.247-2.484,9.247-5.548S239.916,445.208,234.809,445.208Z" transform="translate(-225.562 -445.208)" fill="#ffe375"/><g transform="translate(1.183 0.547)"><path d="M234.741,446.282c4.3,0,7.8,2.017,8.041,4.559a2.751,2.751,0,0,0,.023-.279c0-2.673-3.61-4.84-8.065-4.84s-8.065,2.167-8.065,4.84a2.752,2.752,0,0,0,.023.279C226.941,448.3,230.443,446.282,234.741,446.282Z" transform="translate(-226.676 -445.723)" fill="#ff9d27"/><path d="M234.739,455.368c4.3,0,7.8-2.017,8.041-4.558-.242-2.542-3.744-4.559-8.041-4.559s-7.8,2.017-8.041,4.559C226.94,453.351,230.442,455.368,234.739,455.368Z" transform="translate(-226.675 -445.691)" fill="#ff9d27" opacity="0.5"/></g><path d="M239.726,453.355a8.043,8.043,0,0,0-.921-.912,1.822,1.822,0,0,0,.163-1.708c-.421-1.1-1.773-1.211-2.773-1.108a6.929,6.929,0,0,0-1.377.309c-.958-.533-1.883-1.2-2.874-1.7a5.341,5.341,0,0,1,1.978-.313.131.131,0,0,0,.035-.257,3.541,3.541,0,0,0-2.639.29,5.521,5.521,0,0,0-1.312-.352c-.064-.008-.081.087-.032.116.3.173.6.352.9.529a1.462,1.462,0,0,0,.045,2.55c1.136.787,2.531.264,3.677-.1l.308-.1c.979.559,1.891,1.278,2.831,1.925a4.191,4.191,0,0,1-1.621.645,5.146,5.146,0,0,1-2.19-.039.158.158,0,0,0-.153.262c.865.838,3,.619,4.279-.215a2.942,2.942,0,0,0,.317-.238,9.979,9.979,0,0,0,1.18.646A.148.148,0,0,0,239.726,453.355Zm-7.8-2.863c-1.1-.192-1.348-1.087-.662-1.8a1.849,1.849,0,0,1,.15-.126q1.357.8,2.725,1.587c-.143.049-.287.1-.432.144A6.687,6.687,0,0,1,231.929,450.492Zm4.513-.211c.8-.033,2.376.041,1.767,1.687v0a22.634,22.634,0,0,0-2.553-1.573A4.451,4.451,0,0,1,236.442,450.281Z" transform="translate(-225.292 -445.065)" fill="#ff9d27"/><path d="M228.193,451.8a4.8,4.8,0,0,1-.395-.789c-.081-.264,0-.559-.105-.808a.117.117,0,0,0-.194-.051c-.231.238-.161.669-.088.966a1.235,1.235,0,0,0,.607.857A.129.129,0,0,0,228.193,451.8Z" transform="translate(-225.453 -444.906)" fill="#ff9d27"/><path d="M240.664,449.026a.064.064,0,0,0-.108.045,5.922,5.922,0,0,1,.04.942c-.047.273-.24.5-.243.776a.128.128,0,0,0,.161.123C241.11,450.669,241.132,449.4,240.664,449.026Z" transform="translate(-224.652 -444.974)" fill="#ff9d27"/><path d="M239.084,448.6a.062.062,0,0,0-.042.1,7.867,7.867,0,0,0,.6.541c.168.172.269.341.505.418a.1.1,0,0,0,.124-.094C240.3,449.073,239.542,448.571,239.084,448.6Z" transform="translate(-224.733 -444.999)" fill="#ff9d27"/></g><g transform="translate(29.93)"><g transform="translate(0 5.548)"><path d="M235.118,447.568v7.713c.385-.021.762-.061,1.133-.11v-7.6Z" transform="translate(-224.974 -447.568)" fill="#ffb83b"/><path d="M233.65,447.568v7.721c.22.01.438.02.661.02.107,0,.211-.007.317-.01v-7.731Z" transform="translate(-225.064 -447.568)" fill="#ffb83b"/><path d="M225.562,447.568v2.193a3.7,3.7,0,0,0,.685,2.091v-4.284Z" transform="translate(-225.562 -447.568)" fill="#ffb83b"/><path d="M236.731,447.568v7.514q.584-.1,1.133-.249v-7.264Z" transform="translate(-224.875 -447.568)" fill="#ffb83b"/><path d="M238.344,447.568v7.1c.287-.091.566-.189.833-.3v-6.8Z" transform="translate(-224.775 -447.568)" fill="#ffb83b"/><path d="M228.085,447.568v6.1c.261.158.542.3.833.444v-6.54Z" transform="translate(-225.407 -447.568)" fill="#ffb83b"/><path d="M232.182,447.568v7.573q.481.072.979.113v-7.686Z" transform="translate(-225.155 -447.568)" fill="#ffb83b"/><path d="M229.417,447.568v6.8c.268.108.547.206.833.3v-7.1Z" transform="translate(-225.325 -447.568)" fill="#ffb83b"/><path d="M230.748,447.568v7.264c.307.081.62.155.943.217v-7.481Z" transform="translate(-225.243 -447.568)" fill="#ffb83b"/><path d="M226.754,447.568v4.985a6.5,6.5,0,0,0,.833.726v-5.711Z" transform="translate(-225.489 -447.568)" fill="#ffb83b"/><path d="M243.024,447.568h-.685v4.284a3.7,3.7,0,0,0,.685-2.091Z" transform="translate(-224.529 -447.568)" fill="#ffb83b"/><path d="M241.007,447.568v5.711a6.5,6.5,0,0,0,.833-.726v-4.985Z" transform="translate(-224.611 -447.568)" fill="#ffb83b"/><path d="M239.676,447.568v6.54c.292-.139.572-.286.833-.444v-6.1Z" transform="translate(-224.693 -447.568)" fill="#ffb83b"/><path d="M226.207,447.568v4.284a5.277,5.277,0,0,0,.581.7v-4.985Z" transform="translate(-225.522 -447.568)" fill="#ff9d27"/><path d="M227.539,447.568v5.711c.183.134.377.262.58.385v-6.1Z" transform="translate(-225.44 -447.568)" fill="#ff9d27"/><path d="M228.87,447.568v6.54c.189.089.38.178.581.259v-6.8Z" transform="translate(-225.358 -447.568)" fill="#ff9d27"/><path d="M230.2,447.568v7.1c.189.059.383.115.58.168v-7.264Z" transform="translate(-225.276 -447.568)" fill="#ff9d27"/><path d="M231.636,447.568v7.481c.189.036.384.064.58.092v-7.573Z" transform="translate(-225.188 -447.568)" fill="#ff9d27"/><path d="M233.1,447.568v7.686q.287.022.58.035v-7.721Z" transform="translate(-225.098 -447.568)" fill="#ff9d27"/><path d="M234.572,447.568V455.3c.194,0,.389-.006.58-.018v-7.713Z" transform="translate(-225.007 -447.568)" fill="#ff9d27"/><path d="M236.185,447.568v7.6c.2-.027.39-.056.58-.089v-7.514Z" transform="translate(-224.908 -447.568)" fill="#ff9d27"/><path d="M241.792,447.568v4.985a5.279,5.279,0,0,0,.581-.7v-4.284Z" transform="translate(-224.563 -447.568)" fill="#ff9d27"/><path d="M240.461,447.568v6.1c.2-.123.4-.252.58-.385v-5.711Z" transform="translate(-224.645 -447.568)" fill="#ff9d27"/><path d="M239.129,447.568v6.8c.2-.081.392-.17.581-.259v-6.54Z" transform="translate(-224.727 -447.568)" fill="#ff9d27"/><path d="M237.8,447.568v7.264c.2-.053.391-.108.58-.168v-7.1Z" transform="translate(-224.809 -447.568)" fill="#ff9d27"/></g><path d="M234.809,442.342c-5.107,0-9.247,2.484-9.247,5.548s4.14,5.548,9.247,5.548,9.247-2.483,9.247-5.548S239.916,442.342,234.809,442.342Z" transform="translate(-225.562 -442.342)" fill="#ffe375"/><g transform="translate(1.183 0.548)"><path d="M234.741,443.416c4.3,0,7.8,2.018,8.041,4.559a2.724,2.724,0,0,0,.023-.279c0-2.672-3.61-4.839-8.065-4.839s-8.065,2.167-8.065,4.839a2.724,2.724,0,0,0,.023.279C226.941,445.434,230.443,443.416,234.741,443.416Z" transform="translate(-226.676 -442.858)" fill="#ff9d27"/><path d="M234.739,452.5c4.3,0,7.8-2.018,8.041-4.559-.242-2.541-3.744-4.559-8.041-4.559s-7.8,2.018-8.041,4.559C226.94,450.485,230.442,452.5,234.739,452.5Z" transform="translate(-226.675 -442.826)" fill="#ff9d27" opacity="0.5"/></g><path d="M228.193,448.933a4.844,4.844,0,0,1-.395-.789c-.081-.265,0-.559-.105-.808a.117.117,0,0,0-.194-.051c-.231.238-.161.669-.088.965a1.235,1.235,0,0,0,.607.858A.129.129,0,0,0,228.193,448.933Z" transform="translate(-225.453 -442.04)" fill="#ff9d27"/><path d="M240.664,446.16a.065.065,0,0,0-.108.046,5.9,5.9,0,0,1,.04.941c-.047.274-.24.5-.243.777a.128.128,0,0,0,.161.122C241.11,447.8,241.132,446.538,240.664,446.16Z" transform="translate(-224.652 -442.108)" fill="#ff9d27"/><path d="M239.084,445.737a.062.062,0,0,0-.042.1c.167.21.411.348.6.541.168.172.269.341.505.418a.1.1,0,0,0,.124-.1C240.3,446.208,239.542,445.706,239.084,445.737Z" transform="translate(-224.733 -442.133)" fill="#ff9d27"/></g><g transform="translate(49.604 23.799)"><g transform="translate(0 5.548)"><path d="M253.652,469.987V477.7c.385-.022.762-.062,1.132-.11v-7.6Z" transform="translate(-243.507 -469.987)" fill="#ffb83b"/><path d="M252.183,469.987v7.721c.22.01.438.02.661.02.107,0,.211-.007.317-.01v-7.731Z" transform="translate(-243.597 -469.987)" fill="#ffb83b"/><path d="M244.1,469.987v2.193a3.705,3.705,0,0,0,.686,2.091v-4.284Z" transform="translate(-244.095 -469.987)" fill="#ffb83b"/><path d="M255.265,469.987V477.5q.583-.1,1.132-.249v-7.263Z" transform="translate(-243.408 -469.987)" fill="#ffb83b"/><path d="M256.878,469.987v7.1c.287-.091.566-.189.833-.3v-6.8Z" transform="translate(-243.308 -469.987)" fill="#ffb83b"/><path d="M246.619,469.987v6.1a9.229,9.229,0,0,0,.833.445v-6.54Z" transform="translate(-243.94 -469.987)" fill="#ffb83b"/><path d="M250.715,469.987v7.573q.481.072.979.111v-7.685Z" transform="translate(-243.688 -469.987)" fill="#ffb83b"/><path d="M247.95,469.987v6.8c.268.108.547.207.833.3v-7.1Z" transform="translate(-243.858 -469.987)" fill="#ffb83b"/><path d="M249.282,469.987v7.263c.306.082.619.156.942.218v-7.481Z" transform="translate(-243.776 -469.987)" fill="#ffb83b"/><path d="M245.287,469.987v4.984a6.577,6.577,0,0,0,.833.727v-5.711Z" transform="translate(-244.022 -469.987)" fill="#ffb83b"/><path d="M261.558,469.987h-.686v4.284a3.705,3.705,0,0,0,.686-2.091Z" transform="translate(-243.062 -469.987)" fill="#ffb83b"/><path d="M259.541,469.987V475.7a6.575,6.575,0,0,0,.833-.727v-4.984Z" transform="translate(-243.144 -469.987)" fill="#ffb83b"/><path d="M258.209,469.987v6.539a8.962,8.962,0,0,0,.833-.444v-6.1Z" transform="translate(-243.226 -469.987)" fill="#ffb83b"/><path d="M244.741,469.987v4.284a5.111,5.111,0,0,0,.58.7v-4.984Z" transform="translate(-244.055 -469.987)" fill="#ff9d27"/><path d="M246.072,469.987V475.7c.184.134.378.262.581.384v-6.1Z" transform="translate(-243.973 -469.987)" fill="#ff9d27"/><path d="M247.4,469.987v6.54c.189.089.379.177.58.258v-6.8Z" transform="translate(-243.891 -469.987)" fill="#ff9d27"/><path d="M248.735,469.987v7.1c.189.061.383.116.581.168v-7.263Z" transform="translate(-243.809 -469.987)" fill="#ff9d27"/><path d="M250.169,469.987v7.481c.19.036.385.064.58.092v-7.573Z" transform="translate(-243.721 -469.987)" fill="#ff9d27"/><path d="M251.637,469.987v7.685q.288.024.58.036v-7.721Z" transform="translate(-243.631 -469.987)" fill="#ff9d27"/><path d="M253.1,469.987v7.731c.194,0,.39-.006.581-.018v-7.713Z" transform="translate(-243.54 -469.987)" fill="#ff9d27"/><path d="M254.718,469.987v7.6q.295-.04.581-.09v-7.513Z" transform="translate(-243.441 -469.987)" fill="#ff9d27"/><path d="M260.326,469.987v4.984a5.109,5.109,0,0,0,.58-.7v-4.284Z" transform="translate(-243.096 -469.987)" fill="#ff9d27"/><path d="M258.994,469.987v6.1c.2-.122.4-.251.581-.384v-5.711Z" transform="translate(-243.178 -469.987)" fill="#ff9d27"/><path d="M257.663,469.987v6.8c.2-.081.391-.169.58-.259v-6.539Z" transform="translate(-243.26 -469.987)" fill="#ff9d27"/><path d="M256.331,469.987v7.263c.2-.052.392-.107.581-.168v-7.1Z" transform="translate(-243.342 -469.987)" fill="#ff9d27"/></g><ellipse cx="9.247" cy="5.548" rx="9.247" ry="5.548" transform="translate(0)" fill="#ffe375"/><g transform="translate(1.183 0.548)"><path d="M253.274,465.835c4.3,0,7.8,2.017,8.042,4.559.009-.093.023-.186.023-.279,0-2.673-3.611-4.839-8.066-4.839s-8.065,2.166-8.065,4.839c0,.093.015.186.023.279C245.475,467.852,248.977,465.835,253.274,465.835Z" transform="translate(-245.209 -465.277)" fill="#ff9d27"/><path d="M253.272,474.922c4.3,0,7.8-2.018,8.042-4.559-.243-2.542-3.745-4.559-8.042-4.559s-7.8,2.017-8.041,4.559C245.474,472.9,248.976,474.922,253.272,474.922Z" transform="translate(-245.208 -465.245)" fill="#ff9d27" opacity="0.5"/></g><path d="M246.728,471.352a4.767,4.767,0,0,1-.4-.789c-.081-.265,0-.559-.1-.808a.119.119,0,0,0-.2-.052c-.231.239-.161.669-.088.966a1.238,1.238,0,0,0,.608.857A.129.129,0,0,0,246.728,471.352Z" transform="translate(-243.986 -464.459)" fill="#ff9d27"/><path d="M259.2,468.579a.065.065,0,0,0-.109.045,5.8,5.8,0,0,1,.04.942c-.047.274-.24.5-.243.776a.128.128,0,0,0,.161.123C259.643,470.222,259.665,468.956,259.2,468.579Z" transform="translate(-243.185 -464.527)" fill="#ff9d27"/><path d="M257.618,468.156a.061.061,0,0,0-.044.1,7.868,7.868,0,0,0,.6.541c.168.172.27.341.505.418a.1.1,0,0,0,.124-.095C258.834,468.627,258.075,468.124,257.618,468.156Z" transform="translate(-243.266 -464.552)" fill="#ff9d27"/></g><g transform="translate(45.632 20.074)"><g transform="translate(0 5.549)"><path d="M249.909,466.479v7.713c.385-.022.762-.062,1.133-.111v-7.6Z" transform="translate(-239.765 -466.479)" fill="#ffb83b"/><path d="M248.441,466.479v7.72c.219.01.437.02.661.02.107,0,.211-.007.317-.01v-7.73Z" transform="translate(-239.855 -466.479)" fill="#ffb83b"/><path d="M240.353,466.479v2.192a3.7,3.7,0,0,0,.685,2.091v-4.283Z" transform="translate(-240.353 -466.479)" fill="#ffb83b"/><path d="M251.522,466.479v7.513q.584-.1,1.133-.249v-7.263Z" transform="translate(-239.666 -466.479)" fill="#ffb83b"/><path d="M253.135,466.479v7.1c.287-.091.566-.189.833-.3v-6.8Z" transform="translate(-239.566 -466.479)" fill="#ffb83b"/><path d="M242.876,466.479v6.1c.261.158.541.3.833.444v-6.539Z" transform="translate(-240.198 -466.479)" fill="#ffb83b"/><path d="M246.973,466.479v7.572q.479.072.979.113v-7.685Z" transform="translate(-239.946 -466.479)" fill="#ffb83b"/><path d="M244.207,466.479v6.8c.269.108.548.206.834.3v-7.1Z" transform="translate(-240.116 -466.479)" fill="#ffb83b"/><path d="M245.539,466.479v7.263c.307.081.619.155.943.217v-7.48Z" transform="translate(-240.034 -466.479)" fill="#ffb83b"/><path d="M241.545,466.479v4.984a6.592,6.592,0,0,0,.833.727v-5.711Z" transform="translate(-240.28 -466.479)" fill="#ffb83b"/><path d="M257.815,466.479h-.685v4.283a3.7,3.7,0,0,0,.685-2.091Z" transform="translate(-239.32 -466.479)" fill="#ffb83b"/><path d="M255.8,466.479v5.711a6.591,6.591,0,0,0,.833-.727v-4.984Z" transform="translate(-239.402 -466.479)" fill="#ffb83b"/><path d="M254.467,466.479v6.539c.291-.139.571-.286.833-.444v-6.1Z" transform="translate(-239.484 -466.479)" fill="#ffb83b"/><path d="M241,466.479v4.283a5.277,5.277,0,0,0,.581.7v-4.984Z" transform="translate(-240.313 -466.479)" fill="#ff9d27"/><path d="M242.33,466.479v5.711c.183.134.377.261.58.384v-6.1Z" transform="translate(-240.231 -466.479)" fill="#ff9d27"/><path d="M243.661,466.479v6.539c.189.09.38.178.58.259v-6.8Z" transform="translate(-240.149 -466.479)" fill="#ff9d27"/><path d="M244.993,466.479v7.1c.189.059.383.116.58.168v-7.263Z" transform="translate(-240.067 -466.479)" fill="#ff9d27"/><path d="M246.427,466.479v7.48c.189.036.384.064.58.092v-7.572Z" transform="translate(-239.979 -466.479)" fill="#ff9d27"/><path d="M247.9,466.479v7.685c.191.015.384.028.58.035v-7.72Z" transform="translate(-239.889 -466.479)" fill="#ff9d27"/><path d="M249.363,466.479v7.73c.194,0,.389-.006.58-.017v-7.713Z" transform="translate(-239.798 -466.479)" fill="#ff9d27"/><path d="M250.976,466.479v7.6q.293-.04.58-.089v-7.513Z" transform="translate(-239.699 -466.479)" fill="#ff9d27"/><path d="M256.583,466.479v4.984a5.279,5.279,0,0,0,.581-.7v-4.283Z" transform="translate(-239.354 -466.479)" fill="#ff9d27"/><path d="M255.252,466.479v6.1c.2-.123.4-.251.58-.384v-5.711Z" transform="translate(-239.436 -466.479)" fill="#ff9d27"/><path d="M253.92,466.479v6.8c.2-.081.392-.17.581-.259v-6.539Z" transform="translate(-239.518 -466.479)" fill="#ff9d27"/><path d="M252.589,466.479v7.263c.2-.052.391-.108.58-.168v-7.1Z" transform="translate(-239.6 -466.479)" fill="#ff9d27"/></g><path d="M249.6,461.252c-5.107,0-9.247,2.484-9.247,5.549s4.14,5.548,9.247,5.548,9.247-2.484,9.247-5.548S254.707,461.252,249.6,461.252Z" transform="translate(-240.353 -461.252)" fill="#ffe375"/><g transform="translate(1.183 0.548)"><path d="M249.532,462.326c4.3,0,7.8,2.018,8.041,4.559.008-.092.023-.185.023-.279,0-2.672-3.61-4.839-8.065-4.839s-8.065,2.167-8.065,4.839a2.7,2.7,0,0,0,.023.279C241.732,464.344,245.234,462.326,249.532,462.326Z" transform="translate(-241.467 -461.768)" fill="#ff9d27"/><path d="M249.53,471.413c4.3,0,7.8-2.018,8.041-4.559-.242-2.541-3.744-4.559-8.041-4.559s-7.8,2.018-8.041,4.559C241.731,469.395,245.233,471.413,249.53,471.413Z" transform="translate(-241.466 -461.736)" fill="#ff9d27" opacity="0.5"/></g><path d="M254.517,469.4a7.881,7.881,0,0,0-.922-.912,1.822,1.822,0,0,0,.165-1.709c-.421-1.1-1.773-1.21-2.773-1.107a6.954,6.954,0,0,0-1.378.309c-.956-.533-1.882-1.2-2.873-1.7a5.319,5.319,0,0,1,1.978-.313.131.131,0,0,0,.034-.257,3.543,3.543,0,0,0-2.638.289,5.517,5.517,0,0,0-1.312-.351c-.064-.008-.081.087-.032.116.3.173.6.352.9.528a1.463,1.463,0,0,0,.045,2.551c1.136.787,2.531.263,3.677-.1l.308-.1c.979.558,1.891,1.277,2.831,1.924a4.177,4.177,0,0,1-1.621.646,5.164,5.164,0,0,1-2.19-.04.158.158,0,0,0-.153.262c.865.839,2.995.62,4.279-.216a2.917,2.917,0,0,0,.316-.237,10.074,10.074,0,0,0,1.181.645A.147.147,0,0,0,254.517,469.4Zm-7.8-2.863c-1.1-.192-1.348-1.087-.662-1.8a1.828,1.828,0,0,1,.15-.125q1.357.8,2.725,1.587c-.143.049-.287.1-.432.144A6.73,6.73,0,0,1,246.72,466.537Zm4.513-.211c.8-.034,2.376.04,1.767,1.686v0a22.546,22.546,0,0,0-2.554-1.573A4.476,4.476,0,0,1,251.233,466.326Z" transform="translate(-240.083 -461.109)" fill="#ff9d27"/><path d="M242.984,467.843a4.758,4.758,0,0,1-.395-.789c-.081-.265,0-.559-.105-.808a.117.117,0,0,0-.194-.051c-.231.238-.162.669-.088.966a1.235,1.235,0,0,0,.607.857A.129.129,0,0,0,242.984,467.843Z" transform="translate(-240.244 -460.95)" fill="#ff9d27"/><path d="M255.455,465.071a.064.064,0,0,0-.108.045,5.9,5.9,0,0,1,.04.941c-.047.274-.24.5-.243.777a.127.127,0,0,0,.16.122C255.9,466.713,255.923,465.448,255.455,465.071Z" transform="translate(-239.443 -461.018)" fill="#ff9d27"/><path d="M253.875,464.647a.062.062,0,0,0-.042.1c.167.21.411.348.6.541.168.172.269.341.505.418a.1.1,0,0,0,.124-.1C255.091,465.118,254.332,464.616,253.875,464.647Z" transform="translate(-239.524 -461.043)" fill="#ff9d27"/></g><g transform="translate(45.632 17.032)"><g transform="translate(0 5.548)"><path d="M249.909,463.613v7.713c.385-.022.762-.062,1.133-.111v-7.6Z" transform="translate(-239.765 -463.613)" fill="#ffb83b"/><path d="M248.441,463.613v7.721c.219.01.437.02.661.02.107,0,.211-.007.317-.01v-7.731Z" transform="translate(-239.855 -463.613)" fill="#ffb83b"/><path d="M240.353,463.613v2.193a3.7,3.7,0,0,0,.685,2.091v-4.284Z" transform="translate(-240.353 -463.613)" fill="#ffb83b"/><path d="M251.522,463.613v7.513q.584-.1,1.133-.249v-7.263Z" transform="translate(-239.666 -463.613)" fill="#ffb83b"/><path d="M253.135,463.613v7.1c.287-.09.566-.189.833-.3v-6.8Z" transform="translate(-239.566 -463.613)" fill="#ffb83b"/><path d="M242.876,463.613v6.1a8.947,8.947,0,0,0,.833.444v-6.539Z" transform="translate(-240.198 -463.613)" fill="#ffb83b"/><path d="M246.973,463.613v7.573q.479.072.979.111v-7.685Z" transform="translate(-239.946 -463.613)" fill="#ffb83b"/><path d="M244.207,463.613v6.8c.269.108.548.207.834.3v-7.1Z" transform="translate(-240.116 -463.613)" fill="#ffb83b"/><path d="M245.539,463.613v7.263c.307.082.619.156.943.218v-7.481Z" transform="translate(-240.034 -463.613)" fill="#ffb83b"/><path d="M241.545,463.613V468.6a6.508,6.508,0,0,0,.833.727v-5.711Z" transform="translate(-240.28 -463.613)" fill="#ffb83b"/><path d="M257.815,463.613h-.685V467.9a3.7,3.7,0,0,0,.685-2.091Z" transform="translate(-239.32 -463.613)" fill="#ffb83b"/><path d="M255.8,463.613v5.711a6.507,6.507,0,0,0,.833-.727v-4.984Z" transform="translate(-239.402 -463.613)" fill="#ffb83b"/><path d="M254.467,463.613v6.539a9.227,9.227,0,0,0,.833-.444v-6.1Z" transform="translate(-239.484 -463.613)" fill="#ffb83b"/><path d="M241,463.613V467.9a5.206,5.206,0,0,0,.581.7v-4.984Z" transform="translate(-240.313 -463.613)" fill="#ff9d27"/><path d="M242.33,463.613v5.711c.183.134.377.262.58.384v-6.1Z" transform="translate(-240.231 -463.613)" fill="#ff9d27"/><path d="M243.661,463.613v6.539c.189.09.38.178.58.259v-6.8Z" transform="translate(-240.149 -463.613)" fill="#ff9d27"/><path d="M244.993,463.613v7.1c.189.061.383.116.58.168v-7.263Z" transform="translate(-240.067 -463.613)" fill="#ff9d27"/><path d="M246.427,463.613v7.481c.189.036.384.064.58.092v-7.573Z" transform="translate(-239.979 -463.613)" fill="#ff9d27"/><path d="M247.9,463.613V471.3c.191.016.384.028.58.036v-7.721Z" transform="translate(-239.889 -463.613)" fill="#ff9d27"/><path d="M249.363,463.613v7.731c.194,0,.389-.006.58-.018v-7.713Z" transform="translate(-239.798 -463.613)" fill="#ff9d27"/><path d="M250.976,463.613v7.6q.293-.038.58-.089v-7.513Z" transform="translate(-239.699 -463.613)" fill="#ff9d27"/><path d="M256.583,463.613V468.6a5.208,5.208,0,0,0,.581-.7v-4.284Z" transform="translate(-239.354 -463.613)" fill="#ff9d27"/><path d="M255.252,463.613v6.1c.2-.122.4-.251.58-.384v-5.711Z" transform="translate(-239.436 -463.613)" fill="#ff9d27"/><path d="M253.92,463.613v6.8c.2-.081.392-.169.581-.259v-6.539Z" transform="translate(-239.518 -463.613)" fill="#ff9d27"/><path d="M252.589,463.613v7.263c.2-.052.391-.107.58-.168v-7.1Z" transform="translate(-239.6 -463.613)" fill="#ff9d27"/></g><path d="M249.6,458.387c-5.107,0-9.247,2.484-9.247,5.548s4.14,5.548,9.247,5.548,9.247-2.484,9.247-5.548S254.707,458.387,249.6,458.387Z" transform="translate(-240.353 -458.387)" fill="#ffe375"/><g transform="translate(1.183 0.548)"><path d="M249.532,459.461c4.3,0,7.8,2.017,8.041,4.559.008-.093.023-.186.023-.279,0-2.673-3.61-4.839-8.065-4.839s-8.065,2.166-8.065,4.839a2.751,2.751,0,0,0,.023.279C241.732,461.478,245.234,459.461,249.532,459.461Z" transform="translate(-241.467 -458.903)" fill="#ff9d27"/><path d="M249.53,468.548c4.3,0,7.8-2.018,8.041-4.559-.242-2.542-3.744-4.559-8.041-4.559s-7.8,2.017-8.041,4.559C241.731,466.53,245.233,468.548,249.53,468.548Z" transform="translate(-241.466 -458.871)" fill="#ff9d27" opacity="0.5"/></g><path d="M242.984,464.978a4.761,4.761,0,0,1-.395-.789c-.081-.265,0-.559-.105-.808a.118.118,0,0,0-.194-.052c-.231.239-.162.669-.088.966a1.233,1.233,0,0,0,.607.857A.129.129,0,0,0,242.984,464.978Z" transform="translate(-240.244 -458.085)" fill="#ff9d27"/><path d="M255.455,462.2a.064.064,0,0,0-.108.045,5.922,5.922,0,0,1,.04.942c-.047.274-.24.5-.243.776a.127.127,0,0,0,.16.123C255.9,463.848,255.923,462.582,255.455,462.2Z" transform="translate(-239.443 -458.153)" fill="#ff9d27"/><path d="M253.875,461.782a.061.061,0,0,0-.042.1,7.867,7.867,0,0,0,.6.541c.168.172.269.341.505.418a.1.1,0,0,0,.124-.094C255.091,462.253,254.332,461.75,253.875,461.782Z" transform="translate(-239.524 -458.178)" fill="#ff9d27"/></g><g transform="translate(0 25.501)"><g transform="translate(2.026 7.599)"><g transform="translate(0 5.549)"><path d="M208.832,478.75v7.713c.385-.022.762-.062,1.133-.111v-7.6Z" transform="translate(-198.688 -478.75)" fill="#ffb83b"/><path d="M207.364,478.75v7.721c.219.008.437.019.661.019.106,0,.21-.007.316-.01v-7.73Z" transform="translate(-198.778 -478.75)" fill="#ffb83b"/><path d="M199.276,478.75v2.192a3.7,3.7,0,0,0,.685,2.091V478.75Z" transform="translate(-199.276 -478.75)" fill="#ffb83b"/><path d="M210.445,478.75v7.513q.583-.1,1.133-.249V478.75Z" transform="translate(-198.589 -478.75)" fill="#ffb83b"/><path d="M212.058,478.75v7.1c.287-.091.566-.189.833-.3v-6.8Z" transform="translate(-198.489 -478.75)" fill="#ffb83b"/><path d="M201.8,478.75v6.1c.261.158.541.3.833.444V478.75Z" transform="translate(-199.121 -478.75)" fill="#ffb83b"/><path d="M205.9,478.75v7.572c.32.048.645.086.978.113V478.75Z" transform="translate(-198.869 -478.75)" fill="#ffb83b"/><path d="M203.13,478.75v6.8c.268.108.547.206.833.3v-7.1Z" transform="translate(-199.039 -478.75)" fill="#ffb83b"/><path d="M204.462,478.75v7.263c.306.082.619.155.942.216v-7.48Z" transform="translate(-198.957 -478.75)" fill="#ffb83b"/><path d="M200.467,478.75v4.984a6.666,6.666,0,0,0,.833.727V478.75Z" transform="translate(-199.203 -478.75)" fill="#ffb83b"/><path d="M216.738,478.75h-.686v4.283a3.692,3.692,0,0,0,.686-2.091Z" transform="translate(-198.244 -478.75)" fill="#ffb83b"/><path d="M214.721,478.75v5.711a6.587,6.587,0,0,0,.833-.727V478.75Z" transform="translate(-198.325 -478.75)" fill="#ffb83b"/><path d="M213.389,478.75v6.539c.292-.139.572-.286.834-.444v-6.1Z" transform="translate(-198.407 -478.75)" fill="#ffb83b"/><path d="M199.921,478.75v4.283a5.2,5.2,0,0,0,.58.7V478.75Z" transform="translate(-199.236 -478.75)" fill="#ff9d27"/><path d="M201.252,478.75v5.711c.184.134.378.261.581.384v-6.1Z" transform="translate(-199.154 -478.75)" fill="#ff9d27"/><path d="M202.584,478.75v6.539c.189.09.38.178.58.259v-6.8Z" transform="translate(-199.072 -478.75)" fill="#ff9d27"/><path d="M203.915,478.75v7.1c.19.061.383.116.581.168V478.75Z" transform="translate(-198.99 -478.75)" fill="#ff9d27"/><path d="M205.349,478.75v7.48c.19.036.385.064.581.092V478.75Z" transform="translate(-198.902 -478.75)" fill="#ff9d27"/><path d="M206.817,478.75v7.685c.192.015.385.028.581.036V478.75Z" transform="translate(-198.812 -478.75)" fill="#ff9d27"/><path d="M208.285,478.75v7.73c.194,0,.39-.006.581-.017V478.75Z" transform="translate(-198.722 -478.75)" fill="#ff9d27"/><path d="M209.9,478.75v7.6c.2-.027.389-.055.58-.089V478.75Z" transform="translate(-198.622 -478.75)" fill="#ff9d27"/><path d="M215.506,478.75v4.984a5.118,5.118,0,0,0,.58-.7V478.75Z" transform="translate(-198.277 -478.75)" fill="#ff9d27"/><path d="M214.175,478.75v6.1c.2-.123.4-.25.58-.384V478.75Z" transform="translate(-198.359 -478.75)" fill="#ff9d27"/><path d="M212.843,478.75v6.8c.2-.081.392-.169.58-.259V478.75Z" transform="translate(-198.441 -478.75)" fill="#ff9d27"/><path d="M211.512,478.75v7.263c.2-.052.391-.107.58-.168v-7.1Z" transform="translate(-198.523 -478.75)" fill="#ff9d27"/></g><path d="M208.523,473.523c-5.107,0-9.247,2.484-9.247,5.549s4.14,5.548,9.247,5.548,9.247-2.484,9.247-5.548S213.63,473.523,208.523,473.523Z" transform="translate(-199.276 -473.523)" fill="#ffe375"/><g transform="translate(1.182 0.548)"><path d="M208.455,474.6c4.3,0,7.8,2.018,8.041,4.559.008-.092.023-.185.023-.279,0-2.672-3.61-4.839-8.065-4.839s-8.066,2.167-8.066,4.839c0,.094.015.187.023.279C200.655,476.615,204.157,474.6,208.455,474.6Z" transform="translate(-200.389 -474.039)" fill="#ff9d27"/><path d="M208.453,483.684c4.3,0,7.8-2.018,8.041-4.559-.242-2.541-3.744-4.559-8.041-4.559s-7.8,2.018-8.042,4.559C200.654,481.666,204.156,483.684,208.453,483.684Z" transform="translate(-200.388 -474.007)" fill="#ff9d27" opacity="0.5"/></g><path d="M213.44,481.671a7.88,7.88,0,0,0-.922-.912,1.823,1.823,0,0,0,.165-1.708c-.422-1.1-1.774-1.211-2.774-1.108a6.943,6.943,0,0,0-1.377.309c-.956-.533-1.882-1.2-2.873-1.7a5.318,5.318,0,0,1,1.978-.313.131.131,0,0,0,.034-.257,3.542,3.542,0,0,0-2.638.289,5.569,5.569,0,0,0-1.312-.351c-.065-.008-.082.087-.032.116.3.173.6.352.9.528a1.463,1.463,0,0,0,.045,2.551c1.136.787,2.531.263,3.677-.1l.308-.1c.979.558,1.891,1.278,2.831,1.923a4.177,4.177,0,0,1-1.621.646,5.167,5.167,0,0,1-2.191-.039.158.158,0,0,0-.152.262c.865.838,2.995.619,4.279-.217a3.025,3.025,0,0,0,.316-.237,10.151,10.151,0,0,0,1.182.646A.148.148,0,0,0,213.44,481.671Zm-7.8-2.863c-1.1-.192-1.348-1.087-.662-1.8a1.666,1.666,0,0,1,.149-.126q1.358.8,2.726,1.587c-.143.049-.287.1-.432.144A6.735,6.735,0,0,1,205.643,478.808Zm4.512-.211c.8-.034,2.376.04,1.769,1.686v0a22.7,22.7,0,0,0-2.554-1.573A4.464,4.464,0,0,1,210.155,478.6Z" transform="translate(-199.006 -473.38)" fill="#ff9d27"/><path d="M201.908,480.114a4.724,4.724,0,0,1-.4-.789c-.08-.264,0-.559-.1-.808a.118.118,0,0,0-.194-.051c-.232.238-.162.669-.089.966a1.24,1.24,0,0,0,.608.857A.129.129,0,0,0,201.908,480.114Z" transform="translate(-199.167 -473.221)" fill="#ff9d27"/><path d="M214.378,477.342a.064.064,0,0,0-.108.045,5.915,5.915,0,0,1,.039.942c-.047.273-.239.5-.242.776a.128.128,0,0,0,.16.123C214.824,478.984,214.845,477.719,214.378,477.342Z" transform="translate(-198.366 -473.289)" fill="#ff9d27"/><path d="M212.8,476.918a.062.062,0,0,0-.044.1c.168.21.411.348.6.541.168.172.27.341.505.418a.1.1,0,0,0,.125-.094C214.014,477.389,213.255,476.887,212.8,476.918Z" transform="translate(-198.447 -473.314)" fill="#ff9d27"/></g><g transform="translate(5.037 3.538)"><g transform="translate(0 5.548)"><path d="M211.668,474.924v7.713c.385-.022.762-.061,1.133-.11v-7.6Z" transform="translate(-201.524 -474.924)" fill="#ffb83b"/><path d="M210.2,474.924v7.721c.219.01.437.02.661.02.107,0,.211-.007.317-.01v-7.731Z" transform="translate(-201.614 -474.924)" fill="#ffb83b"/><path d="M202.112,474.924v2.193a3.7,3.7,0,0,0,.685,2.091v-4.284Z" transform="translate(-202.112 -474.924)" fill="#ffb83b"/><path d="M213.281,474.924v7.513c.39-.068.766-.152,1.133-.248v-7.264Z" transform="translate(-201.425 -474.924)" fill="#ffb83b"/><path d="M214.894,474.924v7.1c.287-.091.566-.19.833-.3v-6.8Z" transform="translate(-201.325 -474.924)" fill="#ffb83b"/><path d="M204.635,474.924v6.1c.261.158.541.3.833.444v-6.54Z" transform="translate(-201.957 -474.924)" fill="#ffb83b"/><path d="M208.732,474.924V482.5c.32.048.646.085.979.113v-7.686Z" transform="translate(-201.705 -474.924)" fill="#ffb83b"/><path d="M205.966,474.924v6.8c.269.107.548.206.834.3v-7.1Z" transform="translate(-201.875 -474.924)" fill="#ffb83b"/><path d="M207.3,474.924v7.264c.307.081.619.155.943.217v-7.481Z" transform="translate(-201.793 -474.924)" fill="#ffb83b"/><path d="M203.3,474.924v4.985a6.51,6.51,0,0,0,.833.726v-5.711Z" transform="translate(-202.039 -474.924)" fill="#ffb83b"/><path d="M219.574,474.924h-.686v4.284a3.7,3.7,0,0,0,.686-2.091Z" transform="translate(-201.08 -474.924)" fill="#ffb83b"/><path d="M217.557,474.924v5.711a6.583,6.583,0,0,0,.833-.726v-4.985Z" transform="translate(-201.161 -474.924)" fill="#ffb83b"/><path d="M216.226,474.924v6.54c.291-.139.571-.286.833-.444v-6.1Z" transform="translate(-201.243 -474.924)" fill="#ffb83b"/><path d="M202.757,474.924v4.284a5.28,5.28,0,0,0,.581.7v-4.985Z" transform="translate(-202.072 -474.924)" fill="#ff9d27"/><path d="M204.089,474.924v5.711c.183.134.377.262.58.385v-6.1Z" transform="translate(-201.99 -474.924)" fill="#ff9d27"/><path d="M205.42,474.924v6.54c.189.089.38.177.58.259v-6.8Z" transform="translate(-201.908 -474.924)" fill="#ff9d27"/><path d="M206.752,474.924v7.1c.189.059.383.115.58.168v-7.264Z" transform="translate(-201.826 -474.924)" fill="#ff9d27"/><path d="M208.186,474.924V482.4c.189.036.384.064.58.092v-7.573Z" transform="translate(-201.738 -474.924)" fill="#ff9d27"/><path d="M209.654,474.924v7.686q.287.022.58.035v-7.721Z" transform="translate(-201.648 -474.924)" fill="#ff9d27"/><path d="M211.122,474.924v7.731c.194,0,.389-.006.58-.018v-7.713Z" transform="translate(-201.557 -474.924)" fill="#ff9d27"/><path d="M212.735,474.924v7.6q.293-.04.58-.09v-7.513Z" transform="translate(-201.458 -474.924)" fill="#ff9d27"/><path d="M218.342,474.924v4.985a5.189,5.189,0,0,0,.58-.7v-4.284Z" transform="translate(-201.113 -474.924)" fill="#ff9d27"/><path d="M217.011,474.924v6.1c.2-.123.4-.252.58-.385v-5.711Z" transform="translate(-201.195 -474.924)" fill="#ff9d27"/><path d="M215.679,474.924v6.8c.2-.082.392-.17.581-.259v-6.54Z" transform="translate(-201.277 -474.924)" fill="#ff9d27"/><path d="M214.348,474.924v7.264c.2-.053.391-.108.58-.168v-7.1Z" transform="translate(-201.359 -474.924)" fill="#ff9d27"/></g><path d="M211.359,469.7c-5.107,0-9.247,2.484-9.247,5.548s4.14,5.548,9.247,5.548,9.247-2.483,9.247-5.548S216.466,469.7,211.359,469.7Z" transform="translate(-202.112 -469.698)" fill="#ffe375"/><g transform="translate(1.183 0.548)"><path d="M211.291,470.772c4.3,0,7.8,2.018,8.041,4.559.008-.093.023-.185.023-.279,0-2.672-3.61-4.839-8.065-4.839s-8.065,2.167-8.065,4.839a2.725,2.725,0,0,0,.023.279C203.491,472.79,206.993,470.772,211.291,470.772Z" transform="translate(-203.226 -470.214)" fill="#ff9d27"/><path d="M211.289,479.859c4.3,0,7.8-2.018,8.041-4.559-.242-2.541-3.744-4.559-8.041-4.559s-7.8,2.018-8.041,4.559C203.49,477.841,206.992,479.859,211.289,479.859Z" transform="translate(-203.225 -470.182)" fill="#ff9d27" opacity="0.5"/></g><path d="M204.743,476.289a4.761,4.761,0,0,1-.395-.789c-.081-.265,0-.559-.105-.808a.118.118,0,0,0-.194-.052c-.231.239-.162.67-.088.966a1.231,1.231,0,0,0,.607.857A.129.129,0,0,0,204.743,476.289Z" transform="translate(-202.003 -469.396)" fill="#ff9d27"/><path d="M217.214,473.516a.065.065,0,0,0-.108.046,6.029,6.029,0,0,1,.04.941c-.048.274-.24.5-.243.777a.127.127,0,0,0,.16.122C217.66,475.159,217.682,473.894,217.214,473.516Z" transform="translate(-201.202 -469.464)" fill="#ff9d27"/><path d="M215.634,473.093a.062.062,0,0,0-.044.1c.168.21.412.348.6.541.169.172.27.341.505.418a.1.1,0,0,0,.125-.1C216.85,473.564,216.091,473.062,215.634,473.093Z" transform="translate(-201.283 -469.489)" fill="#ff9d27"/></g><g transform="translate(0 5.549)"><path d="M206.923,471.592v7.713c.385-.022.762-.062,1.133-.111v-7.6Z" transform="translate(-196.779 -471.592)" fill="#ffb83b"/><path d="M205.455,471.592v7.72c.22.01.438.02.661.02.107,0,.211-.007.317-.01v-7.73Z" transform="translate(-196.869 -471.592)" fill="#ffb83b"/><path d="M197.367,471.592v2.192a3.692,3.692,0,0,0,.686,2.091v-4.283Z" transform="translate(-197.367 -471.592)" fill="#ffb83b"/><path d="M208.536,471.592V479.1q.584-.1,1.133-.249v-7.263Z" transform="translate(-196.68 -471.592)" fill="#ffb83b"/><path d="M210.149,471.592v7.1c.287-.091.566-.189.834-.3v-6.8Z" transform="translate(-196.58 -471.592)" fill="#ffb83b"/><path d="M199.89,471.592v6.1c.262.158.542.3.833.444v-6.539Z" transform="translate(-197.212 -471.592)" fill="#ffb83b"/><path d="M203.987,471.592v7.572c.321.048.646.086.979.112v-7.685Z" transform="translate(-196.96 -471.592)" fill="#ffb83b"/><path d="M201.222,471.592v6.8c.268.108.547.206.833.3v-7.1Z" transform="translate(-197.13 -471.592)" fill="#ffb83b"/><path d="M202.553,471.592v7.263c.307.082.62.155.943.217v-7.48Z" transform="translate(-197.048 -471.592)" fill="#ffb83b"/><path d="M198.559,471.592v4.984a6.584,6.584,0,0,0,.833.727v-5.711Z" transform="translate(-197.294 -471.592)" fill="#ffb83b"/><path d="M214.829,471.592h-.685v4.283a3.7,3.7,0,0,0,.685-2.091Z" transform="translate(-196.334 -471.592)" fill="#ffb83b"/><path d="M212.812,471.592V477.3a6.67,6.67,0,0,0,.834-.727v-4.984Z" transform="translate(-196.416 -471.592)" fill="#ffb83b"/><path d="M211.481,471.592v6.539c.292-.139.572-.286.833-.444v-6.1Z" transform="translate(-196.498 -471.592)" fill="#ffb83b"/><path d="M198.013,471.592v4.283a5.187,5.187,0,0,0,.58.7v-4.984Z" transform="translate(-197.327 -471.592)" fill="#ff9d27"/><path d="M199.344,471.592V477.3c.183.134.377.261.58.384v-6.1Z" transform="translate(-197.245 -471.592)" fill="#ff9d27"/><path d="M200.675,471.592v6.539c.189.09.38.178.581.259v-6.8Z" transform="translate(-197.163 -471.592)" fill="#ff9d27"/><path d="M202.007,471.592v7.1c.189.061.383.116.58.168v-7.263Z" transform="translate(-197.081 -471.592)" fill="#ff9d27"/><path d="M203.441,471.592v7.48c.19.036.385.064.58.092v-7.572Z" transform="translate(-196.993 -471.592)" fill="#ff9d27"/><path d="M204.909,471.592v7.685c.191.015.384.028.58.035v-7.72Z" transform="translate(-196.903 -471.592)" fill="#ff9d27"/><path d="M206.377,471.592v7.73c.194,0,.389-.006.58-.017v-7.713Z" transform="translate(-196.813 -471.592)" fill="#ff9d27"/><path d="M207.99,471.592v7.6c.2-.027.39-.056.58-.089v-7.513Z" transform="translate(-196.713 -471.592)" fill="#ff9d27"/><path d="M213.6,471.592v4.984a5.352,5.352,0,0,0,.58-.7v-4.283Z" transform="translate(-196.368 -471.592)" fill="#ff9d27"/><path d="M212.266,471.592v6.1c.2-.123.4-.251.58-.384v-5.711Z" transform="translate(-196.45 -471.592)" fill="#ff9d27"/><path d="M210.935,471.592v6.8c.2-.081.391-.169.58-.259v-6.539Z" transform="translate(-196.532 -471.592)" fill="#ff9d27"/><path d="M209.6,471.592v7.263c.2-.052.391-.107.58-.168v-7.1Z" transform="translate(-196.614 -471.592)" fill="#ff9d27"/></g><path d="M206.614,466.365c-5.107,0-9.247,2.484-9.247,5.549s4.14,5.548,9.247,5.548,9.247-2.484,9.247-5.548S211.721,466.365,206.614,466.365Z" transform="translate(-197.367 -466.365)" fill="#ffe375"/><g transform="translate(1.183 0.548)"><path d="M206.546,467.439c4.3,0,7.8,2.018,8.041,4.559a2.7,2.7,0,0,0,.024-.279c0-2.672-3.611-4.839-8.066-4.839s-8.065,2.167-8.065,4.839c0,.094.015.187.023.279C198.746,469.457,202.248,467.439,206.546,467.439Z" transform="translate(-198.481 -466.881)" fill="#ff9d27"/><path d="M206.544,476.526c4.3,0,7.8-2.018,8.041-4.559-.242-2.541-3.744-4.559-8.041-4.559s-7.8,2.018-8.041,4.559C198.745,474.508,202.247,476.526,206.544,476.526Z" transform="translate(-198.48 -466.849)" fill="#ff9d27" opacity="0.5"/></g><path d="M200,472.956a4.845,4.845,0,0,1-.395-.789c-.081-.264,0-.559-.105-.808a.117.117,0,0,0-.194-.051c-.231.238-.161.669-.088.966a1.237,1.237,0,0,0,.608.857A.129.129,0,0,0,200,472.956Z" transform="translate(-197.258 -466.063)" fill="#ff9d27"/><path d="M212.469,470.184a.064.064,0,0,0-.108.045,5.91,5.91,0,0,1,.04.94c-.047.274-.24.5-.243.777a.129.129,0,0,0,.161.123C212.915,471.826,212.937,470.561,212.469,470.184Z" transform="translate(-196.457 -466.131)" fill="#ff9d27"/><path d="M210.889,469.76a.062.062,0,0,0-.042.1c.167.21.411.348.6.541.168.172.269.341.505.418a.1.1,0,0,0,.124-.1C212.1,470.231,211.347,469.729,210.889,469.76Z" transform="translate(-196.538 -466.156)" fill="#ff9d27"/></g></g></g></g></svg>