<svg xmlns="http://www.w3.org/2000/svg" xmlns:xlink="http://www.w3.org/1999/xlink" width="82" height="82" viewBox="0 0 82 82"><defs><clipPath id="a"><rect width="82" height="82" transform="translate(0.222)" fill="none" stroke="#707070" stroke-width="1"/></clipPath></defs><g transform="translate(-0.221)" clip-path="url(#a)"><g transform="translate(10.992 6.872)"><g transform="translate(0 0)"><g transform="translate(0 0)"><path d="M78.992,46.931s-2.578-2.607-10.757-.993S27.212,51.809,25.956,55.7s-2.1,28.338-.86,31.534,2.93,4.8,8.409,5.5S66.048,73,67.015,72.362,84.079,54.668,78.992,46.931Z" transform="translate(-21.871 -25.291)" fill="#ac5c00"/><g transform="translate(37.103 13.628) rotate(7.262)"><path d="M16.271,8.643s-1.356,8.606-6.1,8.643H8.643A8.643,8.643,0,0,1,8.643,0h1.873c4.753.024,5.755,3.885,5.755,8.643Z" transform="translate(0 0)" fill="#ffac17"/><path d="M17.286,8.643A8.643,8.643,0,1,1,8.643,0a8.643,8.643,0,0,1,8.643,8.643Z" transform="translate(1.896 0)" fill="#ffc517"/></g><g transform="matrix(-0.853, -0.522, 0.522, -0.853, 25.744, 40.908)"><path d="M16.266,8.641s-1.356,8.6-6.1,8.64H8.641A8.641,8.641,0,1,1,8.641,0h1.873C15.264.025,16.266,3.884,16.266,8.641Z" transform="translate(0 0)" fill="#ffac17"/><path d="M17.281,8.641A8.641,8.641,0,1,1,8.641,0a8.641,8.641,0,0,1,8.641,8.641Z" transform="translate(1.895 0)" fill="#ffc517"/></g><path d="M80.644,48.11s3.394,6.129-11.7,7.367-38.957,1.579-39.9,5-1.218,25.412.279,30.54,4.8,4.03,10.841,4.3,35.754-3.254,40.605-6.558,4.145-37.443-.129-40.647Z" transform="translate(-23.522 -26.47)" fill="#f58b10"/><path d="M35.364,93.092c-1.635-.25-4.093.641-5.994.659A8.253,8.253,0,0,1,27,93.418S25.174,94.893,25.5,96.77a23.912,23.912,0,0,0,1.645,4.66,28.231,28.231,0,0,0,6.94-.274c3.509-.47,3.83-5.713,2.585-7.359a1.92,1.92,0,0,0-1.31-.705Z" transform="translate(-22.296 -45.815)" fill="#ffc517"/><path d="M39.09,98.513a2.771,2.771,0,1,1-2.4-3.1A2.771,2.771,0,0,1,39.09,98.513Z" transform="translate(-25.836 -46.819)" fill="#ff4b3d"/><path d="M22.663,87.743c-2.994-.1-3.721,7.642-1.628,9.839a6.026,6.026,0,0,0,3.658,1.531c-.128-2.752-.15-7.173-.153-8.012a7.742,7.742,0,0,1-1.967-.854Z" transform="translate(-19.84 -43.482)" fill="#ffac17"/><g transform="translate(18.972 0) rotate(7.262)"><path d="M14.9,3.261s5.8,6.358,2.355,9.607L16.135,13.91a10.392,10.392,0,0,1-13.158.423,7.27,7.27,0,0,1-.49-11.339L3.859,1.719C7.361-1.5,11.143.256,14.9,3.261Z" transform="translate(0 0.863)" fill="#ffac17"/><path d="M15.644,2.143a7.27,7.27,0,0,1,.49,11.339,10.392,10.392,0,0,1-13.158.423,7.27,7.27,0,0,1-.49-11.339,10.392,10.392,0,0,1,13.158-.423Z" transform="translate(1.389 0)" fill="#ffc517"/></g><g transform="translate(5.667 2.291)"><path d="M91.937,26.228c-.388-.05-.231-2.256-.47-2.566s-2.415-.711-2.366-1.1,2.256-.231,2.566-.47.711-2.415,1.1-2.366.231,2.256.47,2.566,2.415.711,2.366,1.1-2.256.231-2.566.47-.711,2.415-1.1,2.366Z" transform="translate(-55.766 -15.077)" fill="#78cb4d"/><path d="M36.5,42.8c-.509.075-1.09-2.775-1.5-3.082s-3.309-.047-3.384-.555,2.775-1.09,3.082-1.5.047-3.309.555-3.384,1.09,2.775,1.5,3.082,3.309.046,3.384.555-2.775,1.09-3.082,1.5-.047,3.309-.555,3.384Z" transform="translate(-30.649 -21.429)" fill="#ff4b3d"/><path d="M102.483,13.077a1.425,1.425,0,1,1-1.233-1.594,1.425,1.425,0,0,1,1.233,1.594Z" transform="translate(-60.371 -11.472)" fill="#ffc517"/><path d="M76.7,43.1A1.425,1.425,0,1,1,75.465,41.5,1.425,1.425,0,0,1,76.7,43.1Z" transform="translate(-49.105 -24.581)" fill="#78cb4d"/><path d="M31.373,24.547a.739.739,0,1,1-.639-.827A.739.739,0,0,1,31.373,24.547Z" transform="translate(-29.901 -16.818)" fill="#ff4b3d"/><path d="M44.6,27.228a1.6,1.6,0,1,1-1.382-1.786A1.6,1.6,0,0,1,44.6,27.228Z" transform="translate(-34.931 -17.567)" fill="#ffc517"/><path d="M110.479,26.219a.739.739,0,1,1-.639-.827.739.739,0,0,1,.639.827Z" transform="translate(-64.459 -17.548)" fill="#ff4b3d"/></g><path d="M81.4,63.036l-.015,0a.321.321,0,0,0-.3.151,2.5,2.5,0,0,1-.365.433.321.321,0,1,0,.452.455,3.049,3.049,0,0,0,.457-.548.321.321,0,0,0-.23-.489Zm-2.536,1.9-.03,0a.321.321,0,0,0-.155.03c-.189.088-.38.173-.572.251a.321.321,0,0,0,.24.6c.2-.082.406-.171.6-.264a.322.322,0,0,0-.088-.608Zm-3.037,1.025a.321.321,0,0,0-.12.005c-.206.049-.411.1-.615.137a.321.321,0,0,0,.125.629c.215-.043.429-.092.639-.142a.321.321,0,0,0-.029-.629Zm-3.18.533a.32.32,0,0,0-.064,0c-.21.024-.419.046-.629.065a.321.321,0,0,0,.055.639c.217-.019.431-.041.647-.066a.32.32,0,0,0,.01-.636l-.02,0Zm-3.191.215a.321.321,0,0,0-.046,0l-.642.02a.321.321,0,1,0,.02.642l.642-.02a.321.321,0,0,0,.026-.64Zm-3.2.109h-.008a.319.319,0,0,0-.046,0l-.64.025a.321.321,0,1,0,.025.641l.641-.025a.321.321,0,0,0,.027-.639Zm-3.214.132a.32.32,0,0,0-.046,0l-.221.01h0l-.42.02a.321.321,0,1,0,.03.641l.42-.02.221-.009a.321.321,0,0,0,.017-.64Zm-3.207.153a.321.321,0,0,0-.046,0l-.641.034a.321.321,0,1,0,.034.64l.64-.033a.32.32,0,0,0,.013-.639Zm-3.2.173h-.007a.322.322,0,0,0-.046,0l-.408.023-.232.013a.321.321,0,1,0,.037.64l.233-.013.406-.023a.321.321,0,0,0,.016-.639Zm-3.2.193h-.008a.324.324,0,0,0-.044,0l-.641.041a.321.321,0,0,0,.043.641l.64-.041a.321.321,0,0,0,.011-.64Zm-3.2.218h-.007a.321.321,0,0,0-.045,0l-.64.047a.321.321,0,0,0,.046.64l.64-.046a.321.321,0,0,0,.006-.639Zm-3.2.247h-.007a.322.322,0,0,0-.046,0c-.214.017-.428.036-.641.055a.321.321,0,1,0,.056.639l.636-.055a.321.321,0,0,0,0-.64Zm-3.189.295a.32.32,0,0,0-.064,0l-.276.028h0l-.362.039a.321.321,0,1,0,.067.638l.361-.037.275-.028a.321.321,0,0,0,.019-.636l-.019,0Zm-3.177.371a.321.321,0,0,0-.084,0c-.215.028-.428.06-.641.092a.321.321,0,0,0,.1.634q.315-.048.629-.09a.321.321,0,0,0,0-.637Zm-3.159.59H37.5a.321.321,0,0,0-.12.014,2.94,2.94,0,0,0-.664.271.321.321,0,0,0,.331.55,2.484,2.484,0,0,1,.524-.208.321.321,0,0,0-.063-.625ZM36.452,71.9h-.015a.321.321,0,0,0-.34.3c-.014.214-.027.429-.038.645a.321.321,0,1,0,.64.032c.011-.211.024-.423.038-.636a.321.321,0,0,0-.286-.34ZM36.326,75.1l-.025,0h-.008a.321.321,0,0,0-.328.313l-.012.574h0v.067a.321.321,0,1,0,.642.012V76l.012-.574a.321.321,0,0,0-.28-.326ZM80.687,91.346a.321.321,0,0,0-.3.137,4.285,4.285,0,0,1-.37.467.321.321,0,0,0,.474.434,4.951,4.951,0,0,0,.426-.538.321.321,0,0,0-.225-.5Zm-2.538,1.88a.32.32,0,0,0-.138.016c-.185.064-.384.115-.59.166a.321.321,0,0,0,.154.624c.209-.052.426-.108.645-.183a.32.32,0,0,0-.052-.619l-.019,0Zm-3.131.689H75.01a.32.32,0,0,0-.083,0l-.39.071-.241.043a.321.321,0,0,0,.112.632l.241-.043h0l.391-.072a.32.32,0,0,0-.024-.634ZM36.328,89.79a.32.32,0,0,0-.361.324c0,.219.012.436.022.651a.321.321,0,1,0,.641-.03c-.01-.212-.018-.423-.021-.632a.321.321,0,0,0-.281-.312Zm35.535,4.669h-.009a.321.321,0,0,0-.083,0l-.22.035-.412.067a.321.321,0,1,0,.1.633l.413-.067h0l.219-.037a.321.321,0,0,0-.012-.635Zm-3.175.5a.32.32,0,0,0-.083,0l-.626.1-.007,0a.321.321,0,1,0,.1.634h.008l.628-.1a.321.321,0,0,0-.015-.637Zm-3.17.475a.321.321,0,0,0-.082,0l-.618.091-.015,0a.321.321,0,0,0,.09.636l.017,0h0l.618-.091a.321.321,0,0,0-.01-.636Zm-3.174.453a.321.321,0,0,0-.083,0l-.636.089a.321.321,0,0,0,.089.636l.636-.089a.321.321,0,0,0-.006-.636Zm-25.769-2.9a.32.32,0,0,0-.357.363l.037.27v0l.057.364a.321.321,0,1,0,.634-.1l-.055-.362-.037-.267a.321.321,0,0,0-.278-.275Zm22.592,3.334a.321.321,0,0,0-.083,0l-.636.085a.321.321,0,0,0,.085.636l.636-.085a.321.321,0,0,0,0-.636Zm-3.179.415a.321.321,0,0,0-.083,0l-.637.08a.321.321,0,1,0,.081.637l.636-.081a.32.32,0,0,0,0-.636Zm-3.2.393a.322.322,0,0,0-.064,0l-.544.065-.093.011a.321.321,0,1,0,.075.638l.094-.011.544-.065a.321.321,0,0,0,.007-.636l-.019,0ZM49.6,97.5a.321.321,0,0,0-.063,0l-.526.058-.111.011a.321.321,0,0,0,.068.638l.112-.012h0l.525-.059a.32.32,0,0,0,.013-.635l-.019,0ZM37.286,96.114a.322.322,0,0,0-.352.426c.075.208.158.416.256.621a.321.321,0,0,0,.581-.275c-.086-.181-.162-.371-.232-.565a.321.321,0,0,0-.253-.207Zm9.132,1.719a.321.321,0,0,0-.063,0l-.245.024-.393.037a.321.321,0,0,0,.061.639l.394-.037h0l.244-.025a.321.321,0,0,0,.02-.636l-.019,0Zm-3.2.279H43.21a.321.321,0,0,0-.045,0l-.184.015-.454.031a.321.321,0,0,0,.045.64l.454-.031h0l.185-.013a.322.322,0,0,0,.006-.641Zm-3.188.151a.318.318,0,0,0-.044,0c-.21,0-.418-.006-.62-.021a.321.321,0,0,0-.046.64c.224.016.446.021.663.022a.321.321,0,0,0,.047-.639Z" transform="translate(-26.876 -32.987)" fill="#fff"/><path d="M113.028,75.261s.27,10.755.046,15.222,1.236-.88,1.556-5.421-1.327-13.311-1.6-9.8Z" transform="translate(-60.548 -37.614)" fill="#ac5c16"/><path d="M36.178,99.539c-.174.652-1.424,1.113-2.792,1.03s-2.334-.679-2.16-1.331,1.424-1.113,2.792-1.03S36.352,98.887,36.178,99.539Z" transform="translate(-24.804 -48.029)" fill="#fff"/><path d="M84.7,98.8s5.591-.506,8.786-.879,3.354-.213,3.887,2.716-.269,4.293-2.5,4.952c-2.686.793-9.265,1.89-10.276.506S82.834,98.911,84.7,98.8Z" transform="translate(-47.674 -48.162)" fill="#fff"/><path d="M87.1,102.151s10.489-1.6,9.424-.825-7.96,1.544-9.291,1.651S86.139,102.417,87.1,102.151Z" transform="translate(-48.875 -49.326)" fill="#f58b26"/><path d="M88.279,107.808s5.138-.905,4.073-.133a7.854,7.854,0,0,1-3.94.958C87.081,108.74,87.321,108.075,88.279,107.808Z" transform="translate(-49.391 -52.347)" fill="#f58b26"/></g></g></g></g></svg>