<svg width="83" height="90" viewBox="0 0 83 90" fill="none" xmlns="http://www.w3.org/2000/svg">
<mask id="mask0_835_5048" style="mask-type:luminance" maskUnits="userSpaceOnUse" x="0" y="60" width="83" height="30">
<path fill-rule="evenodd" clip-rule="evenodd" d="M29.5995 60.4263C29.5203 60.968 29.4805 61.5148 29.4805 62.0623C29.5065 63.6119 29.8376 65.1413 30.4548 66.563C31.072 67.9847 31.9632 69.2709 33.0775 70.3481C34.1919 71.4253 35.5075 72.2724 36.9493 72.841C38.3911 73.4097 39.9308 73.6888 41.4805 73.6623C43.0301 73.6888 44.5698 73.4097 46.0116 72.841C47.4534 72.2724 48.769 71.4253 49.8834 70.3481C50.9977 69.2709 51.889 67.9847 52.5062 66.563C53.1234 65.1413 53.4544 63.6119 53.4805 62.0623C53.4805 61.5148 53.4407 60.968 53.3615 60.4263H82.4805V86.2193C82.4671 87.0016 82.1435 87.7466 81.5809 88.2904C81.0183 88.8342 80.2628 89.1324 79.4805 89.1193H3.48047C2.69812 89.1324 1.9426 88.8342 1.38002 88.2904C0.817448 87.7466 0.493882 87.0016 0.480469 86.2193V60.4263H29.5995Z" fill="white"/>
</mask>
<g mask="url(#mask0_835_5048)">
<path d="M-4.51953 55.5942H87.4805V93.9502H-4.51953V55.5942Z" fill="white"/>
</g>
<mask id="mask1_835_5048" style="mask-type:luminance" maskUnits="userSpaceOnUse" x="0" y="29" width="83" height="45">
<path fill-rule="evenodd" clip-rule="evenodd" d="M54.4805 60.1191C54.4805 63.567 53.1108 66.8736 50.6729 69.3115C48.2349 71.7495 44.9283 73.1191 41.4805 73.1191C38.0327 73.1191 34.7261 71.7495 32.2881 69.3115C29.8501 66.8736 28.4805 63.567 28.4805 60.1191C28.4805 59.8865 28.4865 59.6555 28.4985 59.4261H0.480469L10.0405 31.1581C10.2414 30.5641 10.6233 30.0479 11.1327 29.6822C11.6422 29.3164 12.2534 29.1195 12.8805 29.1191H70.0805C70.7079 29.1191 71.3196 29.3158 71.8294 29.6816C72.3392 30.0474 72.7215 30.5638 72.9225 31.1581L82.4805 59.4261H54.4625C54.4745 59.6555 54.4805 59.8865 54.4805 60.1191Z" fill="white"/>
</mask>
<g mask="url(#mask1_835_5048)">
<path d="M-4.51953 24.1191H87.4805V78.1191H-4.51953V24.1191Z" fill="white"/>
</g>
<mask id="mask2_835_5048" style="mask-type:luminance" maskUnits="userSpaceOnUse" x="9" y="38" width="65" height="35">
<path fill-rule="evenodd" clip-rule="evenodd" d="M52.5805 61.074C52.4806 63.981 51.2774 66.7408 49.2155 68.7925C47.1537 70.8441 44.3879 72.0336 41.4805 72.119C38.573 72.0336 35.8073 70.8441 33.7454 68.7925C31.6836 66.7408 30.4804 63.981 30.3805 61.074C30.3805 60.894 30.3855 59.716 30.3965 59.538H9.48047L17.6415 39.695C17.8391 39.2179 18.1767 38.8118 18.6098 38.5304C19.0429 38.2491 19.5512 38.1056 20.0675 38.119H62.8925C63.4087 38.1055 63.9168 38.2488 64.3499 38.53C64.783 38.8112 65.1207 39.217 65.3185 39.694L73.4805 59.538H52.5625C52.5725 59.719 52.5805 60.894 52.5805 61.074Z" fill="white"/>
</mask>
<g mask="url(#mask2_835_5048)">
<path d="M4.48047 33.1191H78.4805V77.1191H4.48047V33.1191Z" fill="#E5E5E5"/>
</g>
<mask id="mask3_835_5048" style="mask-type:luminance" maskUnits="userSpaceOnUse" x="0" y="29" width="83" height="61">
<path fill-rule="evenodd" clip-rule="evenodd" d="M12.8805 29.1191H70.0805C70.7079 29.1191 71.3196 29.3158 71.8294 29.6816C72.3392 30.0474 72.7215 30.5638 72.9225 31.1581L82.4805 59.4261V86.1191C82.4805 86.9148 82.1644 87.6778 81.6018 88.2405C81.0392 88.8031 80.2761 89.1191 79.4805 89.1191H3.48047C2.68482 89.1191 1.92176 88.8031 1.35915 88.2405C0.796541 87.6778 0.480469 86.9148 0.480469 86.1191V59.4261L10.0405 31.1581C10.2414 30.5641 10.6233 30.0479 11.1327 29.6822C11.6422 29.3164 12.2534 29.1195 12.8805 29.1191Z" fill="white"/>
</mask>
<g mask="url(#mask3_835_5048)">
<mask id="mask4_835_5048" style="mask-type:luminance" maskUnits="userSpaceOnUse" x="-5" y="24" width="93" height="72">
<path d="M87.4805 24.1191H-4.51953V95.1191H87.4805V24.1191Z" fill="white"/>
</mask>
<g mask="url(#mask4_835_5048)">
<mask id="mask5_835_5048" style="mask-type:luminance" maskUnits="userSpaceOnUse" x="0" y="29" width="83" height="61">
<path d="M0.480469 89.1191H82.4805V29.1191H0.480469V89.1191Z" fill="white"/>
</mask>
<g mask="url(#mask5_835_5048)">
<path d="M12.8805 29.1191H70.0805C70.7076 29.1195 71.3188 29.3164 71.8282 29.6822C72.3376 30.0479 72.7196 30.5641 72.9205 31.1581L82.4805 59.4261V86.1191C82.4805 86.9148 82.1644 87.6779 81.6018 88.2405C81.0392 88.8031 80.2761 89.1191 79.4805 89.1191H3.48047C2.68482 89.1191 1.92176 88.8031 1.35915 88.2405C0.796539 87.6779 0.480469 86.9148 0.480469 86.1191L0.480469 59.4261L10.0405 31.1581C10.2414 30.5641 10.6233 30.0479 11.1327 29.6822C11.6422 29.3164 12.2534 29.1195 12.8805 29.1191Z" stroke="#D5D5D5" stroke-width="5" stroke-linejoin="round"/>
</g>
</g>
</g>
<path d="M14.4805 59.1191H27.2255C29.1015 59.1191 29.1015 60.4381 29.1015 61.1191C29.1663 64.3322 30.4882 67.3917 32.7834 69.6411C35.0787 71.8905 38.1643 73.1504 41.378 73.1504C44.5917 73.1504 47.6773 71.8905 49.9725 69.6411C52.2677 67.3917 53.5896 64.3322 53.6545 61.1191C53.6545 60.4381 53.6545 59.1191 55.5305 59.1191H80.4805" stroke="#D5D5D5" stroke-width="2.5" stroke-linecap="round" stroke-linejoin="round"/>
<path d="M40.5805 2.11914V18.8751M14.4805 6.41914L25.5805 18.8751M66.5805 6.41914L55.4805 18.8751" stroke="#D5D5D5" stroke-width="2.5" stroke-linecap="round" stroke-linejoin="round"/>
</svg>
