<svg width="120" height="120" viewBox="0 0 120 120" fill="none" xmlns="http://www.w3.org/2000/svg">
<mask id="mask0_2364_5438" style="mask-type:luminance" maskUnits="userSpaceOnUse" x="0" y="0" width="120" height="120">
<path d="M0 7.62939e-06H120V120H0V7.62939e-06Z" fill="white"/>
</mask>
<g mask="url(#mask0_2364_5438)">
<path d="M0.891846 18.9033C0.891846 8.37076 9.50606 -0.149937 20.0736 0.00217056C30.3099 0.149357 38.6333 8.5442 38.6982 18.7812C38.7343 24.514 36.2175 29.6595 32.2186 33.1496C31.7965 33.5178 31.8575 34.19 32.3396 34.4752L35.9014 36.5827C36.4772 36.9235 36.2356 37.8062 35.5665 37.8062L19.4372 37.8022C9.16247 37.6112 0.891846 29.2236 0.891846 18.9033Z" fill="#7ACAA6"/>
<path d="M35.9015 36.5827L32.3397 34.4752C31.8601 34.1916 31.7936 33.5204 32.2133 33.1543C36.2579 29.6269 38.7878 24.4069 38.6961 18.5977C38.5372 8.54936 30.4044 0.300999 20.3591 0.00826645C18.9343 -0.0332184 17.5445 0.0832634 16.2043 0.341076C24.8875 2.00537 31.5046 9.65912 31.5622 18.7812C31.5901 23.199 30.1023 27.2677 27.5882 30.499C26.0701 32.4504 26.5635 35.2796 28.6911 36.5387L28.7657 36.5827C29.3352 36.9195 29.1041 37.7855 28.4518 37.8043L35.5665 37.8062C36.2357 37.8062 36.4773 36.9235 35.9015 36.5827Z" fill="#57BE92"/>
<path d="M92.9981 68.6143H50.1154C39.405 68.6143 33.5439 56.1324 40.3846 47.8911L40.765 47.4326C43.7786 43.8017 45.4282 39.2318 45.4282 34.5132V26.2437C45.4282 11.7495 57.1778 -0.000190735 71.6721 -0.000190735C86.1663 -0.000190735 97.916 11.7495 97.916 26.2437V34.7923C97.916 39.5602 99.6002 44.175 102.671 47.8219C109.597 56.0466 103.751 68.6143 92.9981 68.6143Z" fill="#C59191"/>
<path d="M115.54 89.8663V118.216H27.5745V90.0796C27.5745 83.7093 31.3922 77.9601 37.2612 75.4897L51.462 69.3163L56.243 67.2374C59.8711 65.6601 62.2172 62.0812 62.2172 58.1249V56.2897H80.8948V58.0312C80.8948 62.0038 83.2641 65.5968 86.918 67.1624L106.125 75.396C111.848 77.9319 115.54 83.6038 115.54 89.8663Z" fill="white"/>
<path d="M51.4606 76.0757C56.3073 77.5239 63.4409 79.0685 72.1365 78.9164C80.2953 78.7739 86.9928 77.1874 91.6529 75.6991L93.9685 70.185L86.9169 67.1627C83.2639 65.5971 80.8955 62.0048 80.8955 58.0305V56.2905H62.218V58.1252C62.218 62.0807 59.8719 65.6596 56.244 67.2368L50.533 69.72L51.4606 76.0757Z" fill="#FFCEBF"/>
<path d="M106.124 75.3948L91.6559 69.1935L91.6533 69.1937V118.216H115.54V89.8663C115.54 83.6047 111.849 77.9314 106.124 75.3948Z" fill="#8795DE"/>
<path d="M51.4617 69.3163V118.216H27.5742V90.0796C27.5742 83.7093 31.392 77.9601 37.2609 75.4897L51.4617 69.3163Z" fill="#8795DE"/>
<path d="M78.031 66.542C80.1797 66.542 82.2272 66.1105 84.0938 65.3319C82.0917 63.4839 80.8955 60.8542 80.8955 58.0307V56.2907H62.2179V58.1254C62.2179 59.5543 61.9104 60.9334 61.3481 62.1875C64.1763 64.8836 68.0025 66.542 72.2182 66.542H78.031Z" fill="#FFB09E"/>
<path d="M90.2244 28.1936V43.6447C90.2244 52.3492 83.1681 59.4058 74.4634 59.4058H68.6507C59.9462 59.4058 52.8896 52.3492 52.8896 43.6447V28.1936C52.8896 22.5308 57.4801 17.9401 63.1429 17.9401H79.971C85.6337 17.9401 90.2244 22.5308 90.2244 28.1936Z" fill="#FFCEBF"/>
<path d="M90.2244 36.2327C90.2174 36.254 90.2089 36.2747 90.2024 36.2965C89.6326 38.264 88.1375 41.9808 84.5239 44.7672C82.8411 46.0647 80.922 47.0025 78.8195 47.5542C77.8663 47.8043 77.2967 48.7795 77.5466 49.7325C77.757 50.5336 78.4799 51.064 79.2711 51.064C79.4209 51.064 79.5735 51.045 79.7249 51.0051C82.292 50.3315 84.6395 49.1833 86.7027 47.5926C88.1274 46.4941 89.2806 45.2805 90.2138 44.0601C90.2176 43.9219 90.2244 43.7843 90.2244 43.6451V36.2327Z" fill="#7A6D79"/>
<path d="M76.8629 52.4858H72.6824C70.7795 52.4858 69.2368 50.9432 69.2368 49.0403C69.2368 47.1376 70.7795 45.595 72.6824 45.595H76.8629C78.7658 45.595 80.3085 47.1376 80.3085 49.0403C80.3085 50.9432 78.7658 52.4858 76.8629 52.4858Z" fill="#685E68"/>
<path d="M75.2814 13.8507C75.6817 8.8023 80.515 5.45191 85.1406 3.7166C92.793 8.30191 97.9159 16.674 97.9159 26.2438V28.048C97.4929 28.1368 97.072 28.2146 96.6557 28.2765C94.1074 28.6571 91.937 28.4926 90.4546 28.2765C80.901 27.0039 74.7979 19.948 75.2814 13.8507Z" fill="#B98080"/>
<path d="M71.6721 0.00021553C77.599 0.00021553 83.0665 1.96568 87.4596 5.27951C85.2682 9.09303 80.2357 16.6329 70.7988 22.2147C63.7936 26.3587 57.188 27.7512 53.1199 28.2769H45.4282V26.2441C45.4282 11.7499 57.1779 0.00021553 71.6721 0.00021553Z" fill="#C59191"/>
<path d="M101.009 118.216H43.9024L40.7527 88.5032C40.5293 86.3957 42.1814 84.5591 44.3006 84.5591H100.611C102.73 84.5591 104.382 86.3957 104.159 88.5032L101.009 118.216Z" fill="#EFEDEF"/>
<path d="M100.611 84.5591H93.4749C95.5943 84.5591 97.2464 86.3957 97.0228 88.5032L93.8731 118.216H101.009L104.159 88.5032C104.382 86.3957 102.73 84.5591 100.611 84.5591Z" fill="#E5E1E5"/>
<path d="M118.242 120H1.75781C0.786797 120 0 119.213 0 118.242C0 117.271 0.786797 116.484 1.75781 116.484H118.242C119.213 116.484 120 117.271 120 118.242C120 119.213 119.213 120 118.242 120Z" fill="#C9BFC8"/>
<path d="M77.4507 101.387C77.4507 104.146 75.2143 106.382 72.4557 106.382C69.6971 106.382 67.4607 104.146 67.4607 101.387C67.4607 98.6285 69.6971 96.3923 72.4557 96.3923C75.2143 96.3923 77.4507 98.6285 77.4507 101.387Z" fill="#C9BFC8"/>
<path d="M14.4434 18.9032C14.4434 19.8885 13.6449 20.687 12.6596 20.687C11.6742 20.687 10.8755 19.8885 10.8755 18.9032C10.8755 17.9179 11.6742 17.1191 12.6596 17.1191C13.6449 17.1191 14.4434 17.9179 14.4434 18.9032Z" fill="white"/>
<path d="M21.5791 18.9032C21.5791 19.8885 20.7804 20.687 19.7953 20.687C18.81 20.687 18.0112 19.8885 18.0112 18.9032C18.0112 17.9179 18.81 17.1191 19.7953 17.1191C20.7804 17.1191 21.5791 17.9179 21.5791 18.9032Z" fill="white"/>
<path d="M28.7151 18.9032C28.7151 19.8885 27.9163 20.687 26.931 20.687C25.946 20.687 25.147 19.8885 25.147 18.9032C25.147 17.9179 25.946 17.1191 26.931 17.1191C27.9163 17.1191 28.7151 17.9179 28.7151 18.9032Z" fill="white"/>
</g>
</svg>
