<svg width="72" height="71" viewBox="0 0 72 71" fill="none" xmlns="http://www.w3.org/2000/svg">
<path d="M63.0483 68.8691H8.82284C4.91209 68.8691 1.73047 65.8411 1.73047 62.1191V24.1191C1.73047 20.3972 4.91209 17.3691 8.82284 17.3691H63.0483C66.959 17.3691 70.1406 20.3972 70.1406 24.1191V62.1191C70.1406 65.8411 66.959 68.8691 63.0483 68.8691Z" fill="white"/>
<path d="M8.82283 18.6191C5.60135 18.6191 2.98047 21.0864 2.98047 24.1191V62.1191C2.98047 65.1519 5.60135 67.6191 8.82283 67.6191H63.0482C66.2697 67.6191 68.8906 65.1519 68.8906 62.1191V24.1191C68.8906 21.0864 66.2697 18.6191 63.0482 18.6191H8.82283ZM8.82283 16.1191H63.0482C67.6556 16.1191 71.3906 19.7009 71.3906 24.1191V62.1191C71.3906 66.5374 67.6556 70.1191 63.0482 70.1191H8.82283C4.21548 70.1191 0.480469 66.5374 0.480469 62.1191V24.1191C0.480469 19.7009 4.21548 16.1191 8.82283 16.1191Z" fill="#AAAAAA"/>
<mask id="mask0_835_4964" style="mask-type:luminance" maskUnits="userSpaceOnUse" x="0" y="16" width="71" height="55">
<path d="M62.4805 16.1191H8.48047C4.06219 16.1191 0.480469 19.7009 0.480469 24.1191V62.1191C0.480469 66.5374 4.06219 70.1191 8.48047 70.1191H62.4805C66.8988 70.1191 70.4805 66.5374 70.4805 62.1191V24.1191C70.4805 19.7009 66.8988 16.1191 62.4805 16.1191Z" fill="white"/>
</mask>
<g mask="url(#mask0_835_4964)">
<path d="M76.4633 0.892409C76.4092 0.838245 76.3537 0.783974 76.2982 0.730689L43.854 -30.382C39.5225 -34.5357 32.4746 -34.5357 28.1431 -30.382L-4.3011 0.73069C-6.33627 2.68234 -7.47292 5.26875 -7.50168 8.01349C-7.53118 10.8299 -6.39406 13.4996 -4.30111 15.5067L28.1431 46.6194C32.4746 50.7731 39.5225 50.7731 43.854 46.6194L76.2982 15.5067C78.3334 13.555 79.47 10.9686 79.4988 8.22386C79.5275 5.48224 78.4495 2.87855 76.4633 0.892409ZM78.2311 -0.87535C83.322 4.2156 83.2544 12.2996 78.0285 17.3111L45.5843 48.4238C40.2902 53.5006 31.7068 53.5006 26.4128 48.4238L-6.03146 17.3111C-11.3258 12.2339 -11.3255 4.0031 -6.03146 -1.07371L26.4128 -32.1864C31.7068 -37.2632 40.2902 -37.2632 45.5843 -32.1864L78.0285 -1.07371C78.0967 -1.00833 78.1647 -0.941768 78.2311 -0.87535Z" fill="#AAAAAA"/>
</g>
<path d="M35.6536 33.6582C34.9767 33.6702 34.3199 33.4275 33.8136 32.9782C33.5637 32.7458 33.3691 32.4603 33.2441 32.1427C33.1192 31.8251 33.067 31.4836 33.0916 31.1432C33.0808 30.8133 33.1404 30.485 33.2665 30.1799C33.3925 29.8749 33.5821 29.6002 33.8226 29.3742C34.0631 29.1359 34.3494 28.949 34.6644 28.8247C34.9793 28.7004 35.3161 28.6414 35.6546 28.6512C35.9837 28.6444 36.3109 28.7042 36.6163 28.827C36.9218 28.9498 37.1993 29.1331 37.4322 29.3659C37.665 29.5986 37.8484 29.876 37.9714 30.1815C38.0943 30.4869 38.1542 30.814 38.1476 31.1432C38.1706 31.4826 38.118 31.8228 37.9937 32.1394C37.8693 32.4561 37.6763 32.7411 37.4286 32.9742C36.946 33.4206 36.3109 33.6654 35.6536 33.6582ZM35.3966 24.5182C35.1467 24.5282 34.8974 24.4874 34.6638 24.3982C34.4302 24.309 34.2171 24.1732 34.0376 23.9992C33.8444 23.7741 33.6985 23.5125 33.6084 23.2299C33.5184 22.9473 33.4862 22.6495 33.5136 22.3542C33.4881 21.3223 33.6683 20.2957 34.0436 19.3342C34.3868 18.5094 34.871 17.7508 35.4746 17.0922C36.3125 16.2091 37.1942 15.3687 38.1166 14.5742C39.1406 13.6742 39.8656 13.0162 40.3336 12.5482C40.8411 12.0413 41.2759 11.4665 41.6256 10.8402C42.012 10.147 42.2129 9.36579 42.2086 8.57219C42.219 7.83716 42.0713 7.10848 41.7754 6.43557C41.4795 5.76266 41.0423 5.16127 40.4936 4.67219C39.3224 3.6209 37.7893 3.06459 36.2166 3.12019C35.3911 3.05921 34.562 3.17157 33.7825 3.45005C33.0031 3.72852 32.2905 4.16696 31.6906 4.73719C30.6412 5.95971 29.8636 7.39135 29.4096 8.93719L29.4006 8.96519C28.8836 10.6822 28.0256 10.9022 27.3356 10.9022C27.0556 10.9107 26.777 10.8594 26.5183 10.7518C26.2597 10.6442 26.0269 10.4828 25.8356 10.2782C25.6509 10.1129 25.501 9.91244 25.3947 9.68854C25.2884 9.46463 25.2279 9.22178 25.2166 8.97419C25.2578 7.55214 25.7009 6.17084 26.4946 4.99019C27.4433 3.53547 28.7524 2.35107 30.2946 1.55219C32.1206 0.600433 34.1579 0.126378 36.2166 0.174188C38.1355 0.135158 40.0385 0.529978 41.7836 1.32919C43.2468 1.99853 44.4982 3.05663 45.4016 4.38819C46.2267 5.60978 46.6638 7.05205 46.6556 8.52619C46.6805 9.57384 46.4437 10.6111 45.9666 11.5442C45.5073 12.4104 44.9204 13.2026 44.2256 13.8942C43.4956 14.6082 42.1626 15.8312 40.2616 17.5312L40.2546 17.5372C39.7776 17.9649 39.3245 18.4186 38.8976 18.8962C38.5661 19.2634 38.2804 19.6693 38.0466 20.1052C37.8647 20.4564 37.7183 20.8249 37.6096 21.2052C37.5196 21.5252 37.3886 22.0672 37.2096 22.8632L37.2016 22.9032C36.9916 24.0492 36.4686 24.5182 35.3966 24.5182Z" fill="#AAAAAA"/>
</svg>
