<svg width="26" height="25" viewBox="0 0 26 25" fill="none" xmlns="http://www.w3.org/2000/svg">
<path d="M2.25 10.25H23.75C24.5785 10.25 25.25 10.9215 25.25 11.75V22.75C25.25 23.5785 24.5785 24.25 23.75 24.25H2.25C1.4215 24.25 0.75 23.5785 0.75 22.75V11.75C0.75 10.9215 1.4215 10.25 2.25 10.25Z" fill="#1573FF"/>
<path d="M9.83347 11.7948C9.72147 12.3355 10.0692 12.8647 10.6102 12.9765C10.8477 13.0257 11.095 12.9868 11.306 12.8673L13.909 11.3915C14.062 11.3048 14.2492 11.3048 14.4022 11.3915L17.0052 12.8673C17.4857 13.1398 18.096 12.971 18.3685 12.4905C18.4882 12.2795 18.527 12.0323 18.4777 11.7948L18.1582 10.25H10.153L9.83347 11.7948Z" fill="#1855CA"/>
<path d="M13.5 14.2502H14C14.2763 14.2502 14.5 14.474 14.5 14.7502V20.2502C14.5 20.5265 14.2763 20.7502 14 20.7502H13.5C13.2237 20.7502 13 20.5265 13 20.2502V14.7502C13 14.474 13.2237 14.2502 13.5 14.2502Z" fill="#1855CA"/>
<path d="M18.6798 14.2502H16.75C16.4737 14.2502 16.25 14.474 16.25 14.7502V20.2502C16.25 20.5265 16.4737 20.7502 16.75 20.7502H17.25C17.5263 20.7502 17.75 20.5265 17.75 20.2502V18.7502H18.75C19.9933 18.75 21.001 17.742 21.0007 16.4985C21.0007 16.3872 20.9925 16.2762 20.976 16.1665C20.7887 15.0485 19.8135 14.2345 18.6798 14.2502ZM18.7132 17.2502H17.75V15.7502H18.75C19.1645 15.7505 19.5005 16.0865 19.5002 16.5012C19.5002 16.5477 19.496 16.5942 19.4872 16.6402C19.4085 17.0025 19.084 17.2582 18.7132 17.2502Z" fill="#1855CA"/>
<path d="M9.27734 20.4155L11.2023 14.9155C11.2936 14.6547 11.1563 14.3695 10.8956 14.2785C10.8426 14.2597 10.7866 14.2502 10.7303 14.2502H10.1998C9.98734 14.2502 9.79809 14.3845 9.72784 14.5852L8.40984 18.3552L7.09234 14.5852C7.02209 14.3845 6.83284 14.2502 6.62034 14.2502H6.08984C5.81359 14.2502 5.58984 14.474 5.58984 14.7502C5.58984 14.8065 5.59934 14.8622 5.61784 14.9155L7.54284 20.4155C7.61309 20.616 7.80234 20.7502 8.01484 20.7502H8.80534C9.01784 20.7502 9.20709 20.616 9.27734 20.4155Z" fill="#1855CA"/>
<path d="M13.25 14.0002H13.75C14.0263 14.0002 14.25 14.224 14.25 14.5002V20.0002C14.25 20.2765 14.0263 20.5002 13.75 20.5002H13.25C12.9737 20.5002 12.75 20.2765 12.75 20.0002V14.5002C12.75 14.224 12.9737 14.0002 13.25 14.0002Z" fill="#F0F5FC"/>
<path d="M18.4298 14.0002H16.5C16.2237 14.0002 16 14.224 16 14.5002V20.0002C16 20.2765 16.2237 20.5002 16.5 20.5002H17C17.2763 20.5002 17.5 20.2765 17.5 20.0002V18.5002H18.5C19.7433 18.5 20.751 17.492 20.7507 16.2485C20.7507 16.1372 20.7425 16.0262 20.726 15.9165C20.5387 14.7985 19.5635 13.9845 18.4298 14.0002ZM18.4632 17.0002H17.5V15.5002H18.5C18.9145 15.5005 19.2505 15.8365 19.2502 16.2512C19.2502 16.2977 19.246 16.3442 19.2372 16.39C19.1585 16.7525 18.834 17.0082 18.4632 17.0002Z" fill="#F0F5FC"/>
<path d="M9.02734 20.1655L10.9523 14.6655C11.0436 14.4047 10.9063 14.1195 10.6456 14.0285C10.5926 14.0097 10.5366 14.0002 10.4803 14.0002H9.94984C9.73734 14.0002 9.54809 14.1345 9.47784 14.3352L8.15984 18.1052L6.84234 14.3352C6.77209 14.1345 6.58284 14.0002 6.37034 14.0002H5.83984C5.56359 14.0002 5.33984 14.224 5.33984 14.5002C5.33984 14.5565 5.34934 14.6122 5.36784 14.6655L7.29284 20.1655C7.36309 20.366 7.55234 20.5002 7.76484 20.5002H8.55534C8.76784 20.5002 8.95709 20.366 9.02734 20.1655Z" fill="#F0F5FC"/>
<path d="M3.15826 6.45167L3.48376 7.16792C3.50651 7.21817 3.55401 7.25267 3.60901 7.25867L4.39226 7.34567C4.47826 7.35517 4.54001 7.43267 4.53051 7.51842C4.52626 7.55642 4.50851 7.59142 4.48026 7.61692L3.89851 8.14517C3.85751 8.18242 3.83926 8.23842 3.85051 8.29267L4.00951 9.06142C4.02701 9.14592 3.97251 9.22892 3.88801 9.24642C3.85076 9.25417 3.81226 9.24792 3.77926 9.22942L3.09326 8.84042C3.04551 8.81317 2.98676 8.81317 2.93901 8.84042L2.25276 9.22942C2.17751 9.27192 2.08201 9.24567 2.03951 9.17042C2.02076 9.13742 2.01476 9.09867 2.02251 9.06167L2.18151 8.29292C2.19276 8.23867 2.17451 8.18267 2.13351 8.14542L1.55176 7.61717C1.48776 7.55917 1.48301 7.46017 1.54126 7.39617C1.56676 7.36792 1.60201 7.35017 1.63976 7.34592L2.42301 7.25892C2.47776 7.25292 2.52526 7.21842 2.54826 7.16817L2.87376 6.45192C2.90951 6.37317 3.00226 6.33842 3.08076 6.37417C3.11501 6.38967 3.14251 6.41717 3.15826 6.45167Z" fill="#FFE161"/>
<path d="M23.1268 6.45167L23.4523 7.16792C23.475 7.21817 23.5225 7.25267 23.5775 7.25867L24.3608 7.34567C24.4468 7.35517 24.5085 7.43267 24.499 7.51842C24.4948 7.55642 24.477 7.59142 24.4488 7.61692L23.867 8.14517C23.826 8.18242 23.8078 8.23842 23.819 8.29267L23.978 9.06142C23.9955 9.14592 23.941 9.22892 23.8565 9.24642C23.8193 9.25417 23.7808 9.24792 23.7478 9.22942L23.0618 8.84042C23.014 8.81317 22.9553 8.81317 22.9075 8.84042L22.2215 9.22942C22.1463 9.27192 22.0508 9.24567 22.0083 9.17042C21.9895 9.13742 21.9835 9.09867 21.9913 9.06167L22.1503 8.29292C22.1615 8.23867 22.1433 8.18267 22.1023 8.14542L21.5205 7.61717C21.4565 7.55917 21.4518 7.46017 21.51 7.39617C21.5355 7.36792 21.5708 7.35017 21.6085 7.34592L22.3918 7.25892C22.4465 7.25292 22.494 7.21842 22.517 7.16817L22.8425 6.45192C22.8783 6.37317 22.971 6.33842 23.0495 6.37417C23.0833 6.38967 23.111 6.41717 23.1268 6.45167Z" fill="#FFE161"/>
<path d="M13.9103 0.782858L15.1453 3.50086C15.2183 3.66136 15.3703 3.77136 15.5453 3.79086L18.5143 4.12036C19.0633 4.18136 19.4588 4.67561 19.3978 5.22461C19.3711 5.46661 19.2566 5.69061 19.0763 5.85461L16.9578 7.77911C16.7741 7.94586 16.6923 8.19736 16.7426 8.44036L17.3221 11.2421C17.4341 11.7829 17.0863 12.3121 16.5453 12.4239C16.3078 12.4731 16.0606 12.4341 15.8496 12.3146L13.2466 10.8386C13.0936 10.7519 12.9063 10.7519 12.7533 10.8386L10.1503 12.3144C9.66983 12.5869 9.05958 12.4181 8.78708 11.9376C8.66733 11.7266 8.62858 11.4794 8.67783 11.2419L9.28058 8.32761C9.31633 8.15436 9.25808 7.97511 9.12708 7.85636L6.92333 5.85461C6.51458 5.48336 6.48408 4.85086 6.85558 4.44211C7.01933 4.26186 7.24333 4.14736 7.48558 4.12061L10.4546 3.79111C10.6296 3.77161 10.7816 3.66161 10.8546 3.50111L12.0896 0.783108C12.3181 0.280358 12.9108 0.0578578 13.4136 0.286358C13.6336 0.386108 13.8101 0.562608 13.9103 0.782858Z" fill="#FFE161"/>
<path d="M25.25 22.7501V11.7501C25.25 11.4896 25.1818 11.2333 25.052 11.0073C24.1808 13.9213 20.0315 24.2501 5 24.2501H23.75C24.5785 24.2501 25.25 23.5786 25.25 22.7501Z" fill="#1855CA"/>
<path d="M13.2469 10.8386L15.8499 12.3143C16.3304 12.5868 16.9407 12.4181 17.2132 11.9376C17.3329 11.7266 17.3717 11.4793 17.3224 11.2418L16.7429 8.44007C16.6927 8.19707 16.7744 7.94557 16.9582 7.77882L19.0767 5.85432C19.4862 5.48182 19.5164 4.84807 19.1439 4.43857C19.0842 4.37307 19.0162 4.31557 18.9414 4.26782C17.8139 6.06132 14.8307 9.71407 8.7242 11.0196L8.6782 11.2418C8.5662 11.7826 8.91395 12.3118 9.45495 12.4236C9.69245 12.4728 9.9397 12.4338 10.1507 12.3143L12.7537 10.8386C12.9064 10.7518 13.0939 10.7518 13.2469 10.8386Z" fill="#FBBC05"/>
<path d="M23.9776 9.06155L23.8186 8.2928C23.8073 8.23855 23.8256 8.18255 23.8666 8.1453L24.4483 7.61705C24.5123 7.55905 24.5171 7.46005 24.4588 7.39605C24.4331 7.3678 24.3981 7.35005 24.3603 7.3458L24.3218 7.34155C23.7343 8.3088 22.6656 8.72505 22.0248 8.89355L21.9901 9.06155C21.9726 9.14605 22.0268 9.2288 22.1116 9.24655C22.1488 9.2543 22.1873 9.24805 22.2206 9.22955L22.9068 8.84055C22.9546 8.8133 23.0133 8.8133 23.0611 8.84055L23.7473 9.22955C23.8226 9.27205 23.9181 9.2458 23.9606 9.17055C23.9793 9.1373 23.9853 9.09855 23.9776 9.06155Z" fill="#FBBC05"/>
<path d="M4.00934 9.06155L3.85034 8.2928C3.83909 8.23855 3.85734 8.18255 3.89834 8.1453L4.48008 7.61705C4.54408 7.55905 4.54883 7.46005 4.49058 7.39605C4.46483 7.3678 4.42984 7.35005 4.39209 7.3458L4.35359 7.34155C3.76609 8.3088 2.69733 8.72505 2.05658 8.89355L2.02183 9.06155C2.00433 9.14605 2.05858 9.2288 2.14333 9.24655C2.18058 9.2543 2.21909 9.24805 2.25234 9.22955L2.93858 8.84055C2.98633 8.8133 3.04509 8.8133 3.09284 8.84055L3.77909 9.22955C3.85434 9.27205 3.94983 9.2458 3.99233 9.17055C4.01083 9.1373 4.01709 9.09855 4.00934 9.06155Z" fill="#FBBC05"/>
</svg>
