<svg width="36" height="47" viewBox="0 0 36 47" fill="none" xmlns="http://www.w3.org/2000/svg">
<g clip-path="url(#clip0_3036_80698)">
<path d="M28.4607 16.7675L28.1278 16.8952C27.0765 14.6435 23.1752 14.597 21.7619 14.6609C20.5296 12.4787 16.9904 12.5252 15.9216 12.589V5.17212C15.9216 0.674397 9.655 0.674397 9.655 5.17212V25.6991C9.655 23.7608 8.53951 22.9483 6.93927 21.5438C3.03797 18.1256 -0.693959 22.5711 2.44811 25.6991C9.45643 32.6634 11.7458 38.8499 11.7458 45.4311H30.5515C30.5515 45.4311 30.8201 41.6936 32.2218 38.2115C33.7052 34.5437 34.7273 29.2277 34.7273 25.142V20.5746C34.7273 16.0073 28.4607 16.7675 28.4607 16.7675Z" fill="white"/>
<path d="M34.3228 17.1624C32.5123 15.5722 29.563 15.6419 28.6286 15.7115C28.4592 15.4852 28.2723 15.2762 28.0504 15.0847C26.2399 13.4888 23.2906 13.5642 22.3561 13.6339C22.1867 13.4075 21.9998 13.1986 21.7779 13.0071C20.3646 11.7651 18.2679 11.5388 16.9655 11.5272V5.17233C16.9655 2.27638 14.863 0.755859 12.7839 0.755859C10.7048 0.755859 8.60228 2.27058 8.60228 5.17233V21.8342C8.30442 21.4396 7.97737 21.0798 7.62111 20.7664C5.12732 18.5843 2.58096 19.0834 1.2669 20.4704C-0.0763612 21.8864 -0.356694 24.3936 1.69324 26.4364C7.91312 32.6171 10.6873 38.4787 10.6873 45.4313V46.4701H31.5136L31.5837 45.5009C31.5837 45.4661 31.8524 41.8854 33.184 38.6006C34.7258 34.7761 35.7654 29.373 35.7654 25.1364V20.5749C35.7654 19.1762 35.2631 17.9981 34.3111 17.1624H34.3228ZM33.6862 25.1422C33.6862 29.0654 32.6875 34.2828 31.2508 37.8229C30.2229 40.3648 29.7791 43.0054 29.6097 44.3867H12.7722C12.5094 37.289 9.52504 31.2591 3.18835 24.9623C2.02614 23.8016 2.17214 22.5597 2.80289 21.8923C3.42196 21.2365 4.6893 20.9579 6.24865 22.3217C7.63863 23.5405 8.60812 25.7574 8.60812 27.3592H10.6989V5.17233C10.6989 3.55896 11.7502 2.83352 12.7897 2.83352C13.8293 2.83352 14.8806 3.55896 14.8806 5.17233V21.544H16.9714V13.6048C18.0343 13.6164 19.5411 13.8022 20.4055 14.5682C20.9077 15.0093 21.153 15.6187 21.153 16.4195V21.5092H23.2438V16.4195C23.2438 16.1642 23.2205 15.9204 23.1854 15.6767C24.2484 15.6767 25.796 15.8624 26.6721 16.6401C27.1743 17.0811 27.4196 17.6905 27.4196 18.4972V23.5869H29.5104V18.4972C29.5104 18.2418 29.4871 17.9923 29.452 17.7543C30.5091 17.7543 32.051 17.9401 32.9387 18.7177C33.4409 19.1588 33.6862 19.7682 33.6862 20.5749V25.1422Z" fill="black"/>
</g>
<defs>
<clipPath id="clip0_3036_80698">
<rect width="35.5556" height="45.7143" fill="white" transform="translate(0.222656 0.755859)"/>
</clipPath>
</defs>
</svg>
