<svg xmlns="http://www.w3.org/2000/svg" width="120" height="120" viewBox="0 0 120 120"><g transform="translate(-6461 -976)"><rect width="120" height="120" transform="translate(6461 976)" fill="none"/><g transform="translate(6480.762 993.513)"><ellipse cx="40.238" cy="40.238" rx="40.238" ry="40.238" transform="translate(0 4.498)" fill="#009962"/><ellipse cx="40.238" cy="40.238" rx="40.238" ry="40.238" transform="translate(0 0)" fill="#32ba7c"/><path d="M142.451,128.443,116.3,157.113a4.3,4.3,0,0,1-6.539,0L98.692,144.79a4.449,4.449,0,1,1,6.539-6.036l7.8,8.8,22.885-24.9a4.41,4.41,0,0,1,6.287-.251A4.336,4.336,0,0,1,142.451,128.443Z" transform="translate(-80.333 -99.774)" fill="#fff"/></g></g></svg>