<svg width="32" height="32" viewBox="0 0 32 32" fill="none" xmlns="http://www.w3.org/2000/svg">
<path d="M16.3333 3C8.98089 3 3 8.98089 3 16.3333C3 23.6858 8.98089 29.6667 16.3333 29.6667C23.6858 29.6667 29.6667 23.6847 29.6667 16.3333C29.6667 8.98193 23.6858 3 16.3333 3ZM16.3333 27.6011C10.1211 27.6011 5.06557 22.5466 5.06557 16.3333C5.06557 10.1201 10.1211 5.06557 16.3333 5.06557C22.5456 5.06557 27.6011 10.1201 27.6011 16.3333C27.6011 22.5466 22.5466 27.6011 16.3333 27.6011Z" fill="#FFFFFF"/>
<path d="M21.4965 15.2077H17.3653V11.0765C17.3653 10.5064 16.9037 10.0437 16.3325 10.0437C15.7614 10.0437 15.2997 10.5064 15.2997 11.0765V15.2077H11.1686C10.5974 15.2077 10.1357 15.6704 10.1357 16.2405C10.1357 16.8106 10.5974 17.2733 11.1686 17.2733H15.2997V21.4044C15.2997 21.9745 15.7614 22.4372 16.3325 22.4372C16.9037 22.4372 17.3653 21.9745 17.3653 21.4044V17.2733H21.4965C22.0676 17.2733 22.5293 16.8106 22.5293 16.2405C22.5293 15.6704 22.0676 15.2077 21.4965 15.2077Z" fill="#FFFFFF"/>
</svg>
