<svg xmlns="http://www.w3.org/2000/svg" xmlns:xlink="http://www.w3.org/1999/xlink" width="60" height="49" viewBox="0 0 60 49"><defs><clipPath id="a"><rect width="60" height="49" transform="translate(503 482)" fill="none" stroke="#707070" stroke-width="1"/></clipPath><clipPath id="b"><rect width="59" height="48" transform="translate(0.155 -0.059)" fill="none" stroke="#707070" stroke-width="1"/></clipPath><clipPath id="c"><path d="M8.421.631,31.654,0c4.388-.119,7.849,3.758,7.73,8.659l-.258,10.667c-.119,4.9-3.772,8.97-8.16,9.089l-23.233.629C3.345,29.164-.116,25.288,0,20.387L.261,9.72C.38,4.819,4.033.75,8.421.631Z" transform="matrix(0.977, -0.215, 0.215, 0.977, 0, 8.473)" fill="none"/></clipPath></defs><g transform="translate(-503 -482)" clip-path="url(#a)"><g transform="translate(503.844 483.059)" clip-path="url(#b)"><g transform="translate(-0.525 2.64)"><g transform="translate(0 0)"><path d="M451.717,279.217l-34.782,8.655a2.092,2.092,0,0,1-2.471-1.784l-4.7-24.262a2.368,2.368,0,0,1,1.579-2.792l34.084-7.5a2.091,2.091,0,0,1,2.471,1.784l5.4,23.109A2.367,2.367,0,0,1,451.717,279.217Z" transform="translate(-409.245 -249.929)" fill="#5696fc"/><path d="M2.636.951,37.758,0A2,2,0,0,1,39.7,2.181l-.58,23.946a2.263,2.263,0,0,1-2.055,2.289l-35.122.95A2,2,0,0,1,0,27.185L.581,3.24A2.263,2.263,0,0,1,2.636.951Z" transform="matrix(0.977, -0.215, 0.215, 0.977, 0, 8.541)" fill="#76a4ff"/><g transform="translate(0.189 0.189)"><g transform="translate(0 0)" clip-path="url(#c)"><g transform="translate(-1.003 3.905)"><path d="M.03,1.172,43.357,0l-.03,1.258L0,2.43Z" transform="matrix(0.977, -0.215, 0.215, 0.977, 0, 9.327)" fill="#a6c8ff"/><path d="M.074,1.172,43.4,0l-.074,3.038L0,4.21Z" transform="matrix(0.977, -0.215, 0.215, 0.977, 0.375, 11.475)" fill="#a6c8ff"/></g></g></g><path d="M.185.315,11.834,0l-.185,7.641L0,7.956Z" transform="matrix(0.977, -0.215, 0.215, 0.977, 5.584, 23.985)" fill="#a6c8ff"/><path d="M.065.6,22.319,0l-.065,2.67L0,3.272Z" transform="matrix(0.977, -0.215, 0.215, 0.977, 20.004, 25.349)" fill="#a6c8ff"/></g><g transform="translate(31.64 20.605)"><g transform="translate(0 6.505)"><path d="M0,0,14.946.029l0,2.651L0,2.651Z" transform="matrix(1, 0.015, -0.015, 1, 0.094, 4.124)" fill="#f4ba00"/><path d="M4.107,0c2.26,0,4.086,3.339,4.078,7.466s-1.847,7.476-4.107,7.48S-.008,11.607,0,7.48,1.847,0,4.107,0Z" transform="matrix(0.015, -1, 1, 0.015, 0, 10.648)" fill="#f4ba00"/><path d="M4.107,0c2.26,0,4.086,3.339,4.078,7.466s-1.847,7.476-4.107,7.48S-.008,11.607,0,7.48,1.847,0,4.107,0Z" transform="matrix(0.015, -1, 1, 0.015, 0.033, 8.184)" fill="#ffe46a"/><path d="M468.942,296.441a9.265,9.265,0,0,1-4.339-1.065,2.66,2.66,0,0,1,.068-5.087,10.058,10.058,0,0,1,8.7.148,2.66,2.66,0,0,1-.067,5.088A9.225,9.225,0,0,1,468.942,296.441Zm.088-6.6a8.843,8.843,0,0,0-4.186.872,2.194,2.194,0,0,0-.057,4.251,9.7,9.7,0,0,0,8.346.143,2.194,2.194,0,0,0,.056-4.251A8.885,8.885,0,0,0,469.03,289.837Z" transform="translate(-461.422 -288.702)" fill="#f4ba00"/><path d="M474.118,293.695l0-.044c-.017-.2-.128-.372-.321-.373a8.044,8.044,0,0,0-.957.112c-.262.031-.524.064-.786.1-.009-.156-.021-.313-.037-.469a1.1,1.1,0,0,0-.146-.559c.128.007.256.015.384.026.248.021.537.111.759-.042a.365.365,0,0,0,.008-.58.843.843,0,0,0-.632-.077c.065-.055.13-.11.194-.166a2.064,2.064,0,0,0,.676-.757.192.192,0,0,0-.162-.249,2.1,2.1,0,0,0-.862.48,5.3,5.3,0,0,0-.691.471,3.71,3.71,0,0,0-.586-.362c-.224-.138-.458-.263-.676-.413-.129-.088-.288.122-.169.239.181.178.345.379.518.566.1.1.191.231.292.344-.085.012-.169.026-.253.042-.154.028-.414.057-.445.273a.084.084,0,0,0,.048.1,2.457,2.457,0,0,0,.564.062c.234.014.469.018.7.028a.226.226,0,0,0-.013.224c.032.069-.027.256-.034.336-.011.118-.018.237-.029.356-.006.069-.011.136-.017.2-.243.032-.485.066-.728.1a2.344,2.344,0,0,0-.987.239.188.188,0,0,0,.033.322,2.362,2.362,0,0,0,1.02.058c.2-.006.408-.013.612-.021a4.31,4.31,0,0,0,.067,1.47.39.39,0,0,0,.414.316.409.409,0,0,0,.336-.417c-.013-.295-.085-.584-.106-.88-.013-.173-.021-.347-.028-.521.276-.015.552-.028.828-.046l.49-.031a.975.975,0,0,0,.536-.11A.417.417,0,0,0,474.118,293.695Z" transform="translate(-464.094 -289.085)" fill="#f4ba00"/></g><g transform="translate(0.044 3.25)"><path d="M0,0,14.946.029l0,2.651L0,2.651Z" transform="matrix(1, 0.015, -0.015, 1, 0.094, 4.124)" fill="#f4ba00"/><path d="M4.107,0c2.26,0,4.086,3.339,4.078,7.466s-1.847,7.476-4.107,7.48S-.008,11.607,0,7.48,1.847,0,4.107,0Z" transform="matrix(0.015, -1, 1, 0.015, 0, 10.648)" fill="#f4ba00"/><path d="M4.107,0c2.26,0,4.086,3.339,4.078,7.466s-1.847,7.476-4.107,7.48S-.008,11.607,0,7.48,1.847,0,4.107,0Z" transform="matrix(0.015, -1, 1, 0.015, 0.033, 8.184)" fill="#ffe46a"/><path d="M469.013,291.738a9.265,9.265,0,0,1-4.339-1.065,2.661,2.661,0,0,1,.068-5.088,10.062,10.062,0,0,1,8.7.149,2.66,2.66,0,0,1-.067,5.087A9.217,9.217,0,0,1,469.013,291.738Zm.088-6.6a8.836,8.836,0,0,0-4.186.872,2.194,2.194,0,0,0-.057,4.251,9.7,9.7,0,0,0,8.346.142,2.194,2.194,0,0,0,.056-4.25A8.878,8.878,0,0,0,469.1,285.135Z" transform="translate(-461.493 -283.999)" fill="#f4ba00"/><path d="M474.189,288.992l0-.043c-.017-.2-.129-.372-.32-.373a8.03,8.03,0,0,0-.957.112c-.262.031-.524.064-.786.1-.009-.157-.021-.314-.037-.469a1.106,1.106,0,0,0-.146-.559c.128.007.256.015.384.026.248.02.538.111.759-.042a.364.364,0,0,0,.008-.579.843.843,0,0,0-.632-.077c.065-.055.13-.11.194-.166a2.065,2.065,0,0,0,.676-.757c.04-.111-.057-.258-.162-.248a2.1,2.1,0,0,0-.862.48,5.3,5.3,0,0,0-.691.471,3.769,3.769,0,0,0-.586-.363c-.224-.138-.458-.262-.676-.413-.129-.089-.288.121-.169.239.181.177.345.379.518.566.1.1.191.231.292.344-.085.012-.169.026-.253.042-.154.029-.414.057-.446.274a.083.083,0,0,0,.048.1,2.42,2.42,0,0,0,.564.062c.234.014.469.019.7.028a.225.225,0,0,0-.013.224c.032.069-.027.255-.034.336-.011.119-.018.238-.029.357-.006.068-.011.136-.017.2-.243.033-.485.066-.728.1a2.352,2.352,0,0,0-.987.238.189.189,0,0,0,.033.323,2.363,2.363,0,0,0,1.02.058c.2-.006.408-.013.612-.021a4.312,4.312,0,0,0,.067,1.47.388.388,0,0,0,.414.315.408.408,0,0,0,.336-.417c-.013-.295-.085-.584-.106-.88-.013-.174-.021-.347-.028-.521.276-.015.552-.029.828-.046l.49-.031a.981.981,0,0,0,.536-.11A.418.418,0,0,0,474.189,288.992Z" transform="translate(-464.165 -284.383)" fill="#f4ba00"/></g><g transform="translate(0.375 0)"><path d="M0,0,14.946.029l0,2.651L0,2.651Z" transform="matrix(1, 0.015, -0.015, 1, 0.094, 4.124)" fill="#f4ba00"/><path d="M4.107,0c2.26,0,4.086,3.339,4.078,7.466s-1.847,7.476-4.107,7.48S-.008,11.607,0,7.48,1.847,0,4.107,0Z" transform="matrix(0.015, -1, 1, 0.015, 0, 10.648)" fill="#f4ba00"/><path d="M4.107,0c2.26,0,4.086,3.339,4.078,7.466s-1.847,7.476-4.107,7.48S-.008,11.607,0,7.48,1.847,0,4.107,0Z" transform="matrix(0.015, -1, 1, 0.015, 0.033, 8.184)" fill="#ffe46a"/><path d="M469.554,287.043a9.256,9.256,0,0,1-4.339-1.064,2.661,2.661,0,0,1,.068-5.088,10.067,10.067,0,0,1,8.705.148,2.661,2.661,0,0,1-.068,5.088A9.209,9.209,0,0,1,469.554,287.043Zm.088-6.6a8.834,8.834,0,0,0-4.185.873,2.624,2.624,0,0,0-1.678,2.1,2.65,2.65,0,0,0,1.621,2.154,9.7,9.7,0,0,0,8.346.142,2.194,2.194,0,0,0,.057-4.25A8.878,8.878,0,0,0,469.642,280.44Z" transform="translate(-462.034 -279.304)" fill="#f4ba00"/></g><g transform="translate(11.747 9.306)"><path d="M0,0,14.946.029l0,2.651L0,2.651Z" transform="matrix(1, 0.015, -0.015, 1, 0.094, 4.124)" fill="#f4ba00"/><path d="M4.107,0c2.26,0,4.086,3.339,4.078,7.466s-1.847,7.476-4.107,7.48S-.008,11.607,0,7.48,1.847,0,4.107,0Z" transform="matrix(0.015, -1, 1, 0.015, 0, 10.648)" fill="#f4ba00"/><path d="M4.107,0c2.26,0,4.086,3.339,4.078,7.466s-1.847,7.476-4.107,7.48S-.008,11.607,0,7.48,1.847,0,4.107,0Z" transform="matrix(0.015, -1, 1, 0.015, 0.033, 8.184)" fill="#ffe46a"/><path d="M488.11,300.488a9.266,9.266,0,0,1-4.339-1.065,2.661,2.661,0,0,1,.068-5.088,10.063,10.063,0,0,1,8.705.149,2.66,2.66,0,0,1-.068,5.087A9.217,9.217,0,0,1,488.11,300.488Zm.088-6.6a8.837,8.837,0,0,0-4.186.872,2.194,2.194,0,0,0-.057,4.251,9.7,9.7,0,0,0,8.346.142,2.624,2.624,0,0,0,1.678-2.1,2.65,2.65,0,0,0-1.621-2.154A8.879,8.879,0,0,0,488.2,293.884Z" transform="translate(-480.591 -292.749)" fill="#f4ba00"/></g></g></g></g></g></svg>