<svg xmlns="http://www.w3.org/2000/svg" xmlns:xlink="http://www.w3.org/1999/xlink" width="24" height="24" viewBox="0 0 24 24"><defs><clipPath id="a"><rect width="24" height="24" transform="translate(578 310)" fill="none" stroke="#707070" stroke-width="1"/></clipPath></defs><g transform="translate(-578 -310)" clip-path="url(#a)"><path d="M4,11.915a.59.59,0,0,0,.617.559H16.705l-2.649,2.4a.523.523,0,0,0,0,.791.663.663,0,0,0,.873,0l3.7-3.355a.529.529,0,0,0,.18-.393v0a.5.5,0,0,0-.048-.214.553.553,0,0,0-.133-.181l-3.7-3.355a.663.663,0,0,0-.873,0,.523.523,0,0,0,0,.791l2.65,2.4H4.617A.59.59,0,0,0,4,11.915Z" transform="translate(579 309.999)" fill="#101010"/></g></svg>