<svg xmlns="http://www.w3.org/2000/svg" xmlns:xlink="http://www.w3.org/1999/xlink" width="50" height="50" viewBox="0 0 50 50"><defs><clipPath id="a"><rect width="50" height="50" transform="translate(33 129)" fill="none" stroke="#707070" stroke-width="1"/></clipPath></defs><g transform="translate(-33 -129)" clip-path="url(#a)"><g transform="translate(33.688 131.07)"><path d="M26.274,33.649c-.137-1.228-1.076-1.228-2.257-1.228-2.784-.006-4.732,0-7.516,0a6.031,6.031,0,0,1-4.161-2.44,4.8,4.8,0,0,1,.465-6.166c1.023-.979,2.324-2.174,3.7-1.989,1.137.151,1.86.117,1.9-1.146a4.555,4.555,0,0,1,3.429-4.485,2.954,2.954,0,0,1,1.05-.11,1.832,1.832,0,0,0,1.991-1.408,3.862,3.862,0,0,1,1.4-2.131c3.844-3.911,10.7-2.824,12,2.652.317,1.327.695,1.686,1.963,1.872a7.257,7.257,0,0,1,6.087,7.18c.082,3.946-1.183,7.91-4.9,8.171-.394.029-2.1-.006-2.49,0-1.143.017-2.074.017-2.206,1.228H33.263c-.005-.07.306,0-3.511,0Z" transform="translate(-4.758 -5.554)" fill="#fcc76e"/><path d="M16397.2-1635.466c-1.707,0-2.986-.009-4.15-.029a6.32,6.32,0,0,1-5.582-4,7.554,7.554,0,0,1-.381-1.389,1.122,1.122,0,0,0-.078-.289v-1.323a1.051,1.051,0,0,0,.1-.453,6.374,6.374,0,0,1,5.445-5.223,1.3,1.3,0,0,0,1.146-1.035,6.178,6.178,0,0,1,1.9-3.055,6.251,6.251,0,0,1,3.27-1.529,1.405,1.405,0,0,0,1.121-.779l0-.012a9.06,9.06,0,0,1,2.357-2.985,8.894,8.894,0,0,1,3.418-1.67c.311-.079.627-.145.9-.2.105-.024.205-.044.314-.066h1.689c.26.068.512.113.758.156l.025,0,.025,0a6.133,6.133,0,0,1,.758.164,8.7,8.7,0,0,1,5.891,5.45,1.394,1.394,0,0,0,1.014.911,8.926,8.926,0,0,1,5.162,3.5,8.881,8.881,0,0,1,1.545,6.031,8.712,8.712,0,0,1-2.451,5.145,8.722,8.722,0,0,1-5.088,2.572,14.454,14.454,0,0,1-1.811.083c-.623,0-.852-.182-.947-.75.086-.546.326-.742.924-.75.459,0,.807-.017,1.129-.041a7.238,7.238,0,0,0,6.777-7.4,7.3,7.3,0,0,0-6.344-7.066,1.639,1.639,0,0,1-.779-.231,1.7,1.7,0,0,1-.322-.763,7.151,7.151,0,0,0-2.7-4.052,7.465,7.465,0,0,0-4.4-1.447,7.213,7.213,0,0,0-5,2.02,7.051,7.051,0,0,0-1.867,2.976.855.855,0,0,1-.816.643.988.988,0,0,1-.105-.008h-.006c-.1-.008-.191-.012-.293-.012a4.431,4.431,0,0,0-.957.124l-.008,0a4.894,4.894,0,0,0-2.725,1.678,5.028,5.028,0,0,0-1.088,3.018c-.023.545-.312.87-.775.87-.043,0-.086,0-.129-.007h-.012a5.364,5.364,0,0,0-.676-.045,4.818,4.818,0,0,0-3.289,1.311,4.7,4.7,0,0,0-1.525,3.166,4.725,4.725,0,0,0,1.006,3.356,4.891,4.891,0,0,0,4,1.9h7.689c.623,0,.861.189.947.75-.109.623-.414.75-.84.75l-.771,0h-.008l-.779,0C16398.951-1635.466,16398.063-1635.466,16397.2-1635.466Z" transform="translate(-16381.145 1663.56)"/><path d="M40.173,38.416c.005-1.119.015-2.232.02-3.351.005-1.3,0-2.61,0-3.915-.176-.035-.227.111-.307.186-.62.6-1.209,1.239-1.849,1.824a1.581,1.581,0,0,1-2.61-.766,1.5,1.5,0,0,1,.393-1.532c1.607-1.622,3.22-3.245,4.847-4.847a1.577,1.577,0,0,1,2.272.025q2.434,2.388,4.822,4.822a1.6,1.6,0,0,1-2.272,2.252c-.6-.569-1.174-1.169-1.763-1.753-.086-.086-.151-.2-.282-.232-.076.04-.055.111-.055.166v6.933a1.172,1.172,0,0,0,.02.186c-.005,1.567-.005,3.139-.02,4.706a1.6,1.6,0,1,1-3.184.227c-.04-1.456-.015-2.912-.02-4.368C40.188,38.794,40.178,38.6,40.173,38.416Z" transform="translate(-15.054 -11.081)"/><path d="M44.953,72.633c0-.3-.015-.6.005-.9a1.59,1.59,0,0,1,3.174-.005c.03.615.03,1.229,0,1.839a1.593,1.593,0,0,1-3.179.005C44.938,73.263,44.953,72.946,44.953,72.633Z" transform="translate(-19.809 -33.257)"/></g></g></svg>