<svg xmlns="http://www.w3.org/2000/svg" xmlns:xlink="http://www.w3.org/1999/xlink" width="50" height="50" viewBox="0 0 50 50"><defs><clipPath id="a"><rect width="50" height="50" transform="translate(157 129)" fill="none" stroke="#707070" stroke-width="1"/></clipPath></defs><g transform="translate(-157 -129)" clip-path="url(#a)"><g transform="translate(139.88 94)"><path d="M110.152,54.448v27.24a4.663,4.663,0,0,1-4.65,4.65H75.28A3.731,3.731,0,0,0,79,82.617V54.448A3.448,3.448,0,0,1,82.447,51H106.7A3.448,3.448,0,0,1,110.152,54.448Z" transform="translate(-48.578 -9.138)" fill="#fcc76e"/><path d="M39.559,258.11v13.767a3.719,3.719,0,1,1-7.439,0V261.558a3.448,3.448,0,0,1,3.448-3.448Z" transform="translate(-9.138 -198.398)" fill="#f58b10"/><path d="M58.126,41H33.868a4.314,4.314,0,0,0-4.309,4.309V58.851h-3.13A4.314,4.314,0,0,0,22.12,63.16V73.479A4.587,4.587,0,0,0,26.7,78.061H56.924a5.518,5.518,0,0,0,5.512-5.512V45.309A4.314,4.314,0,0,0,58.126,41ZM29.559,73.479a2.858,2.858,0,1,1-5.715,0V63.16a2.589,2.589,0,0,1,2.586-2.586h3.13Zm31.153-.93a3.792,3.792,0,0,1-3.788,3.788H30.277a4.537,4.537,0,0,0,1.005-2.858V45.309a2.589,2.589,0,0,1,2.586-2.586H58.126a2.589,2.589,0,0,1,2.586,2.586Z"/><path d="M202.565,170.122H184.432a.862.862,0,1,0,0,1.724h18.133a.862.862,0,0,0,0-1.724Zm0-6.9H184.432a.862.862,0,1,0,0,1.724h18.133a.862.862,0,0,0,0-1.724Zm-18.133-6.033h9.514a.862.862,0,0,0,0-1.724h-9.514a.862.862,0,1,0,0,1.724Z" transform="translate(-147.535 -104.604)"/></g></g></svg>