<svg width="48" height="48" viewBox="0 0 48 48" fill="none" xmlns="http://www.w3.org/2000/svg">
<path d="M36.0792 16.6936C34.4954 16.6936 33.2122 17.9769 33.2122 19.5607V16.4277C33.2122 14.8439 31.9289 13.5607 30.3451 13.5607C28.7613 13.5607 27.4781 14.8439 27.4781 16.4277V13.6069C27.4781 12.0231 26.1948 10.7399 24.611 10.7399C23.0272 10.7399 21.744 12.0231 21.744 13.6069V2.86703C21.744 1.28322 20.4607 -2.39806e-05 18.8769 -2.39806e-05C17.2931 -2.39806e-05 16.0099 1.28322 16.0099 2.86703V21.9191V23.5144L12.796 20.3006C11.6746 19.1792 9.85959 19.1792 8.7382 20.3006C7.61681 21.4219 7.61681 23.237 8.7382 24.3584L16.9925 33.6994C17.9983 34.8439 18.5648 36.3121 18.5648 37.8381V39.6416H35.7787V36.6358C35.7787 35.8613 35.9174 35.0982 36.1948 34.3815L38.5301 28.3006C38.8076 27.5838 38.9463 26.8208 38.9463 26.0462V21.9191V19.5722C38.9463 17.9884 37.6631 16.6936 36.0792 16.6936Z" fill="#FFCCBC"/>
<path d="M15.998 23.5027V24.9824L10.4952 19.4795C11.316 19.3986 12.1715 19.6761 12.7957 20.3119L15.998 23.5027Z" fill="#FCB39F"/>
<path d="M21.7441 2.87826L21.7441 20.3465C21.7441 20.6355 21.5129 20.8667 21.2239 20.8667C20.9349 20.8667 20.7037 20.6355 20.7037 20.3465L20.7037 0.65861C20.773 0.716413 20.8424 0.774218 20.9118 0.843582C21.4204 1.36381 21.7441 2.08057 21.7441 2.87826Z" fill="#FCB39F"/>
<path d="M27.4785 13.6182V21.387C27.4785 21.676 27.2473 21.9072 26.9583 21.9072C26.6693 21.9072 26.4381 21.676 26.4381 21.387V11.3986C26.5074 11.4564 26.5768 11.5142 26.6461 11.5835C27.1548 12.1153 27.4785 12.8321 27.4785 13.6182Z" fill="#FCB39F"/>
<path d="M33.2119 16.4392V22.4392C33.2119 22.7283 32.9807 22.9595 32.6917 22.9595C32.4027 22.9595 32.1715 22.7283 32.1715 22.4392V14.2311C32.2408 14.289 32.3102 14.3468 32.3795 14.4161C32.8882 14.9248 33.2119 15.6416 33.2119 16.4392Z" fill="#FCB39F"/>
<path d="M38.9463 19.5605V23.4681C38.9463 23.7571 38.7151 23.9883 38.4261 23.9883C38.137 23.9883 37.9058 23.7571 37.9058 23.4681V17.3409C37.9752 17.3987 38.0446 17.4565 38.1139 17.5259C38.6342 18.0576 38.9463 18.7744 38.9463 19.5605Z" fill="#FCB39F"/>
<path d="M18.3331 38.6012H36.0672C37.8014 38.6012 39.2002 40 39.2002 41.7341V44.8671C39.2002 46.6012 37.8014 48 36.0672 48H18.3331C16.599 48 15.2002 46.6012 15.2002 44.8671V41.7341C15.2002 40 16.599 38.6012 18.3331 38.6012Z" fill="#6192FF"/>
<path d="M15.2002 43.2948H39.2002V44.8671C39.2002 46.5896 37.8014 48 36.0672 48H18.3331C16.6106 48 15.2002 46.6012 15.2002 44.8671V43.2948Z" fill="#4678FD"/>
<path d="M11.7092 12.2661L11.7092 2.6823L12.5532 3.52623C12.8537 3.82681 13.3508 3.8615 13.663 3.56092C13.9867 3.26034 13.9867 2.75167 13.6745 2.43953L11.478 0.242998C11.1774 -0.0575805 10.6803 -0.0575805 10.3682 0.242998L8.17166 2.43953C8.02137 2.58982 7.94044 2.78635 7.94044 2.99444C7.94044 3.19097 8.00981 3.38751 8.1601 3.5378C8.46067 3.8615 8.99247 3.83837 9.3046 3.52623L10.1485 2.6823L10.1485 12.2661C10.1485 12.6939 10.4954 13.0522 10.9347 13.0522C11.3624 13.0522 11.7208 12.6939 11.7092 12.2661Z" fill="#FFCCBC"/>
</svg>
