<svg xmlns="http://www.w3.org/2000/svg" width="310" height="219" viewBox="0 0 310 219"><defs><clipPath id="a"><rect width="120" height="120" fill="none"/></clipPath></defs><rect width="310" height="219" fill="#fff"/><g transform="translate(11491 21241)"><text transform="translate(-11336 -21077)" fill="#fd6a4a" font-size="16" font-family="Roboto-Bold, Roboto" font-weight="700"><tspan x="-84.77" y="0">¡Has recibido un cupón!</tspan></text><text transform="translate(-11336 -21042)" fill="#757575" font-size="14" font-family="Roboto-Regular, Roboto"><tspan x="-75.619" y="0">Ir a Cuenta para ver más</tspan></text></g><g transform="translate(95 16)"><g clip-path="url(#a)"><g clip-path="url(#a)"><g opacity="0"><g clip-path="url(#a)"><path d="M119,119H1V1H119ZM120,0H0V120H120Z" fill="#707070"/></g></g><path d="M54.11,93.248c0-2.356-.012-4.713,0-7.069.01-1.645.034-3.29.094-4.934.038-1.054.154-2.106.229-3.159.053-.742.109-1.485.143-2.228.086-1.937.156-3.875.243-5.812.038-.847.1-1.693.157-2.539.008-.121.025-.242.028-.363.038-1.679.078-3.359.109-5.038.013-.715.239-.965.943-1.012.4-.027.792-.07,1.188-.1a15.184,15.184,0,0,1,2.176-.043c.826.061,1.661,0,2.492-.014.19,0,.381,0,.571,0,.916-.01,1.832-.03,2.748-.029q.985,0,1.969.048a22.3,22.3,0,0,0,2.748-.02c1-.076,2.006-.013,3.009-.007.138,0,.276.031.414.032,1.021.011,2.042.033,3.062.022.622-.007,1.243-.1,1.865-.092.812,0,1.624.087,2.436.1.569.006,1.138-.057,1.708-.086.259-.013.519-.023.778-.027,2.337-.037,4.674-.089,7.011-.1.967-.005,1.934.1,2.9.114.6.01,1.207-.055,1.812-.077a8.8,8.8,0,0,1,1.348-.015c2.192.263,4.393.14,6.589.208.62.019,1.237.127,1.855.194.309.033.617.077.927.094a1.089,1.089,0,0,1,1.1.786,7.76,7.76,0,0,1,.413,2.134c.018.883.011,1.766.033,2.649.024.968.085,1.936.1,2.9.007.535-.065,1.07-.07,1.606-.006.622.055,1.247.03,1.868-.066,1.625-.172,3.248-.242,4.873-.035.795-.011,1.594-.044,2.389-.028.657-.118,1.31-.15,1.966-.035.709-.037,1.42-.048,2.13-.022,1.436-.051,2.873-.056,4.31,0,.8.068,1.593.05,2.388-.03,1.3-.1,2.592-.16,3.888-.006.155-.024.311-.02.466.04,1.63-.068,3.254-.187,4.878-.031.414-.015.832-.048,1.246q-.167,2.119-.356,4.237a5.347,5.347,0,0,1-.177.964c-.105.367-.3.518-.649.455a6.917,6.917,0,0,0-2.163.123,7.726,7.726,0,0,1-1.757.072,14.288,14.288,0,0,0-2.071.06c-.5.025-1,.06-1.5.082-.588.026-1.176.062-1.764.06-.571,0-1.141-.067-1.712-.069-.639,0-1.279.034-1.919.052-.328.009-.657.023-.985.018-1.471-.02-2.947-.129-4.413-.046-1.229.07-2.456.041-3.683.092-1.469.062-2.935.186-4.4.278a4.513,4.513,0,0,1-.726.006,9.09,9.09,0,0,0-2.683.179,3,3,0,0,1-.463.054c-1.764.071-3.529.137-5.293.208-.241.01-.483.065-.723.06-.673-.016-1.346-.049-2.018-.083-.345-.018-.689-.074-1.034-.076-1.282-.009-2.564,0-3.846,0-.536,0-1.073-.069-1.608-.06a17.1,17.1,0,0,0-1.81.117,10.184,10.184,0,0,1-3-.085,1.271,1.271,0,0,1-1.165-1.153c-.031-.31-.106-.617-.12-.927-.049-1.124-.1-2.249-.117-3.374-.06-3.255-.107-6.51-.158-9.765h.064" fill="#514bc0"/><path d="M89.565,99.277c.859-.88,1.687-1.788,2.532-2.679q1.037-1.093,2.082-2.179c.538-.562,1.082-1.119,1.618-1.685.832-.881,1.656-1.768,2.487-2.651.781-.832,1.562-1.665,2.353-2.49.719-.749,1.453-1.484,2.176-2.23.6-.622,1.221-1.228,1.783-1.882a24.37,24.37,0,0,1,2.2-2.275l.144-.136c.016-.189.036-.378.043-.567.009-.222.009-.443.012-.665-.221.222-.441.443-.659.667-.666.679-1.349,1.344-2.006,2.033-.693.726-1.353,1.481-2.047,2.206-.743.775-1.513,1.522-2.26,2.294-.817.847-1.616,1.71-2.43,2.561-.717.751-1.446,1.49-2.163,2.241-.407.425-.792.872-1.2,1.3-.985,1.022-1.982,2.033-2.968,3.055-.589.611-1.148,1.25-1.75,1.848-2.222,2.21-4.426,4.439-6.753,6.542-.513.464-.983.978-1.5,1.433-.8.7-1.6,1.406-2.369,2.134.516-.033,1.033-.07,1.549-.106,1.931-1.678,3.715-3.512,5.605-5.234,1.229-1.118,2.363-2.339,3.523-3.53" fill="#fceddc"/><path d="M92.47,105.851a38.857,38.857,0,0,0,3.089-2.93c.29-.321.611-.614.925-.912q1.8-1.718,3.615-3.432.546-.519,1.085-1.045c.856-.833,1.719-1.658,2.562-2.5.623-.625,1.206-1.291,1.829-1.916.39-.39.786-.774,1.181-1.158.008-.219.019-.438.024-.658s0-.422,0-.634c-.451.468-.9.937-1.353,1.4-.591.608-1.19,1.208-1.782,1.816-.555.57-1.09,1.162-1.661,1.717-1.005.977-2.032,1.932-3.048,2.9-.276.263-.536.543-.82.8-1.481,1.33-2.988,2.634-4.362,4.08a10.1,10.1,0,0,1-.984.924,30.122,30.122,0,0,0-2.949,2.777c-.224.236-.456.464-.688.692l1.391.042.576-.615c.437-.467.893-.919,1.372-1.343" fill="#fceddc"/><path d="M103.889,104.587a17.388,17.388,0,0,1,2.435-2.321c.014-.164.029-.328.042-.492.021-.267.025-.534.031-.8-.207.16-.415.317-.628.471a12.658,12.658,0,0,0-2.2,2.042,10.157,10.157,0,0,1-1.343,1.3A24.506,24.506,0,0,0,98.87,107.7l.322-.018c.39-.019.778-.054,1.167-.072a20.755,20.755,0,0,1,1.932-1.625,9.955,9.955,0,0,0,1.6-1.4" fill="#fceddc"/><path d="M56.834,99.05A6.471,6.471,0,0,1,57.764,98,28.2,28.2,0,0,0,61.04,94.39c.518-.668,1.129-1.265,1.7-1.894,1.081-1.194,2.134-2.414,3.249-3.575C67.93,86.9,69.91,84.908,71.875,82.9c.631-.642,1.275-1.273,1.891-1.93,1.042-1.111,2.067-2.24,3.1-3.36.352-.382.73-.741,1.06-1.141A54.437,54.437,0,0,1,81.65,72.28a8.06,8.06,0,0,0,1.012-1.249,18.632,18.632,0,0,1,2.455-2.948,14.844,14.844,0,0,0,2.036-2.489,8.039,8.039,0,0,1,1.55-1.739,14.474,14.474,0,0,0,2.4-2.367c.167-.225.339-.446.51-.668-.4-.022-.8-.039-1.205-.042a14.616,14.616,0,0,1-2.371,2.4,6.889,6.889,0,0,0-1.466,1.606,21.591,21.591,0,0,1-2.651,3.191c-.6.621-1.113,1.322-1.653,2-.41.514-.756,1.087-1.209,1.557-1.229,1.272-2.371,2.616-3.529,3.95-1.588,1.83-3.243,3.6-4.922,5.353-2.207,2.3-4.466,4.547-6.7,6.82-.327.333-.645.677-.961,1.021-1.006,1.1-2.017,2.191-3.011,3.3-.716.8-1.4,1.624-2.111,2.429-.652.74-1.28,1.506-1.985,2.192a20.026,20.026,0,0,0-2.095,2.3,12.493,12.493,0,0,1-1.574,1.779c.007.429.013.858.021,1.288a17.262,17.262,0,0,0,2.646-2.918" fill="#fceddc"/><path d="M71.353,105.957a17.956,17.956,0,0,0,2.338-2.357c.587-.7,1.249-1.341,1.889-2s1.31-1.241,1.9-1.917a37.253,37.253,0,0,1,2.933-3.157c.217-.2.419-.414.621-.628,1.176-1.247,2.336-2.509,3.528-3.741,1.662-1.717,3.344-3.415,5.024-5.115,1.169-1.182,2.342-2.361,3.53-3.524.805-.786,1.644-1.538,2.459-2.314.376-.357.73-.738,1.1-1.105.992-.992,2-1.965,2.975-2.977,1.163-1.211,2.291-2.456,3.436-3.684q.778-.837,1.565-1.666c.634-.662,1.264-1.33,1.918-1.974.238-.234.481-.463.723-.693-.013-.4-.024-.81-.041-1.215-.162.162-.324.325-.487.486-.715.705-1.451,1.389-2.151,2.109-1.133,1.168-2.244,2.358-3.365,3.539-.417.439-.853.863-1.248,1.322-1.934,2.251-4.133,4.24-6.245,6.316-.889.873-1.823,1.7-2.717,2.571-.694.676-1.357,1.385-2.037,2.076q-2.439,2.483-4.882,4.963c-.681.691-1.373,1.37-2.045,2.07C81.04,94.417,80.019,95.5,79,96.583c-.428.453-.871.894-1.274,1.368A28.637,28.637,0,0,1,74.828,101a15.785,15.785,0,0,0-1.619,1.682,21.461,21.461,0,0,1-2.625,2.657,9.861,9.861,0,0,0-1.889,2.064,11.068,11.068,0,0,1-.944,1.214c.391.018.781.034,1.171.043.03,0,.06,0,.09-.006.158-.206.311-.416.455-.633a9.458,9.458,0,0,1,1.886-2.063" fill="#fceddc"/><path d="M56.671,87a14.267,14.267,0,0,1,1.608-1.616,24.306,24.306,0,0,0,3.031-3.056,9.516,9.516,0,0,1,1.056-1.069,33.794,33.794,0,0,0,2.883-2.769,25.39,25.39,0,0,1,1.908-1.9,21.077,21.077,0,0,0,2.369-2.327,13.314,13.314,0,0,1,1.888-1.925,19.715,19.715,0,0,0,2.513-2.475,22.1,22.1,0,0,1,1.848-1.889,20.816,20.816,0,0,0,2.356-2.339,18.2,18.2,0,0,1,2.31-2.31A17.669,17.669,0,0,0,82.325,61.4c.14-.17.282-.337.425-.5-.1,0-.2,0-.305.01-.337.017-.675.045-1.012.065a11.256,11.256,0,0,1-1.67,1.7,18.341,18.341,0,0,0-2.46,2.454A16.731,16.731,0,0,1,75.736,66.7a21.009,21.009,0,0,0-2.541,2.521,13.234,13.234,0,0,1-2.077,2.1A19.107,19.107,0,0,0,68.725,73.7a18.34,18.34,0,0,1-1.646,1.653,21.376,21.376,0,0,0-2.437,2.33,16.271,16.271,0,0,1-2.351,2.343A15.359,15.359,0,0,0,60.1,82.235a13.8,13.8,0,0,1-2.057,2.05A16.143,16.143,0,0,0,55.618,86.7a8.6,8.6,0,0,1-1.509,1.469c0,.423,0,.845,0,1.268.031-.024.06-.051.092-.074A13.924,13.924,0,0,0,56.671,87" fill="#fceddc"/><path d="M56.764,75.347a27.357,27.357,0,0,1,2.652-2.556,19.319,19.319,0,0,0,1.661-1.639,32.263,32.263,0,0,1,2.666-2.616c.607-.54,1.153-1.147,1.728-1.723.659-.661,1.314-1.327,1.984-1.979.743-.723,1.507-1.427,2.252-2.15.6-.586,1.185-1.194,1.788-1.779q-.632-.01-1.261.02c-.458.438-.907.885-1.33,1.361a16.846,16.846,0,0,1-1.427,1.361A33.812,33.812,0,0,0,64.653,66.4a19.494,19.494,0,0,1-1.446,1.414A32.374,32.374,0,0,0,60.459,70.5a13.692,13.692,0,0,1-1.435,1.425c-1.039.893-2.031,1.83-2.976,2.822-.467.491-.977.942-1.484,1.394q-.034.642-.08,1.284a17.187,17.187,0,0,0,2.28-2.076" fill="#fceddc"/><path d="M56.692,67.133c.756-.831,1.576-1.6,2.372-2.4.734-.734,1.492-1.445,2.2-2.2.519-.551,1.055-1.081,1.6-1.6l-.385.005c-.19,0-.38,0-.571,0l-.391.009c-.2.2-.4.393-.589.6-.876.938-1.77,1.851-2.717,2.718-.791.723-1.512,1.522-2.275,2.277-.314.311-.639.613-.96.918l0,.049c-.029.447-.06.894-.089,1.341a23.884,23.884,0,0,0,1.8-1.715" fill="#fceddc"/><path d="M58.908,107.286a13.012,13.012,0,0,0,2.278-2.41,11.6,11.6,0,0,1,2.195-2.27,10.138,10.138,0,0,0,2.174-2.217A12.693,12.693,0,0,1,67.5,98.238a21.9,21.9,0,0,0,2.059-2.119,18.3,18.3,0,0,1,2.287-2.4,10.265,10.265,0,0,0,2.082-2.375,9.221,9.221,0,0,1,1.822-2.119,15.613,15.613,0,0,0,2.5-2.773,11.9,11.9,0,0,1,1.628-1.812,28.132,28.132,0,0,0,2.133-2.194c.806-.93,1.613-1.852,2.494-2.714.717-.7,1.372-1.465,2.037-2.216.768-.869,1.52-1.752,2.274-2.632.958-1.117,1.937-2.216,2.859-3.362a25.1,25.1,0,0,1,2.847-3.09,8.419,8.419,0,0,0,.966-1.014,28.286,28.286,0,0,1,2.994-3.309,12.65,12.65,0,0,0,2.081-2.447,5.751,5.751,0,0,1,.53-.679l-1.086,0c-.112.148-.22.3-.321.46a12.321,12.321,0,0,1-2.053,2.334A14.114,14.114,0,0,0,96.151,65.3a36.367,36.367,0,0,1-3.375,3.665,12.631,12.631,0,0,0-1.212,1.352c-.892,1.151-1.816,2.271-2.805,3.34-.776.839-1.553,1.681-2.266,2.571a37.125,37.125,0,0,1-3.112,3.414,20.226,20.226,0,0,0-1.576,1.723,27.408,27.408,0,0,1-2.649,2.781,10.479,10.479,0,0,0-1.3,1.4A19.939,19.939,0,0,1,74.9,88.815a8.834,8.834,0,0,0-1.609,1.893,10.239,10.239,0,0,1-1.969,2.267,14.949,14.949,0,0,0-2.5,2.63,10.063,10.063,0,0,1-1.282,1.355,17.075,17.075,0,0,0-2.776,2.935,7.864,7.864,0,0,1-1.651,1.717,14.487,14.487,0,0,0-2.728,2.764,12.451,12.451,0,0,1-1.869,2.013c-.743.672-1.46,1.378-2.134,2.119l-.055.06a9.862,9.862,0,0,0,1.2.05,14.291,14.291,0,0,1,1.374-1.332" fill="#fceddc"/><path d="M112.66,56.249v1.143a5.063,5.063,0,0,1-.339.791,1.684,1.684,0,0,1-1.351.653c-.546.067-1.1.079-1.647.12q-.772.057-1.544.125c-.651.058-1.3.122-1.951.186-.205.02-.411.034-.613.072-.83.157-1.658.321-2.486.485-.319.063-.64.122-.953.2-1.117.3-2.231.6-3.346.9-.279.075-.562.136-.843.2H96.444c-.729-.1-1.455-.229-2.186-.305a3.589,3.589,0,0,1-2-.606,5.055,5.055,0,0,0-.876-.545,31.093,31.093,0,0,1-3.531-2.17,10.364,10.364,0,0,0-2.317-1.357,6.853,6.853,0,0,1-.881-.3,22.491,22.491,0,0,1-2.9-1.495c-.329-.239-.737-.392-.9-.812v-.312a2.793,2.793,0,0,1,.423-.45,13.974,13.974,0,0,1,2.651-1.612,1.8,1.8,0,0,1,1.254-.118,1.772,1.772,0,0,1,.811.623,19.635,19.635,0,0,0,1.843,1.951c.359.319.638.728.982,1.066.863.847,1.74,1.681,2.619,2.512a7.886,7.886,0,0,0,.648.49c-.087-.258-.129-.421-.2-.574-.2-.459-.441-.9-.612-1.374-.708-1.95-1.371-3.916-1.882-5.93-.195-.769-.474-1.516-.682-2.283a.958.958,0,0,1,.612-1.343c.5-.248,1.014-.448,1.5-.708a12.066,12.066,0,0,1,2.271-.878,1.9,1.9,0,0,0,.23-.1h1.143a.774.774,0,0,0,.175.1,1.84,1.84,0,0,1,1.116,1.018,5.421,5.421,0,0,1,.583,2.291c.017.326.066.651.081.978s.015.656,0,.984c-.014.309-.074.617-.078.926-.011.8-.005,1.593,0,2.389,0,.172.033.344.034.516.005.619.022,1.238,0,1.856a3.853,3.853,0,0,0,.051,1.223,2.126,2.126,0,0,0,.349-.557q.733-1.854,1.448-3.716c.081-.208.15-.422.217-.635a19.138,19.138,0,0,1,.643-2.024c.469-1.057,1.02-2.079,1.551-3.108a1.669,1.669,0,0,1,.411-.526,3.772,3.772,0,0,1,4.226-.375c.324.159.654.307.986.446a7.949,7.949,0,0,1,.915.362,5.262,5.262,0,0,1,1.045.749,1.361,1.361,0,0,1,.44,1.273,6.238,6.238,0,0,1-1.025,2.139c-.546.71-1.179,1.349-1.685,2.1-.3.439-.733.781-1.061,1.2a8.631,8.631,0,0,1-1.628,1.727,2.707,2.707,0,0,0-.377.425,3.246,3.246,0,0,1-.349.381c-.414.338-.842.659-1.261.992a.985.985,0,0,0-.411.528c.67-.267,1.246-.495,1.821-.725a5.236,5.236,0,0,1,.865-.342,31.277,31.277,0,0,0,5.573-2.092c.766-.314,1.55-.589,2.339-.842.5-.162.727-.028.912.469a3.109,3.109,0,0,1,.086.506c.067.369.137.736.207,1.1m-9.487-6.922a3.784,3.784,0,0,0-1.453,1.516c-.28.571-.628,1.107-.942,1.661a6.173,6.173,0,0,0-.558,1.047,7.541,7.541,0,0,1-.795,1.675,12.2,12.2,0,0,0-.7,1.434,1.018,1.018,0,0,0-.029.3A3.728,3.728,0,0,0,99.949,55.9c.775-.878,1.535-1.771,2.27-2.682a14.8,14.8,0,0,0,1.707-2.524.508.508,0,0,0-.011-.624c-.216-.241-.458-.46-.742-.741M93.6,48.389a1.136,1.136,0,0,0-.223,0,2.955,2.955,0,0,0-.345.112c-.635.254-.72.426-.589,1.113.158.828.276,1.666.467,2.486.356,1.524.753,3.038,1.132,4.556a11.164,11.164,0,0,0,.206-2c0-1.068-.054-2.136-.1-3.2a8.287,8.287,0,0,0-.115-1.231c-.119-.621-.29-1.231-.436-1.835" fill="#fd6a4a"/><path d="M67.8,78.171a3.437,3.437,0,0,0-.091.546c-.011.969.007,1.94-.015,2.91a10.527,10.527,0,0,1-.317,2.408c-.035.134-.083.264-.121.4a1.633,1.633,0,0,1-1.561,1.221,24.528,24.528,0,0,1-3.784.09c-1-.039-1.99-.22-2.988-.261-.948-.038-1.9.023-2.851.042-.172,0-.345.018-.518.02-1.195.007-2.4-.051-3.585.032-2.112.147-4.222.063-6.333.07-1.137,0-2.274-.126-3.413-.177-.57-.026-1.143,0-1.714-.014-1.381-.044-2.759-.107-4.132-.285-.906-.117-1.823-.154-2.734-.234-.636-.055-1.27-.123-1.905-.182-.138-.013-.277-.015-.415-.021-.811-.037-1.624-.057-2.434-.116a1.191,1.191,0,0,1-1.237-1.146c-.028-.861-.169-1.72-.178-2.581q-.036-3.507.006-7.016c.011-.913.133-1.825.17-2.738.033-.779-.012-1.56.027-2.338.2-4,.036-8,.09-12,.011-.816.169-1.05.967-1.2.506-.1,1.025-.133,1.54-.186q1.286-.134,2.574-.253a8.3,8.3,0,0,1,.93-.055A13.78,13.78,0,0,0,36.1,54.92a4.68,4.68,0,0,1,.829-.028,17.182,17.182,0,0,0,2.738-.186c.273-.037.554-.006.83-.024.861-.058,1.721-.124,2.581-.186.052,0,.1-.012.156-.013,1.365-.039,2.73-.081,4.095-.117,1.521-.039,3.044-.042,4.563-.12,1.764-.09,3.523.032,5.284.036,1.294,0,2.588.108,3.88.2.723.05,1.44.163,2.16.247a1.853,1.853,0,0,0,.36.039,6.36,6.36,0,0,1,2.243.341,1.828,1.828,0,0,1,1.475,1.43,2.55,2.55,0,0,1,.117,1.474.683.683,0,0,0-.014.309c.142,1.116.137,2.241.221,3.358.13,1.749.025,3.495.088,5.241a4.277,4.277,0,0,0,.092.545Z" fill="#fd6a4a"/><path d="M12.77,96.319c-.43-.167-.861-.331-1.289-.5-.835-.336-1.687-.636-2.5-1.023a9.359,9.359,0,0,1-3.738-2.806A4.086,4.086,0,0,1,4.5,89.092a1.153,1.153,0,0,1,.907-.948,2.21,2.21,0,0,1,1.023.009,10.906,10.906,0,0,1,2.9.942,6.284,6.284,0,0,1,2.377,2.262c.685,1.061,1.324,2.151,1.974,3.233a1.487,1.487,0,0,0,.616.606c.434.22.535.5.22.87a3.855,3.855,0,0,0-.7,1.692,10.225,10.225,0,0,1-1.556,3.151,3.1,3.1,0,0,1-1.724,1.265c-.6.176-1.2.347-1.8.488a2.205,2.205,0,0,1-1.916-.4,1.106,1.106,0,0,1-.39-1.454,4.852,4.852,0,0,1,2.055-2.334c.429-.258.821-.579,1.256-.826a6.888,6.888,0,0,1,1.048-.436c.226-.082.478-.1.7-.193.429-.18.844-.392,1.265-.592.005-.036.011-.072.017-.109m.3-.978c-.321-.562-.638-1.131-.968-1.691-.237-.4-.495-.792-.737-1.191a6.627,6.627,0,0,0-2.385-2.543A6.893,6.893,0,0,0,7.7,89.367a5.164,5.164,0,0,0-1.817-.383c-.4.023-.545.139-.545.531A3.006,3.006,0,0,0,5.8,91.244a6.407,6.407,0,0,0,1.7,1.729,20.322,20.322,0,0,0,5.489,2.417c.011,0,.028-.015.082-.049m-.06,1.673c-.262.124-.457.228-.661.311-.461.188-.933.353-1.388.553a11.446,11.446,0,0,0-1.2.6c-.355.21-.67.488-1.02.706a3.885,3.885,0,0,0-1.579,1.927.426.426,0,0,0,.175.62,1.582,1.582,0,0,0,1.34.215,17.269,17.269,0,0,0,1.739-.5,2.3,2.3,0,0,0,1.2-.956,9.637,9.637,0,0,0,1.356-3.006,4.141,4.141,0,0,0,.04-.466" fill="#fc6fff"/><path d="M37.349,76.394a8.444,8.444,0,0,0-1.223.011,6.263,6.263,0,0,1-1.7.007,8.037,8.037,0,0,0-1.761,0,4.973,4.973,0,0,1-1.335,0,6.094,6.094,0,0,0-1.139-.016c-.759.019-1.518.084-2.276.07a.95.95,0,0,1-.958-.966c-.02-.276.006-.555-.009-.831-.019-.344-.045-.687-.09-1.028-.07-.525.159-.707.681-.667.649.051,1.305.013,1.958.006.5-.005,1-.006,1.5-.039.532-.035,1.062-.108,1.593-.159q.334-.033.671-.043c1.362-.043,2.725-.082,4.143-.125.015-.188.039-.353.04-.519,0-.8-.006-1.593.006-2.39,0-.308.052-.617.079-.925a.686.686,0,0,0,.01-.206,12.878,12.878,0,0,1-.089-2.536c-.021-.832-.017-1.663,0-2.494.01-.517.088-1.032.09-1.548,0-.429-.1-.859-.086-1.287.012-.5.1-.994.146-1.49a2.246,2.246,0,0,0,.023-.616,3.847,3.847,0,0,1,.007-1.592,4.666,4.666,0,0,0,.024-.569c.023-.241.062-.478.1-.716a.645.645,0,0,1,.529-.569,6.793,6.793,0,0,1,1.936-.3.941.941,0,0,1,.964,1c0,.483-.056.964-.085,1.444a3.423,3.423,0,0,0,0,.365c.03.619.085,1.239.089,1.858,0,.429-.084.859-.089,1.289,0,.306.1.617.088.923-.022.55-.095,1.1-.145,1.646a1.9,1.9,0,0,0-.035.563,7.723,7.723,0,0,1-.073,2.674,1.545,1.545,0,0,0-.03.462,6.9,6.9,0,0,1,.011,2.059,13.458,13.458,0,0,0,.03,1.654c0,.343-.006.686-.014,1.028,0,.182-.018.363-.026.534.984-.048,1.917-.04,2.834-.154A22.988,22.988,0,0,1,46.78,72c.29,0,.58-.076.872-.1.445-.04.893-.061,1.339-.1.531-.047,1.061-.108,1.592-.163a3.382,3.382,0,0,1,.411-.04,15.606,15.606,0,0,0,2.888-.2,3.155,3.155,0,0,1,.467-.01c1.538-.035,3.081-.01,4.612-.128.97-.074,1.935-.043,2.9-.083.189-.007.376-.037.564-.059.086-.011.18-.057.254-.035A10.63,10.63,0,0,0,65,71.067c.774.058,1.551.07,2.326.113.328.018.468.157.475.491.006.292-.037.584-.051.877a10.749,10.749,0,0,0-.038,1.242.918.918,0,0,1-1.049,1.036c-.983-.015-1.969.033-2.95.1s-1.987.2-2.98.295a.907.907,0,0,1-.1.006c-1.278.036-2.556.067-3.835.107-.948.03-1.9.032-2.845.116-.962.086-1.927.131-2.886.219-.981.09-1.955.2-2.941.194-.585,0-1.171.053-1.756.1-.7.055-1.4.146-2.108.187-.553.033-1.109,0-1.662.022-.513.023-1.024.087-1.581.136-.01.232-.025.434-.026.636,0,2.27,0,4.539-.005,6.809a1.168,1.168,0,0,1-.131.585.392.392,0,0,1-.688.085.871.871,0,0,0-.753-.25,3.024,3.024,0,0,0-1.073.094c-.017.152-.044.318-.049.484-.009.312,0,.624-.007.936a.422.422,0,0,1-.355.446.479.479,0,0,1-.535-.228,1.116,1.116,0,0,1-.124-.8,7.1,7.1,0,0,0,.079-.821c.007-1.7-.019-3.4.014-5.093.014-.74-.016-1.477-.011-2.215,0-.17,0-.34,0-.581" fill="#f4e2d8"/><path d="M21.6,82.989c1.016-.083,2.03-.185,3.048-.241.794-.044,1.593-.02,2.389-.043,1.661-.049,3.321-.118,4.982-.162,1.073-.028,2.147-.043,3.221-.037,1.525.008,3.046-.034,4.565-.172.341-.031.691.04,1.035.032.986-.022,1.972-.056,2.957-.094.483-.019.966-.071,1.449-.086,1.262-.037,2.525-.083,3.787-.084a22.37,22.37,0,0,1,2.692.118,10.274,10.274,0,0,0,2.535-.06,7.221,7.221,0,0,1,2.015.058,9.7,9.7,0,0,0,3.094,0,7.426,7.426,0,0,1,2.482.092,15.167,15.167,0,0,0,2.85.066,12.529,12.529,0,0,1,1.808.052,24.208,24.208,0,0,0,2.637.192c.95.018,1.9.112,2.847.164.795.044,1.592.066,2.386.118.621.041,1.238.136,1.859.166.587.029,1.175.007,1.763,0,.12,0,.24-.035.361-.042a1.393,1.393,0,0,1,1.537,1.2,4.014,4.014,0,0,1,.1.821c-.016,1.124-.054,2.248-.081,3.372-.007.294-.014.589,0,.883q.039,1.271.093,2.542a17.17,17.17,0,0,1,.007,2.176,15.013,15.013,0,0,0,.159,2.948c.062.549.12,1.1.143,1.653a39.4,39.4,0,0,0,.383,4.39,14.494,14.494,0,0,1,.053,1.808c.018.674.04,1.347.061,2.02.007.207.027.415.027.622a.663.663,0,0,1-.656.771,4.3,4.3,0,0,1-.778.02,9.024,9.024,0,0,0-2.573.257,1.8,1.8,0,0,1-.462.054c-.916-.024-1.832-.077-2.748-.078-.55,0-1.1.1-1.651.112-.881.026-1.764.068-2.641.019a19.986,19.986,0,0,0-2.692.006c-.86.067-1.729.01-2.594.009l-2.382,0c-.917,0-1.834.011-2.751,0-.345,0-.69-.064-1.034-.065-2.928-.005-5.855-.015-8.782,0-1.852.012-3.7.06-5.555.113-.708.02-1.414.106-2.122.148-.292.017-.587-.005-.881-.01-.882-.012-1.766-.043-2.648-.033-.864.009-1.727.071-2.59.085a8.318,8.318,0,0,1-.927-.094,17,17,0,0,0-2.9.054,9.061,9.061,0,0,1-1.707-.091,14.606,14.606,0,0,0-2.9,0,15.9,15.9,0,0,1-2.9,0,15.965,15.965,0,0,0-2.429.082c-.671.032-1.345.02-2.017-.005-.707-.027-1.413-.093-2.12-.142-.31-.022-.621-.035-.929-.072a1.894,1.894,0,0,1-1.545-1.231,3.191,3.191,0,0,1-.3-1.36,14.522,14.522,0,0,0-.012-1.5,23.975,23.975,0,0,0-.312-2.466,20.7,20.7,0,0,1-.275-2.681c-.059-.916-.086-1.833-.131-2.749-.029-.57-.1-1.14-.089-1.708.021-.812.133-1.621.153-2.433a11.3,11.3,0,0,0-.085-1.965,8.35,8.35,0,0,1,.15-2.834,9.085,9.085,0,0,0,.1-3.146c-.091-.575-.01-.731.52-.983a1.975,1.975,0,0,1,.637-.2c.551-.055,1.106-.063,1.657-.109.792-.066,1.582-.159,2.375-.221.758-.059,1.519-.091,2.278-.136,0,.035,0,.07.008.1" fill="#fddb27"/><path d="M67.5,55.365c0,.294.021.591,0,.883a.9.9,0,0,1-.737.884,3.594,3.594,0,0,1-1.588.117,6.475,6.475,0,0,0-1.036-.04c-1.659-.058-3.318-.14-4.977-.167-1.263-.021-2.526.027-3.788.043a3.565,3.565,0,0,1-.414-.011,9.246,9.246,0,0,0-2.174.007,13.237,13.237,0,0,1-1.557.02c-.413,0-.826.012-1.238.027-.569.022-1.139.086-1.707.067a9.433,9.433,0,0,0-1.494.088c-.41.052-.83.019-1.245.036-.621.026-1.241.071-1.862.091-.362.011-.726-.016-1.089-.017-.5,0-1,0-1.5.006-.415.007-.83.024-1.245.039-.708.025-1.415.061-2.122.077-.328.007-.656-.029-.984-.03-.552,0-1.1,0-1.654.009-.519.006-1.039.047-1.556.021-.689-.035-1.378-.1-2.064-.186-1.132-.133-2.264-.268-3.391-.437-.8-.121-1.009-.432-1.1-1.244a6.529,6.529,0,0,1,.125-2.213.745.745,0,0,1,.447-.6,2.412,2.412,0,0,1,1-.214,5.587,5.587,0,0,0,1.594-.119,6.481,6.481,0,0,1,1.8-.083,10.117,10.117,0,0,0,1.65-.107,2.716,2.716,0,0,1,.671-.029,8.163,8.163,0,0,0,2.53-.07,1.586,1.586,0,0,1,.464-.027,6.933,6.933,0,0,0,2.321-.09,2.155,2.155,0,0,1,.724-.024,7.771,7.771,0,0,0,2.324-.068c.2-.022.412-.007.618-.01.638-.008,1.276-.02,1.913-.023.588,0,1.176,0,1.764.01.173,0,.345.039.517.036q2.595-.039,5.191-.088c.466-.009.931-.049,1.4-.064.381-.014.762-.015,1.143-.017.6,0,1.207,0,1.81,0,1.057,0,2.114-.015,3.171,0,.985.014,1.971.055,2.956.094.708.028,1.419.037,2.121.123a8.039,8.039,0,0,1,1.5.37.96.96,0,0,1,.66.861c.071.685.116,1.374.172,2.061l-.063,0" fill="#514bc0"/><path d="M38.75,53a10.037,10.037,0,0,1-1.823,2.146c-.738.845-1.453,1.711-2.2,2.552a3.346,3.346,0,0,0-.753,1.689,3.568,3.568,0,0,1-.108.507.5.5,0,0,1-.56.358.461.461,0,0,1-.354-.5,1.446,1.446,0,0,1,.041-.36,5.728,5.728,0,0,1,1.541-2.835,10.1,10.1,0,0,0,1.26-1.513,7.358,7.358,0,0,1,1.018-1.1,4.612,4.612,0,0,0,1.143-1.6c-.453-.461-.873-.947-1.353-1.363a10.135,10.135,0,0,1-1.437-1.564c-.281-.372-.58-.732-.882-1.088a4.014,4.014,0,0,1-.927-3,1.535,1.535,0,0,1,2.458-1.069,4.461,4.461,0,0,1,1.592,1.945c.464,1.175.906,2.359,1.341,3.544.118.322.179.666.281,1.056a2.02,2.02,0,0,0,.193-.276q.459-1.017.9-2.04a10.173,10.173,0,0,1,2.861-3.772,2.9,2.9,0,0,1,2.13-.666,1.519,1.519,0,0,1,1.445,1.135,3.8,3.8,0,0,1-.037,1.031,2.546,2.546,0,0,1-.263.784,7.572,7.572,0,0,1-2.25,2.745c-.309.221-.6.474-.9.7a10.328,10.328,0,0,1-1.072.724c-.786.43-1.591.824-2.405,1.242.293.576.6,1.153.882,1.739.151.31.274.635.407.954.212.51.436,1.016.629,1.533a4.107,4.107,0,0,0,1.9,2.059,1.938,1.938,0,0,1,.343.23.491.491,0,0,1,.125.612.472.472,0,0,1-.588.2,2.981,2.981,0,0,1-.535-.307,6.61,6.61,0,0,1-2.65-3.733,18.427,18.427,0,0,0-1.108-2.342A2.758,2.758,0,0,0,38.75,53m1.417-1.994c.607-.3,1.183-.573,1.752-.861a2.936,2.936,0,0,0,.429-.29c.427-.324.856-.645,1.273-.98a5.955,5.955,0,0,0,1.964-2.743.855.855,0,0,0-.07-.933,1.034,1.034,0,0,0-1.026-.179,2.428,2.428,0,0,0-.293.1,4.726,4.726,0,0,0-1.757,1.494,15.441,15.441,0,0,0-2.286,4.215c-.012.026,0,.065.014.174m-2.146-.1a1.937,1.937,0,0,0-.036-.249c-.171-.525-.333-1.054-.52-1.573-.275-.764-.575-1.52-.852-2.283a4.142,4.142,0,0,0-1.226-1.646.736.736,0,0,0-.822-.122c-.278.109-.287.371-.271.616a3.241,3.241,0,0,0,.884,2.26,4.563,4.563,0,0,1,.616.767,10.7,10.7,0,0,0,2.227,2.23" fill="#fddb27"/><path d="M14.325,61.442a1.526,1.526,0,0,1,.207-.346.97.97,0,0,1,.392-.244,2.05,2.05,0,0,0,1.142-1.07c.226-.408.476-.8.712-1.205A3.112,3.112,0,0,0,17.25,56.9a.8.8,0,0,1,.691-.834.407.407,0,0,1,.477.224.871.871,0,0,1,.094.345,9.365,9.365,0,0,0,.638,2.61,3.545,3.545,0,0,0,1.188,1.666,4.205,4.205,0,0,1,.545.476c.3.337.274.73-.119.914-1.41.66-1.844,2.038-2.474,3.272a2.709,2.709,0,0,0-.146.6c-.091.38-.256.56-.512.56-.238,0-.419-.16-.532-.486-.057-.163-.085-.337-.148-.5-.2-.513-.38-1.038-.63-1.526a9.724,9.724,0,0,0-.884-1.4,4.2,4.2,0,0,0-.764-.688.735.735,0,0,1-.349-.7" fill="#ffd495"/><path d="M72.865,38.745a.521.521,0,0,1,.4-.545,2.451,2.451,0,0,0,1.529-1.582c.172-.378.338-.758.5-1.141a6.179,6.179,0,0,0,.479-1.957c0-.052,0-.1.011-.156a.569.569,0,0,1,.528-.543.576.576,0,0,1,.609.52c.082.424.113.86.222,1.276.27,1.036.556,2.068.866,3.092a2.077,2.077,0,0,0,.667.975,1.628,1.628,0,0,1,.279.307.516.516,0,0,1-.1.778,3.212,3.212,0,0,1-.523.336,2.205,2.205,0,0,0-.9.908,6.6,6.6,0,0,0-1.005,2.862c-.012.3-.156.45-.381.48-.251.034-.411-.088-.512-.408-.046-.148-.071-.3-.1-.455a10.967,10.967,0,0,0-1.48-3.356,3.648,3.648,0,0,0-.655-.653.974.974,0,0,1-.424-.738" fill="#fddb27"/><path d="M100.251,15.437a.256.256,0,0,1,.2-.268,1.209,1.209,0,0,0,.752-.778c.084-.187.166-.373.246-.562a3.044,3.044,0,0,0,.236-.962c0-.027,0-.052,0-.077a.28.28,0,0,1,.559-.011c.041.208.056.422.11.628.132.508.273,1.017.426,1.52a1.03,1.03,0,0,0,.328.48.854.854,0,0,1,.137.151.253.253,0,0,1-.05.382,1.442,1.442,0,0,1-.257.165,1.1,1.1,0,0,0-.445.446A3.236,3.236,0,0,0,102,17.96c-.006.147-.077.222-.188.237s-.2-.044-.252-.2a2.282,2.282,0,0,1-.05-.224,5.447,5.447,0,0,0-.728-1.651,1.818,1.818,0,0,0-.323-.321.476.476,0,0,1-.208-.362" fill="#ffd495"/><path d="M1,96.669a.255.255,0,0,1,.2-.265,1.2,1.2,0,0,0,.762-.768c.087-.184.172-.371.255-.557a3.072,3.072,0,0,0,.249-.96c0-.025,0-.051.006-.076a.28.28,0,0,1,.559,0c.038.209.051.424.1.629q.188.768.4,1.527a1.029,1.029,0,0,0,.322.484.788.788,0,0,1,.135.153.254.254,0,0,1-.055.382,1.5,1.5,0,0,1-.26.161,1.089,1.089,0,0,0-.451.441,3.239,3.239,0,0,0-.514,1.4c-.008.147-.08.22-.191.233s-.2-.046-.249-.2c-.021-.073-.033-.149-.047-.224a5.388,5.388,0,0,0-.705-1.661,1.748,1.748,0,0,0-.318-.326.48.48,0,0,1-.2-.366" fill="#fddb27"/><path d="M108.046,76.318a.257.257,0,0,1,.2-.268,1.209,1.209,0,0,0,.752-.778q.126-.279.246-.561a3.05,3.05,0,0,0,.236-.963c0-.026,0-.051.005-.076a.281.281,0,0,1,.26-.268.284.284,0,0,1,.3.256c.041.208.056.423.11.628q.2.763.426,1.521a1.027,1.027,0,0,0,.328.479.854.854,0,0,1,.137.151.254.254,0,0,1-.05.383,1.562,1.562,0,0,1-.257.165,1.086,1.086,0,0,0-.445.446,3.236,3.236,0,0,0-.494,1.408c-.006.148-.077.222-.188.237s-.2-.044-.252-.2c-.022-.073-.035-.149-.05-.224A5.425,5.425,0,0,0,108.577,77a1.786,1.786,0,0,0-.323-.321.479.479,0,0,1-.208-.363" fill="#ffd495"/><path d="M8.307,36.378a2.011,2.011,0,0,1-.286.44,6.407,6.407,0,0,1-.79.669A1.88,1.88,0,0,0,6.44,38.6c-.147.657-.256,1.321-.379,1.982-.009.051,0,.1-.007.156-.04.386-.185.563-.467.572s-.447-.14-.532-.522c-.106-.471-.2-.946-.292-1.42A4.632,4.632,0,0,0,3.121,36.92c-.382-.351-.45-.6-.111-1.006.233-.277.5-.525.756-.783A5.445,5.445,0,0,0,5.2,32.2a2.369,2.369,0,0,1,.375-.831c.183-.273.606-.147.722.215a3.409,3.409,0,0,1,.129.712,7.621,7.621,0,0,0,.752,2.467,3.086,3.086,0,0,0,.753.835.871.871,0,0,1,.376.779" fill="#ffd495"/><path d="M119,63.921a2.152,2.152,0,0,1-.281.422,1.374,1.374,0,0,1-.443.259A2.221,2.221,0,0,0,117,65.893a5.619,5.619,0,0,0-.539,1.722.374.374,0,0,1-.4.391.4.4,0,0,1-.434-.36c-.066-.339-.125-.679-.191-1.019a1.385,1.385,0,0,0-.1-.4,11.713,11.713,0,0,0-1.36-2.253,1.073,1.073,0,0,1-.211-.287.427.427,0,0,1,.22-.566,4.443,4.443,0,0,0,1.963-2.256,7.572,7.572,0,0,0,.509-1.789,1.571,1.571,0,0,1,.264-.6.388.388,0,0,1,.7.108.71.71,0,0,1,.072.3,8.14,8.14,0,0,0,.413,2.021,14.193,14.193,0,0,0,.4,1.549,8.6,8.6,0,0,0,.478.974c.074.153.132.312.211.5" fill="#fddb27"/><path d="M47.062,15.233a1.6,1.6,0,0,1-.206.309,1.021,1.021,0,0,1-.324.19,1.622,1.622,0,0,0-.934.944,4.129,4.129,0,0,0-.394,1.26.273.273,0,0,1-.291.286.291.291,0,0,1-.317-.263c-.048-.248-.092-.5-.14-.745a1.037,1.037,0,0,0-.07-.294,8.564,8.564,0,0,0-1-1.649.8.8,0,0,1-.154-.21.312.312,0,0,1,.161-.414A3.254,3.254,0,0,0,44.834,13a5.528,5.528,0,0,0,.372-1.309,1.129,1.129,0,0,1,.193-.443.284.284,0,0,1,.511.079.519.519,0,0,1,.053.219,5.928,5.928,0,0,0,.3,1.479,10.464,10.464,0,0,0,.293,1.133,6.262,6.262,0,0,0,.349.713c.055.112.1.229.155.366" fill="#fddb27"/><path d="M118.112,102.44a1.6,1.6,0,0,1-.206.309,1.021,1.021,0,0,1-.324.19,1.622,1.622,0,0,0-.934.944,4.129,4.129,0,0,0-.394,1.26.273.273,0,0,1-.291.286.291.291,0,0,1-.317-.263c-.048-.248-.092-.5-.14-.745a1.037,1.037,0,0,0-.07-.294,8.564,8.564,0,0,0-1-1.649.8.8,0,0,1-.154-.21.312.312,0,0,1,.161-.414,3.254,3.254,0,0,0,1.437-1.651,5.528,5.528,0,0,0,.372-1.309,1.129,1.129,0,0,1,.193-.443.284.284,0,0,1,.511.079.519.519,0,0,1,.053.219,5.928,5.928,0,0,0,.3,1.479,10.463,10.463,0,0,0,.293,1.133,6.262,6.262,0,0,0,.349.713c.055.112.1.229.155.366" fill="#fddb27"/><path d="M63.473,25.808c.009.327-.117.5-.326.567a1.447,1.447,0,0,0-.766.734,6.1,6.1,0,0,0-.811,1.952.762.762,0,0,1-.107.343,1.038,1.038,0,0,1-.422.334c-.2.061-.362-.085-.462-.26s-.171-.34-.252-.512c-.274-.577-.543-1.156-.82-1.731a2.938,2.938,0,0,0-.775-1.024c-.373-.308-.363-.7.037-.934a2.857,2.857,0,0,0,.976-.982c.334-.543.665-1.093.943-1.665a3.765,3.765,0,0,0,.258-.995.7.7,0,0,1,.576-.588.44.44,0,0,1,.6.4c.106.557.192,1.12.32,1.672.133.571.288,1.138.47,1.7a3.834,3.834,0,0,0,.378.672c.075.131.151.26.188.325" fill="#ffd495"/><path d="M28.427,33.022c.264,0,.409.205.521.453.221.488.423.984.67,1.459.8,1.531,1.613,3.054,2.428,4.577.13.244.3.467.437.7a.479.479,0,0,1-.055.656.473.473,0,0,1-.66.008,1.879,1.879,0,0,1-.42-.516q-1.5-2.785-2.968-5.582a8.5,8.5,0,0,1-.476-1.036.512.512,0,0,1,.523-.723" fill="#ffba52"/><path d="M36.484,38.451c-.006.446-.138.641-.4.689a.491.491,0,0,1-.566-.418c-.151-.584-.253-1.182-.4-1.769-.341-1.41-.687-2.819-1.049-4.224a7.327,7.327,0,0,0-.358-.916c-.053-.128-.123-.248-.173-.377-.128-.331-.059-.6.182-.726a.52.52,0,0,1,.724.305,8.056,8.056,0,0,1,.533,1.348c.4,1.537.775,3.083,1.158,4.626.083.335.166.67.245,1.007.044.184.078.369.1.455" fill="#ffba52"/><path d="M48.574,31.78a.455.455,0,0,1,.5.54,1.347,1.347,0,0,1-.159.377c-.195.385-.4.765-.592,1.15-.3.6-.574,1.221-.913,1.8a9.193,9.193,0,0,0-.868,2.046c-.152.512-.358,1.009-.55,1.509a1.216,1.216,0,0,1-.214.351.449.449,0,0,1-.523.118.407.407,0,0,1-.28-.448,2.062,2.062,0,0,1,.13-.5c.208-.568.444-1.125.633-1.7a11.8,11.8,0,0,1,.848-1.889c.327-.606.588-1.249.884-1.872.185-.389.369-.78.58-1.155a.582.582,0,0,1,.52-.334" fill="#ffba52"/><path d="M40.909,31.851A26.784,26.784,0,0,1,40.6,35.83a9.109,9.109,0,0,0,0,1.342c.007.329.039.658.036.986,0,.369-.174.578-.448.59s-.476-.184-.517-.533a10.192,10.192,0,0,1,.051-3,15.07,15.07,0,0,0,.2-4.186,2.361,2.361,0,0,1,0-.518.492.492,0,0,1,.513-.479.473.473,0,0,1,.466.469c.026.449.007.9.007,1.35" fill="#ffba52"/><path d="M53.833,35.587a4.646,4.646,0,0,1-.224.456,32.426,32.426,0,0,1-2.862,4.015,1.543,1.543,0,0,1-.343.309.478.478,0,0,1-.614-.1.467.467,0,0,1-.036-.578,1.294,1.294,0,0,1,.185-.25,26.473,26.473,0,0,0,2.683-3.757,2.286,2.286,0,0,1,.348-.448.448.448,0,0,1,.578-.048,1.521,1.521,0,0,1,.285.4" fill="#ffba52"/><path d="M24.823,39.176c-.01-.368.108-.559.325-.634a.452.452,0,0,1,.58.215c.29.677.9,1.024,1.406,1.489a15.346,15.346,0,0,1,1.131,1.205,1.054,1.054,0,0,1,.209.462.445.445,0,0,1-.24.524.478.478,0,0,1-.571-.107,1.161,1.161,0,0,1-.193-.241,6.36,6.36,0,0,0-1.4-1.439,8.985,8.985,0,0,1-1.026-1.011,1.532,1.532,0,0,1-.219-.463" fill="#ffba52"/><path d="M73.363,102.7a1.407,1.407,0,0,1,.21-.028c2.18.073,4.364-.082,6.54.121a1.194,1.194,0,0,0,.207,0,.526.526,0,0,0,.334-.128c-.03-.209-.06-.418-.084-.628a.5.5,0,0,0-.123-.057,3.418,3.418,0,0,0-.765-.128c-.62-.023-1.243-.014-1.865-.026-.917-.017-1.834-.043-2.751-.062-.466-.01-.934-.01-1.4-.026a3.3,3.3,0,0,1-.444-.08,18.164,18.164,0,0,1-.208-3.982c.826,0,1.586,0,2.347,0a7.192,7.192,0,0,1,1.395.044c1.163.241,2.35.1,3.518.232-.028-.326-.059-.652-.1-.977-.377-.041-.756-.059-1.133-.081q-.954-.054-1.91-.106c-.621-.033-1.241-.084-1.861-.091-.639-.008-1.278.033-1.917.039a1.834,1.834,0,0,1-.416-.1v-4.4c.221,0,.4-.011.588,0a12.717,12.717,0,0,0,2.745.083,6.7,6.7,0,0,1,1.193,0c.327.012.655.041.983.07.53.045,1.06.094,1.589.141-.008-.227-.016-.455-.027-.683,0-.126-.009-.253-.014-.38-1.4-.046-2.792-.069-4.188-.116-.933-.032-1.865-.09-2.8-.14-.028,0-.053-.039-.138-.1.036-1.056.072-2.155.109-3.276.179-.012.3-.031.414-.026a9.675,9.675,0,0,0,2.63-.208,4.247,4.247,0,0,1,1.5-.032,7.487,7.487,0,0,0,1.3.017,1.768,1.768,0,0,0,.644-.176.475.475,0,0,0,.252-.568.484.484,0,0,0-.565-.349,5.942,5.942,0,0,1-2.114.071,13.212,13.212,0,0,0-2.263.265A5.223,5.223,0,0,1,73,86.774c.014-.3.035-.557.036-.813,0-1.041.015-2.083,0-3.123-.347-.015-.694-.03-1.041-.049.017.452.05.9.063,1.358.021.727,0,1.455-.01,2.183,0,.169-.024.337-.037.516a8.359,8.359,0,0,1-2.667.141c-.876-.044-1.743.207-2.644.079.036-.8.1-1.555.1-2.314s-.021-1.53-.045-2.295c-.08-.01-.161-.014-.242-.024-.257-.033-.519-.047-.781-.055.026,1.1.055,2.2.061,3.3,0,.459-.07.919-.108,1.383H60.556c-.007-.157-.021-.276-.018-.394q.051-1.843.107-3.686c.007-.272.018-.543.029-.814a6.056,6.056,0,0,0-1.026.025q-.036,2.214-.072,4.428c0,.149-.025.3-.039.452-.151.009-.252.017-.356.021-.725.031-1.45.058-2.175.091a9.635,9.635,0,0,1-2.277-.139c0-.687-.019-1.358,0-2.028.031-.967.079-1.934.119-2.9-.2.005-.39.017-.587.041-.139.018-.277.031-.416.046-.033,1.41-.076,2.821-.12,4.231-.007.2-.045.406-.069.633a2.942,2.942,0,0,1-.527.108c-.606,0-1.212-.009-1.817-.019-.415-.007-.829-.018-1.243-.027-.1,0-.192,0-.337,0,0-.229,0-.416,0-.6.02-.761.037-1.523.064-2.284.023-.657.06-1.314.086-1.971l.006-.164c-.285-.005-.571-.008-.855-.008-.06,0-.121,0-.182,0q-.036,1.637-.07,3.272c-.009.468,0,.936-.012,1.4a3.583,3.583,0,0,1-.044.386,29.818,29.818,0,0,1-4.416-.066c0-.622.009-1.245,0-1.866q-.031-1.494-.078-2.988c-.143.009-.287.021-.431.026-.173.007-.346.011-.517.017a33.178,33.178,0,0,1,.059,3.6c-.019.425-.069.848-.108,1.322-.583,0-1.117-.006-1.652,0-1.038.015-2.075.046-3.114.052-.336,0-.675-.052-1.017-.081-.009-.163-.024-.266-.018-.368.032-.518.075-1.036.1-1.554q.066-1.393.127-2.788c-.353.013-.7.022-1.058.028-.039,1.289-.073,2.578-.116,3.867a6.281,6.281,0,0,1-.094.683,20.918,20.918,0,0,1-4.669-.087c-.037-.578-.112-1.129-.1-1.678.021-.91.063-1.82.1-2.729-.359.01-.717.023-1.075.034-.006.229-.012.458-.012.688-.005.985.006,1.97.011,2.956,0,.27,0,.541,0,.835h-3.9c0-.251-.012-.472,0-.692.052-.881.125-1.761.166-2.642.017-.341.024-.683.026-1.025-.363.009-.729.01-1.092.012-.01.254-.02.507-.028.76-.036,1.176-.071,2.351-.109,3.616l-4.661.132c-.016-.193-.033-.327-.034-.46-.01-1.283-.017-2.566-.028-3.849-.369.02-.739.043-1.108.066,0,.295.006.589.011.883.02,1.022.042,2.043.056,3.064a3.3,3.3,0,0,1-.053.447,3.165,3.165,0,0,1-.354.041,22.722,22.722,0,0,0-3.159.2,9.581,9.581,0,0,1-1.5.018c-.281-.008-.562-.031-.842-.05-.006.032-.01.063-.016.1-.062.324-.109.649-.149.973.315.008.631.032.946.056a7.384,7.384,0,0,0,1.449-.02,20.064,20.064,0,0,1,3.154-.234c.147,0,.294.025.426.037,0,1.335,0,2.613,0,3.922a5.505,5.505,0,0,1-1.529.061c-1.453-.069-2.906-.156-4.358-.233,0,.079,0,.158,0,.236-.008.292-.028.584-.051.875.806.033,1.611.066,2.416.09,1.107.032,2.216.051,3.322.078a.908.908,0,0,1,.189.057c.027,1.245.054,2.5.081,3.772a1.526,1.526,0,0,1-.274.047c-.64-.014-1.28-.038-1.921-.052-.344-.007-.691-.019-1.034.006a8.686,8.686,0,0,1-2.431-.055c-.111-.023-.223-.038-.334-.055.015.356.032.712.048,1.067.128.016.257.034.384.04.672.037,1.346.048,2.019.049.362,0,.725-.071,1.086-.063.8.018,1.589.066,2.384.1.028,0,.055.035.113.075.1,1.244.224,2.509.232,3.8-.187.023-.3.047-.422.051-1.435.05-2.872.116-4.31.135-.36,0-.721-.007-1.083-.026.057.345.1.692.141,1.04.079,0,.158,0,.237,0,1.178-.008,2.353-.064,3.529-.106.415-.015.829-.053,1.244-.071.235-.011.471,0,.7,0a1.137,1.137,0,0,1,.051.2q.063,2.335.124,4.672a2.653,2.653,0,0,0,.027.465.594.594,0,0,0,.067.174c.285,0,.569,0,.854-.014a.664.664,0,0,0,.066-.191,1.4,1.4,0,0,0,.012-.311c-.054-1.383-.112-2.767-.163-4.15-.01-.269.005-.538.01-.853,1.566.106,3.059-.331,4.577.015.015.1.037.182.041.265.076,1.712.147,3.425.226,5.137l0,.053q.373-.016.746-.048c.1-.008.2-.013.3-.02-.044-.786-.086-1.572-.131-2.357-.017-.294-.052-.587-.063-.88-.031-.74-.052-1.48-.078-2.233a13.7,13.7,0,0,1,3.531-.038,1.371,1.371,0,0,1,.044.246c-.061,1.8.142,3.583.206,5.375a5.7,5.7,0,0,0,.8,0l.191-.014c-.022-.194-.046-.387-.059-.582-.051-.759-.111-1.519-.135-2.28-.028-.882-.022-1.765-.025-2.648a.751.751,0,0,1,.079-.216c.868,0,1.732,0,2.6,0a12.5,12.5,0,0,1,2.576-.061c0,.331,0,.625,0,.918-.018,1.506-.041,3.012-.05,4.518,0,.12,0,.24.006.359.308-.013.615-.021.923-.029q.03-2.778.073-5.557a1.163,1.163,0,0,1,.078-.267h.53c.935-.01,1.871-.015,2.805-.031.658-.012,1.316-.044,1.973-.058a2.389,2.389,0,0,1,.378.054,1.751,1.751,0,0,1,.041.2q.2,2.769.394,5.539l.929-.024a48.974,48.974,0,0,1-.392-5.29c0-.131.016-.264.024-.384a23.4,23.4,0,0,1,4.666-.091c.015.215.037.4.04.585.025,1.229.023,2.459.072,3.687.019.471.051.942.084,1.412.3,0,.6,0,.9,0-.016-.166-.03-.331-.037-.5-.066-1.713-.079-3.427-.112-5.141a1.4,1.4,0,0,1,.053-.257,13.277,13.277,0,0,0,3.9-.107.873.873,0,0,1,.083.2c.1,1.4.228,2.794.3,4.193.028.533.044,1.066.059,1.6h.887c-.043-.947-.069-1.895-.121-2.842-.037-.673-.122-1.343-.166-2.017-.023-.355,0-.713-.005-1.133,1.52.185,3-.263,4.556-.056,0,.236-.007.441,0,.644.042,1.142.035,2.289.149,3.424.067.685.167,1.366.229,2.051h.921a6.883,6.883,0,0,0-.089-.775,31.324,31.324,0,0,1-.374-5.016,1.9,1.9,0,0,1,.049-.333,32.494,32.494,0,0,1,5.048.079c.029.283.07.589.089.9.027.432.027.866.055,1.3.047.742.116,1.483.162,2.226.035.547.061,1.094.088,1.642.245,0,.49-.011.736-.03.074-.006.148-.008.224-.013q-.055-.8-.109-1.6c-.058-.829-.134-1.656-.172-2.485-.026-.618,0-1.238,0-1.916.727-.029,1.469-.1,2.2-.076a12.551,12.551,0,0,0,3.05.05,2.726,2.726,0,0,1,.52,0,1.861,1.861,0,0,1,.1.321c.148,1.323.312,2.645.428,3.971.046.548.084,1.1.122,1.647.207-.018.415-.033.623-.033.1,0,.2.006.3.007-.129-1.374-.25-2.749-.38-4.123-.054-.559-.123-1.118-.186-1.68M21.026,88.281c1.532-.148,3.064-.066,4.572-.177a24.374,24.374,0,0,1-.055,4.3c-.751.04-1.507.073-2.26.12a11.343,11.343,0,0,1-2.377-.141,37.881,37.881,0,0,1,.12-4.105m-.115,5.2c.766.021,1.537.069,2.307.057.755-.011,1.511-.083,2.247-.128a22.962,22.962,0,0,1,.031,3.853H21.015a21.31,21.31,0,0,1-.1-3.782m3.362,8.771c-.5.02-1,.077-1.5.1s-.993,0-1.532,0c-.141-1.343-.2-2.66-.261-4.028l4.585-.077c.072,1.368.141,2.658.211,4.006-.518.055-1.013-.02-1.5,0m6.178-.013-3.629-.085c-.183-.322-.055-.762-.093-1.179s-.075-.861-.09-1.292,0-.86,0-1.332a2.887,2.887,0,0,1,.4-.049c.83.02,1.659.052,2.488.073.324.009.648,0,1.012,0-.029,1.292-.057,2.544-.087,3.862m.13-4.89c-1.359.148-2.657-.1-3.947-.06a14.6,14.6,0,0,1,.026-3.736,14.943,14.943,0,0,1,4.046-.208c-.042,1.364-.083,2.669-.125,4m.1-5.083a7.736,7.736,0,0,1-1.341.029c-.431.017-.864.018-1.294.053s-.887.106-1.392.169c-.081-1.474.033-2.9.072-4.385h3.959a22.488,22.488,0,0,1,0,4.135m1.078-4.217,4.6.108c0,1.319,0,2.637,0,4.05h-4.6V88.052m-.053,5.293a29.244,29.244,0,0,1,4.749-.1,32.346,32.346,0,0,1,.144,4.134c-.065.043-.092.077-.12.078-1.155.016-2.309.042-3.465.036-.445,0-.89-.08-1.432-.133.042-1.375.084-2.7.124-4.013m-.206,8.736a20.835,20.835,0,0,1,.1-3.731c.455.037.915.087,1.377.108a10.887,10.887,0,0,0,1.29,0,13.742,13.742,0,0,1,2.393,0c.085,1.169.042,2.32.079,3.45a23.665,23.665,0,0,1-5.243.176m5.83-13.855,5.912-.019a29.338,29.338,0,0,1,.083,3.608c-1.959.365-3.9.183-5.89.384a38.576,38.576,0,0,1-.1-3.973m.161,4.924,5.824-.252c0,1.394,0,2.736,0,4.1-1.862.448-3.8.121-5.747.523-.026-1.485-.051-2.893-.078-4.372m5.88,8.8-5.648.114c-.034-1.237-.066-2.4-.1-3.62.813-.077,1.563-.19,2.317-.211a18.9,18.9,0,0,0,3-.2,2.576,2.576,0,0,1,.409,0c.057,1.308.026,2.591.027,3.921m.945-13.707a33.4,33.4,0,0,1,4.362.02,16.723,16.723,0,0,1,.139,3.468l-4.5.173c0-1.251,0-2.435,0-3.661m0,4.7a26.145,26.145,0,0,1,4.555-.162,39.088,39.088,0,0,1,.1,3.989l-4.66.246V92.939m4.528,8.993a5.506,5.506,0,0,1-1.034.014,20.355,20.355,0,0,0-3.48.035c0-1.353,0-2.642,0-4.009a44.348,44.348,0,0,1,4.623-.17c.051,1.367.1,2.705.147,4.03a1.094,1.094,0,0,1-.255.1m4.811-5.288a30.007,30.007,0,0,1-3.762.123V92.692c1.188-.322,2.432-.047,3.722-.2.027,1.393.031,2.746.04,4.152m-3.846-8.5h3.806V91.5c-1.266.161-2.512-.059-3.806.178V88.148m.212,13.573q-.07-1.977-.142-3.913a23.58,23.58,0,0,1,3.847-.1q.118,1.942.24,3.915a10.783,10.783,0,0,1-3.945.1m8.81-.17c-.758.041-1.516.1-2.273.13-.531.021-1.062,0-1.637,0a32.906,32.906,0,0,1-.248-3.9c.056-.04.083-.076.112-.077.983-.041,1.965-.1,2.949-.108.549,0,1.1.072,1.711.117.069,1.257,0,2.506.039,3.831-.278,0-.466-.008-.653,0m.59-4.826c-.824-.017-1.621-.092-2.407-.033a19.52,19.52,0,0,1-2.353.04,18.2,18.2,0,0,1-.033-4.306l4.766-.2a32.712,32.712,0,0,1,.027,4.5m.073-5.537a32.535,32.535,0,0,1-4.9.154c-.039-1.092-.013-2.167.018-3.257.183,0,.3-.009.416,0a12.89,12.89,0,0,0,2.742-.02A6.458,6.458,0,0,1,59.5,88.1v3.091m.88,10.356a30.015,30.015,0,0,1,.009-3.783,5.152,5.152,0,0,1,1.663-.152c.88.035,1.763.056,2.644.08.22,0,.441,0,.695,0,.032,1.325.061,2.595.09,3.854h-5.1m.062-4.806c0-1.494,0-2.953,0-4.464,1.687-.174,3.354-.064,5.033-.1,0,1.538,0,3.012,0,4.5-1.7.309-3.352-.168-5.033.072m5.176-5.654a1.491,1.491,0,0,1-.283.074q-2.256.051-4.513.093a3.768,3.768,0,0,1-.379-.029c-.095-1.028.084-2.019.073-3.087,1.745-.219,3.429-.023,5.1-.1v3.046m1.05-2.922a2.952,2.952,0,0,1,.454-.089,18.38,18.38,0,0,1,2.687-.087,9.441,9.441,0,0,0,1.444-.042c.206-.009.412-.028.609-.042a15.1,15.1,0,0,1,.049,3.445l-5.331-.113a18.686,18.686,0,0,1,.088-3.072m-.171,4.159c.191-.019.32-.04.45-.044.674-.023,1.347-.054,2.021-.057.4,0,.792.045,1.187.068.582.034,1.164.066,1.8.1,0,1.385.142,2.788.055,4.232-1.851.148-3.674.114-5.591.117.026-1.518.051-2.948.077-4.418m3.362,9.392a12.581,12.581,0,0,0-2.743-.028c-.2.016-.4,0-.594,0a14.341,14.341,0,0,1-.026-4.014h5.528a10.543,10.543,0,0,1,.041,1.277c.025.431.056.862.087,1.293s.067.886.1,1.346a6.628,6.628,0,0,1-2.394.125" fill="#3377af"/><path d="M31.348,40.362a1.836,1.836,0,0,0,.42.516.471.471,0,0,0,.66-.007.482.482,0,0,0,.056-.657c-.142-.237-.308-.46-.438-.7-.814-1.523-1.628-3.047-2.427-4.578-.248-.474-.45-.971-.67-1.458-.113-.249-.258-.454-.522-.453a.511.511,0,0,0-.523.723,8.34,8.34,0,0,0,.477,1.035q1.474,2.8,2.967,5.582" fill="#fc6fff"/><path d="M34.076,32.729c.362,1.4.707,2.814,1.049,4.224.142.587.244,1.185.4,1.769a.491.491,0,0,0,.566.418c.259-.048.391-.243.4-.689-.018-.085-.053-.271-.1-.455-.08-.337-.163-.672-.246-1.007-.383-1.543-.752-3.089-1.158-4.626a8.052,8.052,0,0,0-.532-1.348.521.521,0,0,0-.725-.305c-.24.125-.31.4-.182.726.05.128.12.249.173.377a7.333,7.333,0,0,1,.359.916" fill="#fc6fff"/><path d="M25.728,38.757a.452.452,0,0,0-.58-.215c-.217.075-.336.266-.325.634a1.508,1.508,0,0,0,.219.463,8.9,8.9,0,0,0,1.026,1.01,6.385,6.385,0,0,1,1.4,1.44,1.161,1.161,0,0,0,.193.241.479.479,0,0,0,.571.107.449.449,0,0,0,.24-.525,1.076,1.076,0,0,0-.209-.462,15.332,15.332,0,0,0-1.131-1.2c-.5-.465-1.116-.812-1.406-1.489" fill="#fc6fff"/><path d="M40.909,31.851c0-.45.019-.9-.007-1.35a.474.474,0,0,0-.466-.47.494.494,0,0,0-.513.48,2.361,2.361,0,0,0,0,.518,15.061,15.061,0,0,1-.2,4.185,10.2,10.2,0,0,0-.051,3c.041.349.239.544.517.532s.445-.22.448-.589c0-.328-.029-.657-.035-.986a8.974,8.974,0,0,1,0-1.342,26.784,26.784,0,0,0,.307-3.979" fill="#fc6fff"/><path d="M95.8,26.669A30.426,30.426,0,0,0,94.67,31.19c-.033.366-.219.559-.494.561a.543.543,0,0,1-.532-.587,2.879,2.879,0,0,1,.1-.767q.981-3.579,1.981-7.154a2.419,2.419,0,0,1,.135-.392.462.462,0,0,1,.506-.28.473.473,0,0,1,.425.452,1.128,1.128,0,0,1-.043.408c-.313,1.081-.634,2.159-.952,3.238" fill="#ffba52"/><path d="M89.219,21.978a.58.58,0,0,1,.321.563c.026.5.048,1,.09,1.5.094,1.137.206,2.273.3,3.41.057.707.087,1.416.129,2.124.02.345.045.689.062,1.035a.5.5,0,0,1-.355.558.538.538,0,0,1-.616-.36,1.675,1.675,0,0,1-.068-.51,32.712,32.712,0,0,0-.266-3.776c-.155-1.252-.21-2.516-.3-3.776a1.24,1.24,0,0,1,.068-.506.486.486,0,0,1,.637-.264" fill="#ffba52"/><path d="M102.658,25.837c-.115.191-.279.476-.453.754-.687,1.1-1.406,2.181-2.057,3.3-.521.9-.956,1.84-1.438,2.759a.919.919,0,0,1-.314.389.664.664,0,0,1-.483.019.408.408,0,0,1-.244-.471,1.46,1.46,0,0,1,.146-.384,49.68,49.68,0,0,1,3.273-5.712c.23-.345.429-.71.643-1.066.027-.044.055-.088.084-.131.209-.312.434-.4.69-.279s.316.372.153.82" fill="#ffba52"/><path d="M106.5,29.018c-.083.126-.232.357-.386.584a2.165,2.165,0,0,1-.193.245q-2.04,2.24-4.084,4.475a1.927,1.927,0,0,1-.435.361.445.445,0,0,1-.571-.075.5.5,0,0,1-.084-.618,2.338,2.338,0,0,1,.292-.362q1.335-1.479,2.677-2.955c.3-.332.632-.638.928-.975.318-.362.611-.746.913-1.121.043-.054.076-.116.121-.168a.512.512,0,0,1,.641-.183c.235.121.314.364.181.792" fill="#ffba52"/><path d="M110.549,33.709a3.186,3.186,0,0,1-.208.324A8.13,8.13,0,0,1,108.81,35.5c-.524.4-1.026.82-1.529,1.241-.637.534-1.263,1.079-1.9,1.614a1.6,1.6,0,0,1-.35.222.5.5,0,0,1-.686-.152.5.5,0,0,1,.093-.66,3.056,3.056,0,0,1,.235-.2c.773-.666,1.544-1.335,2.32-2a9.849,9.849,0,0,1,.851-.679,8,8,0,0,0,1.678-1.54,1.768,1.768,0,0,1,.247-.264.506.506,0,0,1,.625-.053c.191.133.25.337.153.679" fill="#ffba52"/><path d="M89.219,21.978a.486.486,0,0,0-.637.264,1.24,1.24,0,0,0-.068.506c.088,1.26.143,2.524.3,3.776a32.712,32.712,0,0,1,.266,3.776,1.675,1.675,0,0,0,.068.51.538.538,0,0,0,.616.36.5.5,0,0,0,.355-.558c-.017-.346-.042-.69-.062-1.035-.042-.708-.072-1.417-.129-2.124-.09-1.137-.2-2.273-.3-3.41-.042-.5-.064-1-.09-1.5a.58.58,0,0,0-.321-.563" fill="#fc6fff"/><path d="M97.913,33.06a.664.664,0,0,0,.483-.019.907.907,0,0,0,.313-.39c.483-.918.918-1.863,1.438-2.758.651-1.121,1.371-2.2,2.058-3.3.174-.279.338-.563.453-.754.163-.448.1-.7-.153-.82s-.482-.033-.691.279c-.029.043-.057.087-.083.131-.214.356-.414.721-.643,1.066a49.457,49.457,0,0,0-3.274,5.712,1.423,1.423,0,0,0-.145.384.408.408,0,0,0,.244.471" fill="#fc6fff"/><path d="M95.8,26.669c.318-1.079.639-2.157.952-3.238a1.151,1.151,0,0,0,.043-.408.472.472,0,0,0-.425-.452.462.462,0,0,0-.506.28,2.419,2.419,0,0,0-.135.392q-.995,3.576-1.981,7.154a2.879,2.879,0,0,0-.1.767.543.543,0,0,0,.532.587c.275,0,.461-.195.494-.561A30.426,30.426,0,0,1,95.8,26.669" fill="#fc6fff"/><path d="M101.4,34.683a1.875,1.875,0,0,0,.434-.361q2.047-2.233,4.085-4.475a2.122,2.122,0,0,0,.192-.244c.155-.228.3-.459.387-.585.133-.428.054-.671-.181-.792a.511.511,0,0,0-.641.184c-.045.051-.078.114-.121.167-.3.375-.6.759-.913,1.121-.3.337-.626.644-.929.975q-1.344,1.473-2.677,2.955a2.462,2.462,0,0,0-.292.362.5.5,0,0,0,.085.618.445.445,0,0,0,.571.075" fill="#fc6fff"/><path d="M105.034,38.577a1.518,1.518,0,0,0,.349-.222c.636-.535,1.262-1.08,1.9-1.613.5-.422,1.005-.846,1.529-1.241a8.1,8.1,0,0,0,1.531-1.469,3.142,3.142,0,0,0,.207-.324c.1-.341.038-.545-.152-.679a.508.508,0,0,0-.625.053,1.781,1.781,0,0,0-.248.265,8.016,8.016,0,0,1-1.677,1.539,10.1,10.1,0,0,0-.852.679c-.776.663-1.546,1.332-2.319,2a2.709,2.709,0,0,0-.236.2.5.5,0,0,0,.594.811" fill="#fc6fff"/><path d="M45.26,39.673a.45.45,0,0,0,.523-.118A1.213,1.213,0,0,0,46,39.2c.192-.5.4-1,.55-1.509a9.268,9.268,0,0,1,.868-2.047c.339-.58.609-1.2.913-1.8.195-.385.4-.765.592-1.15a1.359,1.359,0,0,0,.159-.377.455.455,0,0,0-.5-.54.582.582,0,0,0-.52.334c-.211.375-.394.766-.58,1.155-.3.623-.557,1.265-.884,1.872a11.8,11.8,0,0,0-.848,1.889c-.188.574-.425,1.131-.633,1.7a2.05,2.05,0,0,0-.13.5.407.407,0,0,0,.281.448" fill="#fc6fff"/><path d="M52.97,35.237a2.316,2.316,0,0,0-.348.448,26.553,26.553,0,0,1-2.683,3.757,1.411,1.411,0,0,0-.186.25.468.468,0,0,0,.036.578.48.48,0,0,0,.615.1,1.538,1.538,0,0,0,.342-.309,32.35,32.35,0,0,0,2.862-4.015,4.225,4.225,0,0,0,.225-.456,1.5,1.5,0,0,0-.286-.4.448.448,0,0,0-.577.048" fill="#fc6fff"/></g></g></g></svg>
