<svg xmlns="http://www.w3.org/2000/svg" width="82" height="82" viewBox="0 0 82 82"><g transform="translate(-0.221 -0.402)"><rect width="82" height="82" transform="translate(0.222 0.402)" fill="none"/><g transform="translate(7.278 9.043)"><g transform="translate(0 0)"><g transform="translate(0 20.638)"><path d="M29.853,92.818s-2.131,1.537-1.761,3.4.38,4.9,2.609,5.353,3.348-2.224,2.2-3.729A55.385,55.385,0,0,1,29.853,92.818Z" transform="translate(-15.835 -68.128)" fill="#ffd4b9"/><path d="M21.106,62s6.888,8.388,8.884,8.194a19.688,19.688,0,0,0,5.92-1.569c2.065-.872,5.226,1.241,5.226,1.241l-3.194,4.071s9.685,3.578,10.655,3.887,8.533,6.629,9.422,7.484,1.658,3.9-3.106,3.69c.8,4.123-3.8,2.409-3.8,2.409.555,1.119.063,2.774-3.029,2.493.1,1.755-1.954,3.526-4.913,2.779-4.792-1.619-12.721-3.738-15.924-9.071a31.136,31.136,0,0,0-6.251-6.947c-2.33-2.005-9.635-6.563-9.635-6.563Z" transform="translate(-8.594 -54.755)" fill="#feac7c"/><path d="M69.548,71.206S62.506,66.33,55.68,70.014s-8.193,3.937-8.809,5.422,2.9,2.475,4.992,1.512,4.614-.922,5.318-.515,5.032,3.857,6.149,4.6,10.108,5.318,10.108,5.318a7.517,7.517,0,0,0,3.367-2.511c1.521-1.952,1.345-2.816,1.345-2.816L87.7,76.907l-7.914-12.5Z" transform="translate(-23.972 -55.8)" fill="#fcd5bd"/><path d="M38.494,107.731l1.183,1.464s2.088-.508,2.9.219.347,2.089.347,2.089,1.849-1.509,3.2-.31a1.56,1.56,0,0,1,.228,2.353,2.733,2.733,0,0,1,2.221-.12,2.2,2.2,0,0,1,1.007,1.565s-1.556,3.371-3.844,3.324-2.063-1.883-2.063-1.883-1.983,1.032-3.227-.023a2.212,2.212,0,0,1-.828-2.3,2.457,2.457,0,0,1-2.767-2.554c-.214-2.9,1.646-3.821,1.646-3.821Z" transform="translate(-19.647 -74.599)" fill="#ffd4b9"/><path d="M6.483,71.75c-.294,1.1,7.483,7.357,9.844,6.124s9.577-11.02,9.656-12.332-5.968-8.379-7.772-8.223S6.483,66.533,6.483,71.75Z" transform="translate(-6.475 -52.724)" fill="#73c106"/><path d="M96.943,66.269s-2.672,1.3-2.375,2.82,5.343,12.431,6.457,12.8,4.045-1.076,4.045-1.076Z" transform="translate(-44.688 -56.608)" fill="#fff"/><path d="M106.772,49.548s-10.285,8.081-10.18,9.236,6.4,14.693,8.186,15.428,8.69-2.624,8.69-4.2S110.55,46.19,106.772,49.548Z" transform="translate(-45.576 -49.204)" fill="#ff4b3d"/></g><g transform="translate(21.545 0)"><path d="M30.479,13.311a12.4,12.4,0,0,1,1.009,24.751,4.924,4.924,0,0,1-4.409,2.329c-3.082-.328-.271-.657,1.1-2.48a12.4,12.4,0,0,1,2.217-24.6h.081Z" transform="translate(-17.998 -13.31)" fill="#73c106"/><path d="M38.629,23.491a1.4,1.4,0,0,0-.652.2,57.813,57.813,0,0,0-7.118,6.3,22.2,22.2,0,0,0-2.967-2.452c-.892-.525-1.836,0-1.128,1.128a13.8,13.8,0,0,0,2.9,4.784,2.552,2.552,0,0,0,.24.192,1.272,1.272,0,0,0,1.18.354h0a1.328,1.328,0,0,0,.779-.357,2.7,2.7,0,0,0,.234-.189c1.81-1.652,7-8.629,7-8.629.531-.846.133-1.352-.476-1.331Z" transform="translate(-20.875 -16.748)" fill="#fff"/><path d="M18.006,32.586A12.4,12.4,0,0,0,28.183,44.422c-1.374,1.824-4.184,2.153-1.1,2.48a4.923,4.923,0,0,0,4.409-2.329,12.4,12.4,0,0,0,10.8-8.843c-1.973,1.824-5.519,3.514-11.9,3.514a14.3,14.3,0,0,1-12.385-6.658Z" transform="translate(-18.001 -19.822)" fill="#4da54a"/></g><path d="M20.419,86.315a1.5,1.5,0,1,1-1.5-1.5,1.5,1.5,0,0,1,1.5,1.5Z" transform="translate(-11.227 -44.019)" fill="#fff"/><path d="M51.592,118.005l-2.68,2.886a5.257,5.257,0,0,1,1.173-1.784C50.767,118.556,51.592,118.005,51.592,118.005Z" transform="translate(-24.888 -58.419)" fill="#d9a88a"/><path d="M44.935,114.4s-2.67,2.5-3.307,2.6.794-1.713,1.8-2.014A7.664,7.664,0,0,0,44.935,114.4Z" transform="translate(-21.659 -56.853)" fill="#d9a88a"/><path d="M40.578,109.2s-.974.731-1.5.377.315-1.841.315-1.841Z" transform="translate(-20.547 -53.961)" fill="#d9a88a"/><path d="M64.341,85.324l.078.107a1.668,1.668,0,0,1,.431.154c.706.407,5.04,3.864,6.159,4.612.5.337,2.608,1.449,4.765,2.571a13.028,13.028,0,0,0,.97-2.556c.683-1.945,3.837-3.521-.263-3S64.341,85.324,64.341,85.324Z" transform="translate(-31.583 -44.239)" fill="#d9a88a"/></g></g></g></svg>