<svg xmlns="http://www.w3.org/2000/svg" width="98" height="99" viewBox="0 0 98 99"><g transform="translate(-0.467 0.066)"><rect width="98" height="99" transform="translate(0.466 -0.066)" fill="none"/><g transform="translate(10.495 11.376)"><g transform="translate(0 0)"><path d="M21.707,114.484s-.626-10.643-.157-12.522,7.122-2.27,8.061-.391c.51,1.019.783,11.817.626,12.522S21.707,114.484,21.707,114.484Z" transform="translate(-14.014 -44.181)" fill="#ff4b3d"/><path d="M42,108.708s-.626-24.261-.157-26.139,7.122-2.27,8.061-.391c.51,1.019.783,25.435.626,26.139S42,108.708,42,108.708Z" transform="translate(-20.058 -38.405)" fill="#ffc517"/><path d="M62.3,112.426s-.626-15.5-.157-17.374,7.122-2.27,8.061-.391c.51,1.019.783,16.669.626,17.374s-8.53.391-8.53.391Z" transform="translate(-26.103 -42.123)" fill="#ff4b3d"/><path d="M82.589,107.048S81.963,78.874,82.433,77s7.122-2.27,8.061-.391c.51,1.019.783,29.348.626,30.052s-8.53.391-8.53.391Z" transform="translate(-32.147 -36.745)" fill="#ffc517"/><path d="M102.883,103.462s-.626-36.626-.156-38.5,7.122-2.27,8.061-.391c.51,1.019.783,37.8.626,38.5S102.883,103.462,102.883,103.462Z" transform="translate(-38.192 -33.16)" fill="#ffc517"/><path d="M50.637,111.443c-2.935.1-5.843.144-8.7.154.073,3.524.14,6.193.14,6.193s8.374.313,8.53-.391c.047-.213.051-2.7.025-5.955Z" transform="translate(-20.139 -47.487)" fill="#ffac17"/><path d="M21.45,111.3c.092,3.216.279,6.446.279,6.446s8.374.313,8.53-.391c.075-.339.049-3.027-.053-5.829-3.03-.04-5.948-.121-8.756-.225Z" transform="translate(-14.036 -47.445)" fill="#cf1531"/><path d="M70.851,110.219c-2.9.266-5.813.472-8.723.627.1,3.532.216,6.58.216,6.58s8.374.313,8.531-.391c.067-.3.052-3.36-.024-6.815Z" transform="translate(-26.152 -47.123)" fill="#cf1531"/><path d="M91.208,107.525c-2.836.508-5.743.938-8.693,1.3.078,4.41.151,7.8.151,7.8s8.374.313,8.531-.391C91.251,115.983,91.251,112.234,91.208,107.525Z" transform="translate(-32.224 -46.321)" fill="#ffac17"/><path d="M111.495,102.523c-2.751.913-5.663,1.7-8.689,2.392.078,5.764.153,10.218.153,10.218s8.374.313,8.531-.391c.059-.264.057-5.6.006-12.219Z" transform="translate(-38.267 -44.831)" fill="#ffac17"/><path d="M86.9,20.358c-1.335-.013-3.69.8-9.438,2.7-5.886,1.944-6.009,7.356-2.82,6.009a5.144,5.144,0,0,1,2.431-.4C72.208,34.636,54,56.845,52.07,56.941c-2.223.111-10.672-15.9-16.452-13.006S20.278,65.278,20.5,66.946,35.285,49.271,37.619,51.161,47.957,64.611,51.07,65.834s7.892-5.669,10.227-8c1.9-1.9,15.69-18.678,20.9-25.034a5.167,5.167,0,0,1,.039,2.975c-.94,3.331,4.415,2.536,5.611-3.546,1.781-9.051,2.041-9.972.646-11.2a2.216,2.216,0,0,0-1.6-.664Z" transform="translate(-13.752 -20.358)" fill="#73c106"/><path d="M43.5,59.172c-.78,0-2.441,3.126-3.493,5.274,1.6-1.4,2.864-2.178,3.424-1.726a24.469,24.469,0,0,1,2.6,2.858c-.745-2.49-1.763-5.655-2.321-6.305A.265.265,0,0,0,43.5,59.172Zm11.2,6.343c.659,1.971,1.438,4.317,1.9,5.785.508,1.625,2.587-2.158,4-5.043-1.366,1.383-2.344,2.227-2.715,2.245C57.254,68.533,56.121,67.263,54.7,65.515Z" transform="translate(-19.563 -31.919)" fill="#55aa17"/><g transform="translate(0 68.732)"><path d="M13.952,119.571s24.368-1.331,36.347-1.326,35.479,1.326,35.479,1.326a3.1,3.1,0,0,1,3.061,3.061,3.054,3.054,0,0,1-3.061,3.061H13.952a3.061,3.061,0,0,1,0-6.122Z" transform="translate(-10.891 -118.245)" fill="#73c106"/></g></g></g></g></svg>