<svg xmlns="http://www.w3.org/2000/svg" xmlns:xlink="http://www.w3.org/1999/xlink" width="24" height="24" viewBox="0 0 24 24"><defs><clipPath id="a"><rect width="24" height="24" transform="translate(-17583 6423)" fill="none" stroke="#707070" stroke-width="1"/></clipPath></defs><g transform="translate(17583 -6423)" clip-path="url(#a)"><path d="M29.215,14.721l1.592,3.395a.5.5,0,0,0,.249.209l3.533.522a.374.374,0,0,1,.2.627L32.2,22.085a.4.4,0,0,0-.1.313l.6,3.708a.333.333,0,0,1-.5.366L29.066,24.7a.3.3,0,0,0-.3,0l-3.185,1.776a.344.344,0,0,1-.5-.366l.6-3.708a.4.4,0,0,0-.1-.313L23,19.473a.374.374,0,0,1,.2-.627l3.533-.522c.1,0,.2-.1.249-.209l1.592-3.395C28.768,14.46,29.116,14.46,29.215,14.721Z" transform="translate(-17599.893 6414.475)" fill="#ffd800"/></g></svg>