<svg xmlns="http://www.w3.org/2000/svg" xmlns:xlink="http://www.w3.org/1999/xlink" width="120" height="120" viewBox="0 0 120 120"><defs><clipPath id="a"><rect width="120" height="120" transform="translate(120 104)" fill="none" stroke="#707070" stroke-width="1"/></clipPath><clipPath id="b"><path d="M132.421-43.634a34.533,34.533,0,0,0,6.752-5.732m2.554-2.948h0a42.913,42.913,0,0,0,3.531-5.016,42.931,42.931,0,0,0,4.964-12.148,43.507,43.507,0,0,0,1.092-13.058,43.439,43.439,0,0,0-2.287-11.271,43.178,43.178,0,0,0-5.263-10.4,43.826,43.826,0,0,0-4.558-5.566,43.631,43.631,0,0,0-8.127-6.615,43.187,43.187,0,0,0-9.862-4.6A43.53,43.53,0,0,0,108-123.052a43.407,43.407,0,0,0-10.341,1.236,42.888,42.888,0,0,0-11.04,4.385,43.18,43.18,0,0,0-8.651,6.483,43.066,43.066,0,0,0-8.131,10.776,43.019,43.019,0,0,0-4.251,12.043,43.548,43.548,0,0,0-.525,13.021,43.3,43.3,0,0,0,5.164,16.253A43.587,43.587,0,0,0,77-49.7,43.367,43.367,0,0,0,91.728-39.687a43.513,43.513,0,0,0,20.581,3.074A43.039,43.039,0,0,0,129.158-41.8" transform="translate(-64.797 123.052)" fill="none" clip-rule="evenodd"/></clipPath><clipPath id="c"><path d="M95.846-114.3a37.455,37.455,0,0,0-5.363,2.512,37.779,37.779,0,0,0-7.57,5.673,38.154,38.154,0,0,0-2.688,2.878m-2.59,3.462q-1,1.508-1.837,3.088-.62,1.166-1.152,2.364" transform="translate(-74.646 114.299)" fill="none" clip-rule="evenodd"/></clipPath></defs><g transform="translate(-120 -104)" clip-path="url(#a)"><g transform="translate(118.719 102)"><g transform="matrix(0.719, -0.695, 0.695, 0.719, 0, 60.067)"><path d="M35.645,86.249a34.532,34.532,0,0,0,8.839.567m3.885-.346h0A42.863,42.863,0,0,0,66.4,80.024,43.466,43.466,0,0,0,64.949,5.86,43.072,43.072,0,0,0,18.477,7.813,43.456,43.456,0,0,0,16.3,77.328,43.039,43.039,0,0,0,32.026,85.3" fill="none" stroke="#f82626" stroke-linecap="round" stroke-width="2.5"/></g><g transform="translate(26.802 25.814)" clip-path="url(#c)"><path d="M65.463-97.351l27.432-26.491,8.408,8.707L73.871-88.644Z" transform="translate(-73.734 115.246)" fill="#fff"/></g><g transform="matrix(0.719, -0.695, 0.695, 0.719, 24.899, 43.82)"><path d="M29.128,3.1A37.568,37.568,0,0,0,14.139,0a38.137,38.137,0,0,0-3.933.2M5.938.894q-1.766.392-3.467.946Q1.216,2.248,0,2.74" fill="none" stroke="#f82626" stroke-linecap="round" stroke-width="2.5"/></g><path d="M34.68,39.138,20.031,24.489,5.382,39.138A3.152,3.152,0,0,1,.923,34.68L15.572,20.031.923,5.382A3.153,3.153,0,0,1,5.382.924L20.031,15.573,34.68.924a3.153,3.153,0,0,1,4.459,4.459L24.489,20.031,39.138,34.68a3.152,3.152,0,1,1-4.459,4.458Z" transform="translate(40.868 45.795)" fill="#fff" stroke="#f82626" stroke-linecap="round" stroke-linejoin="round" stroke-width="2.3"/></g></g></svg>