<svg xmlns="http://www.w3.org/2000/svg" width="24" height="24" viewBox="0 0 24 24"><g transform="translate(-2.993 -3)"><path d="M15.675,8.608l-2.4-1.158L9.71,11.323l2.9,2.1-2.23,2.441,2.4,1.158,3.562-3.873-2.9-2.1Z" transform="translate(1.973 2.762)" fill="#fff"/><path d="M5.668,15A9.336,9.336,0,0,1,7,10.213v2.12H9.666V5.667H3V8.333H5.015A12,12,0,0,0,15,27V24.333A9.332,9.332,0,0,1,5.668,15Zm21.325,0A12,12,0,0,0,15,3V5.667a9.333,9.333,0,0,1,8,14.12v-2.12H20.329v6.667h6.664V21.667H24.981A12,12,0,0,0,26.993,15Z" fill="#fff"/></g></svg>